{
copyright = "Copyright (c) 2015, Cadson Demak (info@cadsondemak.com)";
customParameters = (
{
name = vendorID;
value = CDK;
},
{
name = description;
value = "Copyright (c) 2015, Cadson Demak (info@cadsondemak.com)";
},
{
name = license;

glyphs = (
{
glyphname = A;
lastChange = "2015-10-28 14:45:04 +0000";
layers = (
{
layerId = "C917F9CB-DEFA-4BDD-B24E-8B4296F56613";
name = "SemiBold Italic";
paths = (
{
closed = 1;
nodes = (
"550 0 LINE",
"700 0 LINE",
"569 699 LINE",
"420 699 LINE",
"-8 0 LINE",
"153 0 LINE",
"245 152 LINE",
"522 152 LINE"
);
},
{
closed = 1;
nodes = (
"310 273 LINE",
"465 539 LINE",
"508 273 LINE"
);
}
);
width = 772;
}
);
leftKerningGroup = A;
note = A;
rightKerningGroup = A;
unicode = 0041;
},
{
glyphname = Aacute;
lastChange = "2015-10-28 14:45:03 +0000";
layers = (
{
layerId = "C917F9CB-DEFA-4BDD-B24E-8B4296F56613";
name = "SemiBold Italic";
paths = (
{
closed = 1;
nodes = (
"522 152 LINE",
"245 152 LINE",
"153 0 LINE",
"-8 0 LINE",
"420 699 LINE",
"569 699 LINE",
"700 0 LINE",
"550 0 LINE"
);
},
{
closed = 1;
nodes = (
"508 273 LINE",
"465 539 LINE",
"310 273 LINE"
);
},
{
closed = 1;
nodes = (
"558 742 LINE",
"684 918 LINE",
"525 918 LINE",
"419 742 LINE"
);
}
);
width = 772;
}
);
leftKerningGroup = A;
note = Aacute;
rightKerningGroup = A;
unicode = 00C1;
},
{
glyphname = Abreve;
lastChange = "2015-10-28 14:45:04 +0000";
layers = (
{
layerId = "C917F9CB-DEFA-4BDD-B24E-8B4296F56613";
name = "SemiBold Italic";
paths = (
{
closed = 1;
nodes = (
"550 0 LINE",
"700 0 LINE",
"569 699 LINE",
"420 699 LINE",
"-8 0 LINE",
"153 0 LINE",
"245 152 LINE",
"522 152 LINE"
);
},
{
closed = 1;
nodes = (
"310 273 LINE",
"465 539 LINE",
"508 273 LINE"
);
},
{
closed = 1;
nodes = (
"465 840 OFFCURVE",
"449 862 OFFCURVE",
"458 904 CURVE",
"346 904 LINE",
"325 807 OFFCURVE",
"373 742 OFFCURVE",
"482 742 CURVE SMOOTH",
"591 742 OFFCURVE",
"668 807 OFFCURVE",
"689 904 CURVE",
"576 904 LINE",
"567 862 OFFCURVE",
"540 840 OFFCURVE",
"503 840 CURVE SMOOTH"
);
}
);
width = 772;
}
);
leftKerningGroup = A;
note = Abreve;
rightKerningGroup = A;
unicode = 0102;
},
{
glyphname = Abreveacute;
lastChange = "2015-10-28 14:45:03 +0000";
layers = (
{
layerId = "C917F9CB-DEFA-4BDD-B24E-8B4296F56613";
name = "SemiBold Italic";
paths = (
{
closed = 1;
nodes = (
"522 152 LINE",
"245 152 LINE",
"153 0 LINE",
"-8 0 LINE",
"420 699 LINE",
"569 699 LINE",
"700 0 LINE",
"550 0 LINE"
);
},
{
closed = 1;
nodes = (
"508 273 LINE",
"465 539 LINE",
"310 273 LINE"
);
},
{
closed = 1;
nodes = (
"590 903 LINE",
"685 1030 LINE",
"563 1030 LINE",
"485 903 LINE"
);
},
{
closed = 1;
nodes = (
"561 831 OFFCURVE",
"586 850 OFFCURVE",
"595 890 CURVE",
"698 890 LINE",
"679 799 OFFCURVE",
"604 742 OFFCURVE",
"503 742 CURVE SMOOTH",
"402 742 OFFCURVE",
"351 799 OFFCURVE",
"370 890 CURVE",
"474 890 LINE",
"465 850 OFFCURVE",
"482 831 OFFCURVE",
"522 831 CURVE SMOOTH"
);
}
);
width = 772;
}
);
leftKerningGroup = A;
note = Abreveacute;
rightKerningGroup = A;
unicode = 1EAE;
},
{
glyphname = Abrevedotbelow;
lastChange = "2015-10-28 14:45:02 +0000";
layers = (
{
layerId = "C917F9CB-DEFA-4BDD-B24E-8B4296F56613";
name = "SemiBold Italic";
paths = (
{
closed = 1;
nodes = (
"550 0 LINE",
"700 0 LINE",
"569 699 LINE",
"420 699 LINE",
"-8 0 LINE",
"153 0 LINE",
"245 152 LINE",
"522 152 LINE"
);
},
{
closed = 1;
nodes = (
"310 273 LINE",
"465 539 LINE",
"508 273 LINE"
);
},
{
closed = 1;
nodes = (
"465 840 OFFCURVE",
"449 862 OFFCURVE",
"458 904 CURVE",
"346 904 LINE",
"325 807 OFFCURVE",
"373 742 OFFCURVE",
"482 742 CURVE SMOOTH",
"591 742 OFFCURVE",
"668 807 OFFCURVE",
"689 904 CURVE",
"576 904 LINE",
"567 862 OFFCURVE",
"540 840 OFFCURVE",
"503 840 CURVE SMOOTH"
);
},
{
closed = 1;
nodes = (
"241 -158 OFFCURVE",
"268 -190 OFFCURVE",
"307 -190 CURVE SMOOTH",
"346 -190 OFFCURVE",
"384 -158 OFFCURVE",
"392 -118 CURVE SMOOTH",
"401 -78 OFFCURVE",
"376 -46 OFFCURVE",
"338 -46 CURVE SMOOTH",
"299 -46 OFFCURVE",
"258 -78 OFFCURVE",
"249 -118 CURVE SMOOTH"
);
}
);
width = 772;
}
);
leftKerningGroup = A;
note = Abrevedotbelow;
rightKerningGroup = A;
unicode = 1EB6;
},
{
glyphname = Abrevegrave;
lastChange = "2015-10-28 14:45:03 +0000";
layers = (
{
layerId = "C917F9CB-DEFA-4BDD-B24E-8B4296F56613";
name = "SemiBold Italic";
paths = (
{
closed = 1;
nodes = (
"522 152 LINE",
"245 152 LINE",
"153 0 LINE",
"-8 0 LINE",
"420 699 LINE",
"569 699 LINE",
"700 0 LINE",
"550 0 LINE"
);
},
{
closed = 1;
nodes = (
"508 273 LINE",
"465 539 LINE",
"310 273 LINE"
);
},
{
closed = 1;
nodes = (
"590 903 LINE",
"566 1030 LINE",
"444 1030 LINE",
"485 903 LINE"
);
},
{
closed = 1;
nodes = (
"561 831 OFFCURVE",
"587 850 OFFCURVE",
"596 890 CURVE",
"698 890 LINE",
"679 799 OFFCURVE",
"604 742 OFFCURVE",
"503 742 CURVE SMOOTH",
"402 742 OFFCURVE",
"351 799 OFFCURVE",
"370 890 CURVE",
"474 890 LINE",
"465 850 OFFCURVE",
"482 831 OFFCURVE",
"522 831 CURVE SMOOTH"
);
}
);
width = 772;
}
);
leftKerningGroup = A;
note = Abrevegrave;
rightKerningGroup = A;
unicode = 1EB0;
},
{
glyphname = Abrevehookabove;
lastChange = "2015-10-28 14:45:03 +0000";
layers = (
{
layerId = "C917F9CB-DEFA-4BDD-B24E-8B4296F56613";
name = "SemiBold Italic";
paths = (
{
closed = 1;
nodes = (
"522 152 LINE",
"245 152 LINE",
"153 0 LINE",
"-8 0 LINE",
"420 699 LINE",
"569 699 LINE",
"700 0 LINE",
"550 0 LINE"
);
},
{
closed = 1;
nodes = (
"508 273 LINE",
"465 539 LINE",
"310 273 LINE"
);
},
{
closed = 1;
nodes = (
"674 1023 OFFCURVE",
"645 1052 OFFCURVE",
"578 1052 CURVE SMOOTH",
"553 1052 OFFCURVE",
"518 1047 OFFCURVE",
"498 1040 CURVE",
"486 986 LINE",
"495 991 OFFCURVE",
"513 994 OFFCURVE",
"526 994 CURVE SMOOTH",
"554 994 OFFCURVE",
"566 988 OFFCURVE",
"562 969 CURVE SMOOTH",
"557 947 OFFCURVE",
"537 941 OFFCURVE",
"502 941 CURVE",
"491 892 LINE",
"585 892 LINE",
"590 913 LINE",
"631 921 OFFCURVE",
"658 945 OFFCURVE",
"665 980 CURVE SMOOTH"
);
},
{
closed = 1;
nodes = (
"562 830 OFFCURVE",
"588 850 OFFCURVE",
"597 890 CURVE",
"699 890 LINE",
"680 799 OFFCURVE",
"604 742 OFFCURVE",
"503 742 CURVE SMOOTH",
"402 742 OFFCURVE",
"352 799 OFFCURVE",
"371 890 CURVE",
"474 890 LINE",
"465 850 OFFCURVE",
"483 830 OFFCURVE",
"522 830 CURVE SMOOTH"
);
}
);
width = 772;
}
);
leftKerningGroup = A;
note = Abrevehookabove;
rightKerningGroup = A;
unicode = 1EB2;
},
{
glyphname = Abrevetilde;
lastChange = "2015-10-28 14:45:03 +0000";
layers = (
{
layerId = "C917F9CB-DEFA-4BDD-B24E-8B4296F56613";
name = "SemiBold Italic";
paths = (
{
closed = 1;
nodes = (
"550 0 LINE",
"700 0 LINE",
"569 699 LINE",
"420 699 LINE",
"-8 0 LINE",
"153 0 LINE",
"245 152 LINE",
"522 152 LINE"
);
},
{
closed = 1;
nodes = (
"310 273 LINE",
"465 539 LINE",
"508 273 LINE"
);
},
{
closed = 1;
nodes = (
"456 1054 OFFCURVE",
"427 1044 OFFCURVE",
"403 1019 CURVE",
"383 924 LINE",
"414 954 OFFCURVE",
"441 966 OFFCURVE",
"473 966 CURVE SMOOTH",
"521 966 OFFCURVE",
"565 923 OFFCURVE",
"621 923 CURVE SMOOTH",
"656 923 OFFCURVE",
"684 933 OFFCURVE",
"707 957 CURVE",
"728 1053 LINE",
"698 1023 OFFCURVE",
"670 1011 OFFCURVE",
"640 1011 CURVE SMOOTH",
"590 1011 OFFCURVE",
"543 1054 OFFCURVE",
"492 1054 CURVE SMOOTH"
);
},
{
closed = 1;
nodes = (
"482 831 OFFCURVE",
"465 850 OFFCURVE",
"474 890 CURVE",
"370 890 LINE",
"351 799 OFFCURVE",
"402 742 OFFCURVE",
"503 742 CURVE SMOOTH",
"604 742 OFFCURVE",
"679 799 OFFCURVE",
"698 890 CURVE",
"596 890 LINE",
"587 850 OFFCURVE",
"561 831 OFFCURVE",
"522 831 CURVE SMOOTH"
);
}
);
width = 772;
}
);
leftKerningGroup = A;
note = Abrevetilde;
rightKerningGroup = A;
unicode = 1EB4;
},
{
glyphname = Acaron;
lastChange = "2015-10-28 14:45:04 +0000";
layers = (
{
layerId = "C917F9CB-DEFA-4BDD-B24E-8B4296F56613";
name = "SemiBold Italic";
paths = (
{
closed = 1;
nodes = (
"522 152 LINE",
"245 152 LINE",
"153 0 LINE",
"-8 0 LINE",
"420 699 LINE",
"569 699 LINE",
"700 0 LINE",
"550 0 LINE"
);
},
{
closed = 1;
nodes = (
"508 273 LINE",
"465 539 LINE",
"310 273 LINE"
);
},
{
closed = 1;
nodes = (
"416 742 LINE",
"551 742 LINE",
"739 918 LINE",
"589 918 LINE",
"502 826 LINE",
"453 918 LINE",
"303 918 LINE"
);
}
);
width = 772;
}
);
leftKerningGroup = A;
note = Acaron;
rightKerningGroup = A;
unicode = 01CD;
},
{
glyphname = Acircumflex;
lastChange = "2015-10-28 14:45:03 +0000";
layers = (
{
layerId = "C917F9CB-DEFA-4BDD-B24E-8B4296F56613";
name = "SemiBold Italic";
paths = (
{
closed = 1;
nodes = (
"522 152 LINE",
"245 152 LINE",
"153 0 LINE",
"-8 0 LINE",
"420 699 LINE",
"569 699 LINE",
"700 0 LINE",
"550 0 LINE"
);
},
{
closed = 1;
nodes = (
"508 273 LINE",
"465 539 LINE",
"310 273 LINE"
);
},
{
closed = 1;
nodes = (
"588 918 LINE",
"453 918 LINE",
"266 742 LINE",
"416 742 LINE",
"504 834 LINE",
"552 742 LINE",
"702 742 LINE"
);
}
);
width = 772;
}
);
leftKerningGroup = A;
note = Acircumflex;
rightKerningGroup = A;
unicode = 00C2;
},
{
glyphname = Acircumflexacute;
lastChange = "2015-10-28 14:45:03 +0000";
layers = (
{
layerId = "C917F9CB-DEFA-4BDD-B24E-8B4296F56613";
name = "SemiBold Italic";
paths = (
{
closed = 1;
nodes = (
"522 152 LINE",
"245 152 LINE",
"153 0 LINE",
"-8 0 LINE",
"420 699 LINE",
"569 699 LINE",
"700 0 LINE",
"550 0 LINE"
);
},
{
closed = 1;
nodes = (
"508 273 LINE",
"465 539 LINE",
"310 273 LINE"
);
},
{
closed = 1;
nodes = (
"782 850 LINE",
"889 983 LINE",
"750 983 LINE",
"663 850 LINE"
);
},
{
closed = 1;
nodes = (
"598 897 LINE",
"483 897 LINE",
"304 742 LINE",
"442 742 LINE",
"523 818 LINE",
"572 742 LINE",
"709 742 LINE"
);
}
);
width = 771;
}
);
leftKerningGroup = A;
note = Acircumflexacute;
rightKerningGroup = A;
unicode = 1EA4;
},
{
glyphname = Acircumflexdotbelow;
lastChange = "2015-10-28 14:45:03 +0000";
layers = (
{
layerId = "C917F9CB-DEFA-4BDD-B24E-8B4296F56613";
name = "SemiBold Italic";
paths = (
{
closed = 1;
nodes = (
"522 152 LINE",
"245 152 LINE",
"153 0 LINE",
"-8 0 LINE",
"420 699 LINE",
"569 699 LINE",
"700 0 LINE",
"550 0 LINE"
);
},
{
closed = 1;
nodes = (
"508 273 LINE",
"465 539 LINE",
"310 273 LINE"
);
},
{
closed = 1;
nodes = (
"588 918 LINE",
"453 918 LINE",
"266 742 LINE",
"416 742 LINE",
"504 834 LINE",
"552 742 LINE",
"702 742 LINE"
);
},
{
closed = 1;
nodes = (
"241 -158 OFFCURVE",
"268 -190 OFFCURVE",
"307 -190 CURVE SMOOTH",
"346 -190 OFFCURVE",
"384 -158 OFFCURVE",
"392 -118 CURVE SMOOTH",
"401 -78 OFFCURVE",
"376 -46 OFFCURVE",
"338 -46 CURVE SMOOTH",
"299 -46 OFFCURVE",
"258 -78 OFFCURVE",
"249 -118 CURVE SMOOTH"
);
}
);
width = 772;
}
);
leftKerningGroup = A;
note = Acircumflexdotbelow;
rightKerningGroup = A;
unicode = 1EAC;
},
{
glyphname = Acircumflexgrave;
lastChange = "2015-10-28 14:45:02 +0000";
layers = (
{
layerId = "C917F9CB-DEFA-4BDD-B24E-8B4296F56613";
name = "SemiBold Italic";
paths = (
{
closed = 1;
nodes = (
"518 152 LINE",
"241 152 LINE",
"149 0 LINE",
"-12 0 LINE",
"416 699 LINE",
"565 699 LINE",
"696 0 LINE",
"546 0 LINE"
);
},
{
closed = 1;
nodes = (
"504 273 LINE",
"461 539 LINE",
"306 273 LINE"
);
},
{
closed = 1;
nodes = (
"394 850 LINE",
"362 983 LINE",
"222 983 LINE",
"273 850 LINE"
);
},
{
closed = 1;
nodes = (
"301 742 LINE",
"438 742 LINE",
"519 818 LINE",
"567 742 LINE",
"705 742 LINE",
"593 897 LINE",
"479 897 LINE"
);
}
);
width = 769;
}
);
leftKerningGroup = A;
note = Acircumflexgrave;
rightKerningGroup = A;
unicode = 1EA6;
},
{
glyphname = Acircumflexhookabove;
lastChange = "2015-10-28 14:45:03 +0000";
layers = (
{
layerId = "C917F9CB-DEFA-4BDD-B24E-8B4296F56613";
name = "SemiBold Italic";
paths = (
{
closed = 1;
nodes = (
"522 152 LINE",
"245 152 LINE",
"153 0 LINE",
"-8 0 LINE",
"420 699 LINE",
"569 699 LINE",
"700 0 LINE",
"550 0 LINE"
);
},
{
closed = 1;
nodes = (
"508 273 LINE",
"465 539 LINE",
"310 273 LINE"
);
},
{
closed = 1;
nodes = (
"840 971 OFFCURVE",
"809 1000 OFFCURVE",
"744 1000 CURVE SMOOTH",
"718 1000 OFFCURVE",
"683 995 OFFCURVE",
"664 989 CURVE",
"653 935 LINE",
"663 939 OFFCURVE",
"679 942 OFFCURVE",
"692 942 CURVE SMOOTH",
"719 942 OFFCURVE",
"732 936 OFFCURVE",
"728 918 CURVE SMOOTH",
"723 896 OFFCURVE",
"703 889 OFFCURVE",
"667 889 CURVE",
"657 839 LINE",
"750 839 LINE",
"755 863 LINE",
"796 871 OFFCURVE",
"824 895 OFFCURVE",
"831 928 CURVE SMOOTH"
);
},
{
closed = 1;
nodes = (
"594 897 LINE",
"479 897 LINE",
"300 742 LINE",
"438 742 LINE",
"519 818 LINE",
"568 742 LINE",
"705 742 LINE"
);
}
);
width = 772;
}
);
leftKerningGroup = A;
note = Acircumflexhookabove;
rightKerningGroup = A;
unicode = 1EA8;
},
{
glyphname = Acircumflextilde;
lastChange = "2015-10-28 14:45:04 +0000";
layers = (
{
layerId = "C917F9CB-DEFA-4BDD-B24E-8B4296F56613";
name = "SemiBold Italic";
paths = (
{
closed = 1;
nodes = (
"550 0 LINE",
"700 0 LINE",
"569 699 LINE",
"420 699 LINE",
"-8 0 LINE",
"153 0 LINE",
"245 152 LINE",
"522 152 LINE"
);
},
{
closed = 1;
nodes = (
"310 273 LINE",
"465 539 LINE",
"508 273 LINE"
);
},
{
closed = 1;
nodes = (
"459 1039 OFFCURVE",
"430 1029 OFFCURVE",
"406 1004 CURVE",
"386 909 LINE",
"416 939 OFFCURVE",
"444 951 OFFCURVE",
"475 951 CURVE SMOOTH",
"523 951 OFFCURVE",
"568 908 OFFCURVE",
"623 908 CURVE SMOOTH",
"658 908 OFFCURVE",
"686 918 OFFCURVE",
"709 942 CURVE",
"730 1038 LINE",
"701 1008 OFFCURVE",
"672 996 OFFCURVE",
"642 996 CURVE SMOOTH",
"593 996 OFFCURVE",
"545 1039 OFFCURVE",
"494 1039 CURVE SMOOTH"
);
},
{
closed = 1;
nodes = (
"595 897 LINE",
"480 897 LINE",
"301 742 LINE",
"439 742 LINE",
"520 818 LINE",
"569 742 LINE",
"706 742 LINE"
);
}
);
width = 772;
}
);
leftKerningGroup = A;
note = Acircumflextilde;
rightKerningGroup = A;
unicode = 1EAA;
},
{
glyphname = Adieresis;
lastChange = "2015-10-28 14:45:04 +0000";
layers = (
{
layerId = "C917F9CB-DEFA-4BDD-B24E-8B4296F56613";
name = "SemiBold Italic";
paths = (
{
closed = 1;
nodes = (
"522 152 LINE",
"245 152 LINE",
"153 0 LINE",
"-8 0 LINE",
"420 699 LINE",
"569 699 LINE",
"700 0 LINE",
"550 0 LINE"
);
},
{
closed = 1;
nodes = (
"508 273 LINE",
"465 539 LINE",
"310 273 LINE"
);
},
{
closed = 1;
nodes = (
"302 783 OFFCURVE",
"329 752 OFFCURVE",
"367 752 CURVE SMOOTH",
"406 752 OFFCURVE",
"444 783 OFFCURVE",
"453 823 CURVE SMOOTH",
"461 863 OFFCURVE",
"436 895 OFFCURVE",
"397 895 CURVE SMOOTH",
"359 895 OFFCURVE",
"319 863 OFFCURVE",
"311 823 CURVE SMOOTH"
);
},
{
closed = 1;
nodes = (
"537 783 OFFCURVE",
"565 752 OFFCURVE",
"604 752 CURVE SMOOTH",
"642 752 OFFCURVE",
"681 783 OFFCURVE",
"690 823 CURVE SMOOTH",
"698 863 OFFCURVE",
"672 895 OFFCURVE",
"634 895 CURVE SMOOTH",
"595 895 OFFCURVE",
"554 863 OFFCURVE",
"546 823 CURVE SMOOTH"
);
}
);
width = 772;
}
);
leftKerningGroup = A;
note = Adieresis;
rightKerningGroup = A;
unicode = 00C4;
},
{
glyphname = Adotbelow;
lastChange = "2015-10-28 14:45:03 +0000";
layers = (
{
layerId = "C917F9CB-DEFA-4BDD-B24E-8B4296F56613";
name = "SemiBold Italic";
paths = (
{
closed = 1;
nodes = (
"550 0 LINE",
"700 0 LINE",
"569 699 LINE",
"420 699 LINE",
"-8 0 LINE",
"153 0 LINE",
"245 152 LINE",
"522 152 LINE"
);
},
{
closed = 1;
nodes = (
"310 273 LINE",
"465 539 LINE",
"508 273 LINE"
);
},
{
closed = 1;
nodes = (
"241 -158 OFFCURVE",
"268 -190 OFFCURVE",
"307 -190 CURVE SMOOTH",
"346 -190 OFFCURVE",
"384 -158 OFFCURVE",
"392 -118 CURVE SMOOTH",
"401 -78 OFFCURVE",
"376 -46 OFFCURVE",
"338 -46 CURVE SMOOTH",
"299 -46 OFFCURVE",
"258 -78 OFFCURVE",
"249 -118 CURVE SMOOTH"
);
}
);
width = 772;
}
);
leftKerningGroup = A;
note = Adotbelow;
rightKerningGroup = A;
unicode = 1EA0;
},
{
glyphname = Agrave;
lastChange = "2015-10-28 14:45:02 +0000";
layers = (
{
layerId = "C917F9CB-DEFA-4BDD-B24E-8B4296F56613";
name = "SemiBold Italic";
paths = (
{
closed = 1;
nodes = (
"522 152 LINE",
"245 152 LINE",
"153 0 LINE",
"-8 0 LINE",
"420 699 LINE",
"569 699 LINE",
"700 0 LINE",
"550 0 LINE"
);
},
{
closed = 1;
nodes = (
"508 273 LINE",
"465 539 LINE",
"310 273 LINE"
);
},
{
closed = 1;
nodes = (
"554 742 LINE",
"522 918 LINE",
"363 918 LINE",
"414 742 LINE"
);
}
);
width = 772;
}
);
leftKerningGroup = A;
note = Agrave;
rightKerningGroup = A;
unicode = 00C0;
},
{
glyphname = Ahookabove;
lastChange = "2015-10-28 14:45:04 +0000";
layers = (
{
layerId = "C917F9CB-DEFA-4BDD-B24E-8B4296F56613";
name = "SemiBold Italic";
paths = (
{
closed = 1;
nodes = (
"522 152 LINE",
"245 152 LINE",
"153 0 LINE",
"-8 0 LINE",
"420 699 LINE",
"569 699 LINE",
"700 0 LINE",
"550 0 LINE"
);
},
{
closed = 1;
nodes = (
"508 273 LINE",
"465 539 LINE",
"310 273 LINE"
);
},
{
closed = 1;
nodes = (
"680 930 OFFCURVE",
"640 972 OFFCURVE",
"540 972 CURVE SMOOTH",
"502 972 OFFCURVE",
"455 965 OFFCURVE",
"428 957 CURVE",
"412 882 LINE",
"426 888 OFFCURVE",
"460 893 OFFCURVE",
"476 893 CURVE SMOOTH",
"519 893 OFFCURVE",
"534 882 OFFCURVE",
"528 858 CURVE",
"521 824 OFFCURVE",
"486 814 OFFCURVE",
"434 814 CURVE",
"419 742 LINE",
"551 742 LINE",
"557 771 LINE",
"617 783 OFFCURVE",
"657 821 OFFCURVE",
"667 869 CURVE SMOOTH"
);
}
);
width = 772;
}
);
leftKerningGroup = A;
note = Ahookabove;
rightKerningGroup = A;
unicode = 1EA2;
},
{
glyphname = Amacron;
lastChange = "2015-10-28 14:45:03 +0000";
layers = (
{
layerId = "C917F9CB-DEFA-4BDD-B24E-8B4296F56613";
name = "SemiBold Italic";
paths = (
{
closed = 1;
nodes = (
"522 152 LINE",
"245 152 LINE",
"153 0 LINE",
"-8 0 LINE",
"420 699 LINE",
"569 699 LINE",
"700 0 LINE",
"550 0 LINE"
);
},
{
closed = 1;
nodes = (
"508 273 LINE",
"465 539 LINE",
"310 273 LINE"
);
},
{
closed = 1;
nodes = (
"652 752 LINE",
"672 850 LINE",
"339 850 LINE",
"319 752 LINE"
);
}
);
width = 772;
}
);
leftKerningGroup = A;
note = Amacron;
rightKerningGroup = A;
unicode = 0100;
},
{
glyphname = Aogonek;
lastChange = "2015-10-28 14:45:03 +0000";
layers = (
{
layerId = "C917F9CB-DEFA-4BDD-B24E-8B4296F56613";
name = "SemiBold Italic";
paths = (
{
closed = 1;
nodes = (
"601 -215 OFFCURVE",
"638 -209 OFFCURVE",
"663 -201 CURVE",
"681 -117 LINE",
"665 -124 OFFCURVE",
"647 -128 OFFCURVE",
"630 -128 CURVE SMOOTH",
"608 -128 OFFCURVE",
"596 -115 OFFCURVE",
"601 -92 CURVE SMOOTH",
"608 -58 OFFCURVE",
"640 -30 OFFCURVE",
"700 0 CURVE",
"569 699 LINE",
"420 699 LINE",
"-8 0 LINE",
"153 0 LINE",
"245 152 LINE",
"522 152 LINE",
"550 0 LINE",
"515 -26 OFFCURVE",
"476 -67 OFFCURVE",
"465 -120 CURVE SMOOTH",
"452 -182 OFFCURVE",
"498 -215 OFFCURVE",
"566 -215 CURVE SMOOTH"
);
},
{
closed = 1;
nodes = (
"310 273 LINE",
"465 539 LINE",
"508 273 LINE"
);
}
);
width = 772;
}
);
leftKerningGroup = A;
note = Aogonek;
rightKerningGroup = A;
unicode = 0104;
},
{
glyphname = Aring;
lastChange = "2015-10-28 14:45:03 +0000";
layers = (
{
layerId = "C917F9CB-DEFA-4BDD-B24E-8B4296F56613";
name = "SemiBold Italic";
paths = (
{
closed = 1;
nodes = (
"368 733 OFFCURVE",
"379 696 OFFCURVE",
"404 672 CURVE",
"-8 0 LINE",
"153 0 LINE",
"245 152 LINE",
"522 152 LINE",
"550 0 LINE",
"700 0 LINE",
"573 675 LINE",
"607 699 OFFCURVE",
"634 735 OFFCURVE",
"643 776 CURVE SMOOTH",
"658 849 OFFCURVE",
"611 908 OFFCURVE",
"538 908 CURVE SMOOTH",
"464 908 OFFCURVE",
"392 849 OFFCURVE",
"377 776 CURVE SMOOTH"
);
},
{
closed = 1;
nodes = (
"310 273 LINE",
"465 539 LINE",
"508 273 LINE"
);
},
{
closed = 1;
nodes = (
"466 803 OFFCURVE",
"493 824 OFFCURVE",
"520 824 CURVE SMOOTH",
"547 824 OFFCURVE",
"563 803 OFFCURVE",
"558 776 CURVE",
"552 749 OFFCURVE",
"526 727 OFFCURVE",
"499 727 CURVE SMOOTH",
"472 727 OFFCURVE",
"455 749 OFFCURVE",
"461 776 CURVE"
);
}
);
width = 772;
}
);
leftKerningGroup = A;
note = Aring;
rightKerningGroup = A;
unicode = 00C5;
},
{
glyphname = Aringacute;
lastChange = "2015-10-28 14:45:03 +0000";
layers = (
{
layerId = "C917F9CB-DEFA-4BDD-B24E-8B4296F56613";
name = "SemiBold Italic";
paths = (
{
closed = 1;
nodes = (
"392 849 OFFCURVE",
"464 908 OFFCURVE",
"538 908 CURVE SMOOTH",
"611 908 OFFCURVE",
"658 849 OFFCURVE",
"643 776 CURVE SMOOTH",
"634 735 OFFCURVE",
"607 699 OFFCURVE",
"573 675 CURVE",
"700 0 LINE",
"550 0 LINE",
"522 152 LINE",
"245 152 LINE",
"153 0 LINE",
"-8 0 LINE",
"404 672 LINE",
"379 696 OFFCURVE",
"368 733 OFFCURVE",
"377 776 CURVE SMOOTH"
);
},
{
closed = 1;
nodes = (
"508 273 LINE",
"465 539 LINE",
"310 273 LINE"
);
},
{
closed = 1;
nodes = (
"455 749 OFFCURVE",
"472 727 OFFCURVE",
"499 727 CURVE SMOOTH",
"526 727 OFFCURVE",
"552 749 OFFCURVE",
"558 776 CURVE",
"563 803 OFFCURVE",
"547 824 OFFCURVE",
"520 824 CURVE SMOOTH",
"493 824 OFFCURVE",
"466 803 OFFCURVE",
"461 776 CURVE"
);
},
{
closed = 1;
nodes = (
"611 923 LINE",
"737 1064 LINE",
"578 1064 LINE",
"472 923 LINE"
);
}
);
width = 772;
}
);
leftKerningGroup = A;
note = Aringacute;
rightKerningGroup = A;
unicode = 01FA;
},
{
glyphname = Atilde;
lastChange = "2015-10-28 14:45:03 +0000";
layers = (
{
layerId = "C917F9CB-DEFA-4BDD-B24E-8B4296F56613";
name = "SemiBold Italic";
paths = (
{
closed = 1;
nodes = (
"550 0 LINE",
"700 0 LINE",
"569 699 LINE",
"420 699 LINE",
"-8 0 LINE",
"153 0 LINE",
"245 152 LINE",
"522 152 LINE"
);
},
{
closed = 1;
nodes = (
"310 273 LINE",
"465 539 LINE",
"508 273 LINE"
);
},
{
closed = 1;
nodes = (
"379 900 OFFCURVE",
"340 888 OFFCURVE",
"309 857 CURVE",
"285 742 LINE",
"324 780 OFFCURVE",
"361 793 OFFCURVE",
"399 793 CURVE SMOOTH",
"463 793 OFFCURVE",
"508 743 OFFCURVE",
"581 743 CURVE SMOOTH",
"624 743 OFFCURVE",
"661 754 OFFCURVE",
"691 785 CURVE",
"715 900 LINE",
"679 863 OFFCURVE",
"643 850 OFFCURVE",
"604 850 CURVE SMOOTH",
"539 850 OFFCURVE",
"489 900 OFFCURVE",
"421 900 CURVE SMOOTH"
);
}
);
width = 772;
}
);
leftKerningGroup = A;
note = Atilde;
rightKerningGroup = A;
unicode = 00C3;
},
{
glyphname = AE;
lastChange = "2015-10-28 14:45:02 +0000";
layers = (
{
layerId = "C917F9CB-DEFA-4BDD-B24E-8B4296F56613";
name = "SemiBold Italic";
paths = (
{
closed = 1;
nodes = (
"668 572 LINE",
"969 572 LINE",
"996 699 LINE",
"459 699 LINE",
"-8 0 LINE",
"155 0 LINE",
"260 158 LINE",
"428 158 LINE",
"395 0 LINE",
"848 0 LINE",
"874 127 LINE",
"573 127 LINE",
"608 288 LINE",
"822 288 LINE",
"848 410 LINE",
"634 410 LINE"
);
},
{
closed = 1;
nodes = (
"515 572 LINE",
"517 572 LINE",
"453 275 LINE",
"334 275 LINE"
);
}
);
width = 915;
}
);
leftKerningGroup = A;
note = AE;
rightKerningGroup = E;
unicode = 00C6;
},
{
glyphname = AEacute;
lastChange = "2015-10-28 14:45:03 +0000";
layers = (
{
layerId = "C917F9CB-DEFA-4BDD-B24E-8B4296F56613";
name = "SemiBold Italic";
paths = (
{
closed = 1;
nodes = (
"634 410 LINE",
"848 410 LINE",
"822 288 LINE",
"608 288 LINE",
"573 127 LINE",
"874 127 LINE",
"848 0 LINE",
"395 0 LINE",
"428 158 LINE",
"260 158 LINE",
"155 0 LINE",
"-8 0 LINE",
"459 699 LINE",
"996 699 LINE",
"969 572 LINE",
"668 572 LINE"
);
},
{
closed = 1;
nodes = (
"334 275 LINE",
"453 275 LINE",
"517 572 LINE",
"515 572 LINE"
);
},
{
closed = 1;
nodes = (
"712 742 LINE",
"838 918 LINE",
"679 918 LINE",
"573 742 LINE"
);
}
);
width = 920;
}
);
leftKerningGroup = A;
note = AEacute;
rightKerningGroup = E;
unicode = 01FC;
},
{
glyphname = B;
lastChange = "2015-10-28 14:45:02 +0000";
layers = (
{
layerId = "C917F9CB-DEFA-4BDD-B24E-8B4296F56613";
name = "SemiBold Italic";
paths = (
{
closed = 1;
nodes = (
"697 625 OFFCURVE",
"621 699 OFFCURVE",
"503 699 CURVE SMOOTH",
"160 699 LINE",
"12 0 LINE",
"372 0 LINE SMOOTH",
"511 0 OFFCURVE",
"605 75 OFFCURVE",
"631 205 CURVE SMOOTH",
"647 285 OFFCURVE",
"624 338 OFFCURVE",
"561 363 CURVE",
"617 391 OFFCURVE",
"660 445 OFFCURVE",
"673 508 CURVE SMOOTH"
);
},
{
closed = 1;
nodes = (
"393 298 LINE SMOOTH",
"460 298 OFFCURVE",
"492 272 OFFCURVE",
"478 204 CURVE SMOOTH",
"463 135 OFFCURVE",
"420 116 OFFCURVE",
"359 116 CURVE SMOOTH",
"188 116 LINE",
"227 298 LINE"
);
},
{
closed = 1;
nodes = (
"444 583 LINE SMOOTH",
"500 583 OFFCURVE",
"532 567 OFFCURVE",
"518 499 CURVE SMOOTH",
"505 438 OFFCURVE",
"464 415 OFFCURVE",
"414 415 CURVE SMOOTH",
"252 415 LINE",
"287 583 LINE"
);
}
);
width = 661;
}
);
note = B;
unicode = 0042;
},
{
glyphname = C;
lastChange = "2015-10-28 14:45:04 +0000";
layers = (
{
layerId = "C917F9CB-DEFA-4BDD-B24E-8B4296F56613";
name = "SemiBold Italic";
paths = (
{
closed = 1;
nodes = (
"661 197 LINE",
"584 144 OFFCURVE",
"505 123 OFFCURVE",
"409 123 CURVE SMOOTH",
"243 123 OFFCURVE",
"188 200 OFFCURVE",
"221 349 CURVE SMOOTH",
"252 488 OFFCURVE",
"359 574 OFFCURVE",
"505 574 CURVE SMOOTH",
"598 574 OFFCURVE",
"669 554 OFFCURVE",
"719 504 CURVE",
"749 648 LINE",
"693 693 OFFCURVE",
"619 714 OFFCURVE",
"521 714 CURVE SMOOTH",
"290 714 OFFCURVE",
"113 573 OFFCURVE",
"66 349 CURVE SMOOTH",
"18 125 OFFCURVE",
"153 -15 OFFCURVE",
"366 -15 CURVE SMOOTH",
"466 -15 OFFCURVE",
"556 5 OFFCURVE",
"631 53 CURVE"
);
}
);
width = 693;
}
);
leftKerningGroup = C;
note = C;
rightKerningGroup = C;
unicode = 0043;
},
{
glyphname = Cacute;
lastChange = "2015-10-28 14:45:03 +0000";
layers = (
{
layerId = "C917F9CB-DEFA-4BDD-B24E-8B4296F56613";
name = "SemiBold Italic";
paths = (
{
closed = 1;
nodes = (
"661 197 LINE",
"584 144 OFFCURVE",
"505 123 OFFCURVE",
"409 123 CURVE SMOOTH",
"243 123 OFFCURVE",
"188 200 OFFCURVE",
"221 349 CURVE SMOOTH",
"252 488 OFFCURVE",
"359 574 OFFCURVE",
"505 574 CURVE SMOOTH",
"598 574 OFFCURVE",
"669 554 OFFCURVE",
"719 504 CURVE",
"749 648 LINE",
"693 693 OFFCURVE",
"619 714 OFFCURVE",
"521 714 CURVE SMOOTH",
"290 714 OFFCURVE",
"113 573 OFFCURVE",
"66 349 CURVE SMOOTH",
"18 125 OFFCURVE",
"153 -15 OFFCURVE",
"366 -15 CURVE SMOOTH",
"466 -15 OFFCURVE",
"556 5 OFFCURVE",
"631 53 CURVE"
);
},
{
closed = 1;
nodes = (
"571 742 LINE",
"697 918 LINE",
"538 918 LINE",
"432 742 LINE"
);
}
);
width = 693;
}
);
leftKerningGroup = C;
note = Cacute;
rightKerningGroup = C;
unicode = 0106;
},
{
glyphname = Ccaron;
lastChange = "2015-10-28 14:45:03 +0000";
layers = (
{
layerId = "C917F9CB-DEFA-4BDD-B24E-8B4296F56613";
name = "SemiBold Italic";
paths = (
{
closed = 1;
nodes = (
"661 197 LINE",
"584 144 OFFCURVE",
"505 123 OFFCURVE",
"409 123 CURVE SMOOTH",
"243 123 OFFCURVE",
"188 200 OFFCURVE",
"221 349 CURVE SMOOTH",
"252 488 OFFCURVE",
"359 574 OFFCURVE",
"505 574 CURVE SMOOTH",
"598 574 OFFCURVE",
"669 554 OFFCURVE",
"719 504 CURVE",
"749 648 LINE",
"693 693 OFFCURVE",
"619 714 OFFCURVE",
"521 714 CURVE SMOOTH",
"290 714 OFFCURVE",
"113 573 OFFCURVE",
"66 349 CURVE SMOOTH",
"18 125 OFFCURVE",
"153 -15 OFFCURVE",
"366 -15 CURVE SMOOTH",
"466 -15 OFFCURVE",
"556 5 OFFCURVE",
"631 53 CURVE"
);
},
{
closed = 1;
nodes = (
"434 742 LINE",
"569 742 LINE",
"757 918 LINE",
"607 918 LINE",
"520 826 LINE",
"471 918 LINE",
"321 918 LINE"
);
}
);
width = 686;
}
);
leftKerningGroup = C;
note = Ccaron;
rightKerningGroup = C;
unicode = 010C;
},
{
glyphname = Ccedilla;
lastChange = "2015-10-28 14:45:02 +0000";
layers = (
{
layerId = "C917F9CB-DEFA-4BDD-B24E-8B4296F56613";
name = "SemiBold Italic";
paths = (
{
closed = 1;
nodes = (
"500 -94 OFFCURVE",
"476 -57 OFFCURVE",
"422 -49 CURVE",
"445 -10 LINE",
"514 -2 OFFCURVE",
"576 18 OFFCURVE",
"631 53 CURVE",
"661 197 LINE",
"584 144 OFFCURVE",
"505 123 OFFCURVE",
"409 123 CURVE SMOOTH",
"243 123 OFFCURVE",
"188 200 OFFCURVE",
"221 349 CURVE SMOOTH",
"252 488 OFFCURVE",
"359 574 OFFCURVE",
"505 574 CURVE SMOOTH",
"598 574 OFFCURVE",
"669 554 OFFCURVE",
"719 504 CURVE",
"749 648 LINE",
"693 693 OFFCURVE",
"619 714 OFFCURVE",
"521 714 CURVE SMOOTH",
"290 714 OFFCURVE",
"113 573 OFFCURVE",
"66 349 CURVE SMOOTH",
"22 145 OFFCURVE",
"130 11 OFFCURVE",
"311 -11 CURVE",
"266 -87 LINE",
"340 -87 OFFCURVE",
"361 -107 OFFCURVE",
"355 -134 CURVE SMOOTH",
"350 -158 OFFCURVE",
"328 -171 OFFCURVE",
"292 -171 CURVE SMOOTH",
"271 -171 OFFCURVE",
"248 -166 OFFCURVE",
"236 -158 CURVE",
"219 -235 LINE",
"237 -243 OFFCURVE",
"277 -248 OFFCURVE",
"318 -248 CURVE SMOOTH",
"409 -248 OFFCURVE",
"477 -214 OFFCURVE",
"490 -146 CURVE SMOOTH"
);
}
);
width = 693;
}
);
leftKerningGroup = C;
note = Ccedilla;
rightKerningGroup = C;
unicode = 00C7;
},
{
glyphname = Ccircumflex;
lastChange = "2015-10-28 14:45:04 +0000";
layers = (
{
layerId = "C917F9CB-DEFA-4BDD-B24E-8B4296F56613";
name = "SemiBold Italic";
paths = (
{
closed = 1;
nodes = (
"661 197 LINE",
"584 144 OFFCURVE",
"505 123 OFFCURVE",
"409 123 CURVE SMOOTH",
"243 123 OFFCURVE",
"188 200 OFFCURVE",
"221 349 CURVE SMOOTH",
"252 488 OFFCURVE",
"359 574 OFFCURVE",
"505 574 CURVE SMOOTH",
"598 574 OFFCURVE",
"669 554 OFFCURVE",
"719 504 CURVE",
"749 648 LINE",
"693 693 OFFCURVE",
"619 714 OFFCURVE",
"521 714 CURVE SMOOTH",
"290 714 OFFCURVE",
"113 573 OFFCURVE",
"66 349 CURVE SMOOTH",
"18 125 OFFCURVE",
"153 -15 OFFCURVE",
"366 -15 CURVE SMOOTH",
"466 -15 OFFCURVE",
"556 5 OFFCURVE",
"631 53 CURVE"
);
},
{
closed = 1;
nodes = (
"600 918 LINE",
"465 918 LINE",
"278 742 LINE",
"428 742 LINE",
"516 834 LINE",
"564 742 LINE",
"714 742 LINE"
);
}
);
width = 693;
}
);
leftKerningGroup = C;
note = Ccircumflex;
rightKerningGroup = C;
unicode = 0108;
},
{
glyphname = Cdotaccent;
lastChange = "2015-10-28 14:45:02 +0000";
layers = (
{
layerId = "C917F9CB-DEFA-4BDD-B24E-8B4296F56613";
name = "SemiBold Italic";
paths = (
{
closed = 1;
nodes = (
"661 197 LINE",
"584 144 OFFCURVE",
"505 123 OFFCURVE",
"409 123 CURVE SMOOTH",
"243 123 OFFCURVE",
"188 200 OFFCURVE",
"221 349 CURVE SMOOTH",
"252 488 OFFCURVE",
"359 574 OFFCURVE",
"505 574 CURVE SMOOTH",
"598 574 OFFCURVE",
"669 554 OFFCURVE",
"719 504 CURVE",
"749 648 LINE",
"693 693 OFFCURVE",
"619 714 OFFCURVE",
"521 714 CURVE SMOOTH",
"290 714 OFFCURVE",
"113 573 OFFCURVE",
"66 349 CURVE SMOOTH",
"18 125 OFFCURVE",
"153 -15 OFFCURVE",
"366 -15 CURVE SMOOTH",
"466 -15 OFFCURVE",
"556 5 OFFCURVE",
"631 53 CURVE"
);
},
{
closed = 1;
nodes = (
"438 783 OFFCURVE",
"466 752 OFFCURVE",
"505 752 CURVE SMOOTH",
"544 752 OFFCURVE",
"582 783 OFFCURVE",
"591 823 CURVE SMOOTH",
"599 863 OFFCURVE",
"574 895 OFFCURVE",
"535 895 CURVE SMOOTH",
"496 895 OFFCURVE",
"455 863 OFFCURVE",
"447 823 CURVE SMOOTH"
);
}
);
width = 693;
}
);
leftKerningGroup = C;
note = Cdotaccent;
rightKerningGroup = C;
unicode = 010A;
},
{
glyphname = D;
lastChange = "2015-10-28 14:45:02 +0000";
layers = (
{
layerId = "C917F9CB-DEFA-4BDD-B24E-8B4296F56613";
name = "SemiBold Italic";
paths = (
{
closed = 1;
nodes = (
"749 560 OFFCURVE",
"624 699 OFFCURVE",
"403 699 CURVE SMOOTH",
"160 699 LINE",
"12 0 LINE",
"257 0 LINE SMOOTH",
"506 0 OFFCURVE",
"657 116 OFFCURVE",
"706 353 CURVE SMOOTH"
);
},
{
closed = 1;
nodes = (
"523 214 OFFCURVE",
"426 127 OFFCURVE",
"281 127 CURVE SMOOTH",
"190 127 LINE",
"285 572 LINE",
"386 572 LINE SMOOTH",
"541 572 OFFCURVE",
"580 495 OFFCURVE",
"551 353 CURVE SMOOTH"
);
}
);
width = 703;
}
);
note = D;
rightKerningGroup = D;
unicode = 0044;
},
{
glyphname = Eth;
lastChange = "2015-10-28 14:45:03 +0000";
layers = (
{
layerId = "C917F9CB-DEFA-4BDD-B24E-8B4296F56613";
name = "SemiBold Italic";
paths = (
{
closed = 1;
nodes = (
"49 292 LINE",
"104 292 LINE",
"42 0 LINE",
"287 0 LINE SMOOTH",
"536 0 OFFCURVE",
"687 116 OFFCURVE",
"736 353 CURVE SMOOTH",
"779 560 OFFCURVE",
"654 699 OFFCURVE",
"433 699 CURVE SMOOTH",
"190 699 LINE",
"128 406 LINE",
"73 406 LINE"
);
},
{
closed = 1;
nodes = (
"553 214 OFFCURVE",
"456 127 OFFCURVE",
"311 127 CURVE SMOOTH",
"220 127 LINE",
"255 292 LINE",
"414 292 LINE",
"438 406 LINE",
"279 406 LINE",
"315 572 LINE",
"416 572 LINE SMOOTH",
"571 572 OFFCURVE",
"610 495 OFFCURVE",
"581 353 CURVE SMOOTH"
);
}
);
width = 733;
}
);
note = Eth;
rightKerningGroup = D;
unicode = 00D0;
},
{
glyphname = Dcaron;
lastChange = "2015-10-28 14:45:03 +0000";
layers = (
{
layerId = "C917F9CB-DEFA-4BDD-B24E-8B4296F56613";
name = "SemiBold Italic";
paths = (
{
closed = 1;
nodes = (
"657 116 OFFCURVE",
"506 0 OFFCURVE",
"257 0 CURVE SMOOTH",
"12 0 LINE",
"160 699 LINE",
"403 699 LINE SMOOTH",
"624 699 OFFCURVE",
"749 560 OFFCURVE",
"706 353 CURVE SMOOTH"
);
},
{
closed = 1;
nodes = (
"580 495 OFFCURVE",
"541 572 OFFCURVE",
"386 572 CURVE SMOOTH",
"285 572 LINE",
"190 127 LINE",
"281 127 LINE SMOOTH",
"426 127 OFFCURVE",
"523 214 OFFCURVE",
"551 353 CURVE SMOOTH"
);
},
{
closed = 1;
nodes = (
"357 742 LINE",
"492 742 LINE",
"680 918 LINE",
"530 918 LINE",
"443 826 LINE",
"394 918 LINE",
"244 918 LINE"
);
}
);
width = 703;
}
);
note = Dcaron;
rightKerningGroup = D;
unicode = 010E;
},
{
glyphname = Dcroat;
lastChange = "2015-10-28 14:45:04 +0000";
layers = (
{
layerId = "C917F9CB-DEFA-4BDD-B24E-8B4296F56613";
name = "SemiBold Italic";
paths = (
{
closed = 1;
nodes = (
"49 292 LINE",
"104 292 LINE",
"42 0 LINE",
"287 0 LINE SMOOTH",
"536 0 OFFCURVE",
"687 116 OFFCURVE",
"736 353 CURVE SMOOTH",
"779 560 OFFCURVE",
"654 699 OFFCURVE",
"433 699 CURVE SMOOTH",
"190 699 LINE",
"128 406 LINE",
"73 406 LINE"
);
},
{
closed = 1;
nodes = (
"553 214 OFFCURVE",
"456 127 OFFCURVE",
"311 127 CURVE SMOOTH",
"220 127 LINE",
"255 292 LINE",
"414 292 LINE",
"438 406 LINE",
"279 406 LINE",
"315 572 LINE",
"416 572 LINE SMOOTH",
"571 572 OFFCURVE",
"610 495 OFFCURVE",
"581 353 CURVE SMOOTH"
);
}
);
width = 733;
}
);
note = Dcroat;
rightKerningGroup = D;
unicode = 0110;
},
{
glyphname = Ddotbelow;
lastChange = "2015-10-28 14:45:03 +0000";
layers = (
{
layerId = "C917F9CB-DEFA-4BDD-B24E-8B4296F56613";
name = "SemiBold Italic";
paths = (
{
closed = 1;
nodes = (
"749 560 OFFCURVE",
"624 699 OFFCURVE",
"403 699 CURVE SMOOTH",
"160 699 LINE",
"12 0 LINE",
"257 0 LINE SMOOTH",
"506 0 OFFCURVE",
"657 116 OFFCURVE",
"706 353 CURVE SMOOTH"
);
},
{
closed = 1;
nodes = (
"523 214 OFFCURVE",
"426 127 OFFCURVE",
"281 127 CURVE SMOOTH",
"190 127 LINE",
"285 572 LINE",
"386 572 LINE SMOOTH",
"541 572 OFFCURVE",
"580 495 OFFCURVE",
"551 353 CURVE SMOOTH"
);
},
{
closed = 1;
nodes = (
"146 -158 OFFCURVE",
"173 -190 OFFCURVE",
"212 -190 CURVE SMOOTH",
"251 -190 OFFCURVE",
"289 -158 OFFCURVE",
"297 -118 CURVE SMOOTH",
"306 -78 OFFCURVE",
"281 -46 OFFCURVE",
"243 -46 CURVE SMOOTH",
"204 -46 OFFCURVE",
"163 -78 OFFCURVE",
"154 -118 CURVE SMOOTH"
);
}
);
width = 703;
}
);
note = Ddotbelow;
rightKerningGroup = D;
unicode = 1E0C;
},
{
glyphname = Dlinebelow;
lastChange = "2015-10-28 14:45:03 +0000";
layers = (
{
layerId = "C917F9CB-DEFA-4BDD-B24E-8B4296F56613";
name = "SemiBold Italic";
paths = (
{
closed = 1;
nodes = (
"749 560 OFFCURVE",
"624 699 OFFCURVE",
"403 699 CURVE SMOOTH",
"160 699 LINE",
"12 0 LINE",
"257 0 LINE SMOOTH",
"506 0 OFFCURVE",
"657 116 OFFCURVE",
"706 353 CURVE SMOOTH"
);
},
{
closed = 1;
nodes = (
"523 214 OFFCURVE",
"426 127 OFFCURVE",
"281 127 CURVE SMOOTH",
"190 127 LINE",
"285 572 LINE",
"386 572 LINE SMOOTH",
"541 572 OFFCURVE",
"580 495 OFFCURVE",
"551 353 CURVE SMOOTH"
);
},
{
closed = 1;
nodes = (
"395 -162 LINE",
"416 -64 LINE",
"83 -64 LINE",
"62 -162 LINE"
);
}
);
width = 703;
}
);
note = Dlinebelow;
rightKerningGroup = D;
unicode = 1E0E;
},
{
glyphname = E;
lastChange = "2015-10-28 14:45:04 +0000";
layers = (
{
layerId = "C917F9CB-DEFA-4BDD-B24E-8B4296F56613";
name = "SemiBold Italic";
paths = (
{
closed = 1;
nodes = (
"285 572 LINE",
"618 572 LINE",
"645 699 LINE",
"160 699 LINE",
"12 0 LINE",
"497 0 LINE",
"523 127 LINE",
"190 127 LINE",
"225 288 LINE",
"470 288 LINE",
"496 410 LINE",
"251 410 LINE"
);
}
);
width = 559;
}
);
leftKerningGroup = E;
note = E;
rightKerningGroup = E;
unicode = 0045;
},
{
glyphname = Eacute;
lastChange = "2015-10-28 14:45:02 +0000";
layers = (
{
layerId = "C917F9CB-DEFA-4BDD-B24E-8B4296F56613";
name = "SemiBold Italic";
paths = (
{
closed = 1;
nodes = (
"285 572 LINE",
"618 572 LINE",
"645 699 LINE",
"160 699 LINE",
"12 0 LINE",
"497 0 LINE",
"523 127 LINE",
"190 127 LINE",
"225 288 LINE",
"470 288 LINE",
"496 410 LINE",
"251 410 LINE"
);
},
{
closed = 1;
nodes = (
"448 742 LINE",
"574 918 LINE",
"415 918 LINE",
"309 742 LINE"
);
}
);
width = 559;
}
);
leftKerningGroup = E;
note = Eacute;
rightKerningGroup = E;
unicode = 00C9;
},
{
glyphname = Ebreve;
lastChange = "2015-10-28 14:45:02 +0000";
layers = (
{
layerId = "C917F9CB-DEFA-4BDD-B24E-8B4296F56613";
name = "SemiBold Italic";
paths = (
{
closed = 1;
nodes = (
"285 572 LINE",
"618 572 LINE",
"645 699 LINE",
"160 699 LINE",
"12 0 LINE",
"497 0 LINE",
"523 127 LINE",
"190 127 LINE",
"225 288 LINE",
"470 288 LINE",
"496 410 LINE",
"251 410 LINE"
);
},
{
closed = 1;
nodes = (
"388 840 OFFCURVE",
"372 862 OFFCURVE",
"381 904 CURVE",
"269 904 LINE",
"248 807 OFFCURVE",
"296 742 OFFCURVE",
"405 742 CURVE SMOOTH",
"514 742 OFFCURVE",
"591 807 OFFCURVE",
"612 904 CURVE",
"499 904 LINE",
"490 862 OFFCURVE",
"463 840 OFFCURVE",
"426 840 CURVE SMOOTH"
);
}
);
width = 559;
}
);
leftKerningGroup = E;
note = Ebreve;
rightKerningGroup = E;
unicode = 0114;
},
{
glyphname = Ecaron;
lastChange = "2015-10-28 14:45:03 +0000";
layers = (
{
layerId = "C917F9CB-DEFA-4BDD-B24E-8B4296F56613";
name = "SemiBold Italic";
paths = (
{
closed = 1;
nodes = (
"285 572 LINE",
"618 572 LINE",
"645 699 LINE",
"160 699 LINE",
"12 0 LINE",
"497 0 LINE",
"523 127 LINE",
"190 127 LINE",
"225 288 LINE",
"470 288 LINE",
"496 410 LINE",
"251 410 LINE"
);
},
{
closed = 1;
nodes = (
"339 742 LINE",
"474 742 LINE",
"662 918 LINE",
"512 918 LINE",
"425 826 LINE",
"376 918 LINE",
"226 918 LINE"
);
}
);
width = 559;
}
);
leftKerningGroup = E;
note = Ecaron;
rightKerningGroup = E;
unicode = 011A;
},
{
glyphname = Ecircumflex;
lastChange = "2015-10-28 14:45:02 +0000";
layers = (
{
layerId = "C917F9CB-DEFA-4BDD-B24E-8B4296F56613";
name = "SemiBold Italic";
paths = (
{
closed = 1;
nodes = (
"285 572 LINE",
"618 572 LINE",
"645 699 LINE",
"160 699 LINE",
"12 0 LINE",
"497 0 LINE",
"523 127 LINE",
"190 127 LINE",
"225 288 LINE",
"470 288 LINE",
"496 410 LINE",
"251 410 LINE"
);
},
{
closed = 1;
nodes = (
"488 918 LINE",
"353 918 LINE",
"166 742 LINE",
"316 742 LINE",
"404 834 LINE",
"452 742 LINE",
"602 742 LINE"
);
}
);
width = 559;
}
);
leftKerningGroup = E;
note = Ecircumflex;
rightKerningGroup = E;
unicode = 00CA;
},
{
glyphname = Ecircumflexacute;
lastChange = "2015-10-28 14:45:03 +0000";
layers = (
{
layerId = "C917F9CB-DEFA-4BDD-B24E-8B4296F56613";
name = "SemiBold Italic";
paths = (
{
closed = 1;
nodes = (
"285 572 LINE",
"618 572 LINE",
"645 699 LINE",
"160 699 LINE",
"12 0 LINE",
"497 0 LINE",
"523 127 LINE",
"190 127 LINE",
"225 288 LINE",
"470 288 LINE",
"496 410 LINE",
"251 410 LINE"
);
},
{
closed = 1;
nodes = (
"680 850 LINE",
"787 983 LINE",
"648 983 LINE",
"561 850 LINE"
);
},
{
closed = 1;
nodes = (
"496 897 LINE",
"381 897 LINE",
"202 742 LINE",
"340 742 LINE",
"421 818 LINE",
"470 742 LINE",
"607 742 LINE"
);
}
);
width = 559;
}
);
leftKerningGroup = E;
note = Ecircumflexacute;
rightKerningGroup = E;
unicode = 1EBE;
},
{
glyphname = Ecircumflexdotbelow;
lastChange = "2015-10-28 14:45:03 +0000";
layers = (
{
layerId = "C917F9CB-DEFA-4BDD-B24E-8B4296F56613";
name = "SemiBold Italic";
paths = (
{
closed = 1;
nodes = (
"286 572 LINE",
"619 572 LINE",
"646 699 LINE",
"161 699 LINE",
"13 0 LINE",
"498 0 LINE",
"524 127 LINE",
"191 127 LINE",
"226 288 LINE",
"471 288 LINE",
"497 410 LINE",
"252 410 LINE"
);
},
{
closed = 1;
nodes = (
"500 918 LINE",
"365 918 LINE",
"178 742 LINE",
"328 742 LINE",
"416 834 LINE",
"464 742 LINE",
"614 742 LINE"
);
},
{
closed = 1;
nodes = (
"154 -158 OFFCURVE",
"181 -190 OFFCURVE",
"220 -190 CURVE SMOOTH",
"259 -190 OFFCURVE",
"297 -158 OFFCURVE",
"305 -118 CURVE SMOOTH",
"314 -78 OFFCURVE",
"289 -46 OFFCURVE",
"251 -46 CURVE SMOOTH",
"212 -46 OFFCURVE",
"171 -78 OFFCURVE",
"162 -118 CURVE SMOOTH"
);
}
);
width = 559;
}
);
leftKerningGroup = E;
note = Ecircumflexdotbelow;
rightKerningGroup = E;
unicode = 1EC6;
},
{
glyphname = Ecircumflexgrave;
lastChange = "2015-10-28 14:45:04 +0000";
layers = (
{
layerId = "C917F9CB-DEFA-4BDD-B24E-8B4296F56613";
name = "SemiBold Italic";
paths = (
{
closed = 1;
nodes = (
"286 572 LINE",
"619 572 LINE",
"646 699 LINE",
"161 699 LINE",
"13 0 LINE",
"498 0 LINE",
"524 127 LINE",
"191 127 LINE",
"226 288 LINE",
"471 288 LINE",
"497 410 LINE",
"252 410 LINE"
);
},
{
closed = 1;
nodes = (
"313 850 LINE",
"281 983 LINE",
"141 983 LINE",
"192 850 LINE"
);
},
{
closed = 1;
nodes = (
"220 742 LINE",
"357 742 LINE",
"438 818 LINE",
"486 742 LINE",
"624 742 LINE",
"512 897 LINE",
"398 897 LINE"
);
}
);
width = 559;
}
);
leftKerningGroup = E;
note = Ecircumflexgrave;
rightKerningGroup = E;
unicode = 1EC0;
},
{
glyphname = Ecircumflexhookabove;
lastChange = "2015-10-28 14:45:04 +0000";
layers = (
{
layerId = "C917F9CB-DEFA-4BDD-B24E-8B4296F56613";
name = "SemiBold Italic";
paths = (
{
closed = 1;
nodes = (
"285 572 LINE",
"618 572 LINE",
"645 699 LINE",
"160 699 LINE",
"12 0 LINE",
"497 0 LINE",
"523 127 LINE",
"190 127 LINE",
"225 288 LINE",
"470 288 LINE",
"496 410 LINE",
"251 410 LINE"
);
},
{
closed = 1;
nodes = (
"752 971 OFFCURVE",
"721 1000 OFFCURVE",
"656 1000 CURVE SMOOTH",
"630 1000 OFFCURVE",
"595 995 OFFCURVE",
"576 989 CURVE",
"565 935 LINE",
"575 939 OFFCURVE",
"591 942 OFFCURVE",
"604 942 CURVE SMOOTH",
"631 942 OFFCURVE",
"644 936 OFFCURVE",
"640 918 CURVE SMOOTH",
"635 896 OFFCURVE",
"615 889 OFFCURVE",
"579 889 CURVE",
"569 839 LINE",
"662 839 LINE",
"667 863 LINE",
"708 871 OFFCURVE",
"736 895 OFFCURVE",
"743 928 CURVE SMOOTH"
);
},
{
closed = 1;
nodes = (
"506 897 LINE",
"391 897 LINE",
"212 742 LINE",
"350 742 LINE",
"431 818 LINE",
"480 742 LINE",
"617 742 LINE"
);
}
);
width = 559;
}
);
leftKerningGroup = E;
note = Ecircumflexhookabove;
rightKerningGroup = E;
unicode = 1EC2;
},
{
glyphname = Ecircumflextilde;
lastChange = "2015-10-28 14:45:02 +0000";
layers = (
{
layerId = "C917F9CB-DEFA-4BDD-B24E-8B4296F56613";
name = "SemiBold Italic";
paths = (
{
closed = 1;
nodes = (
"285 572 LINE",
"618 572 LINE",
"645 699 LINE",
"160 699 LINE",
"12 0 LINE",
"497 0 LINE",
"523 127 LINE",
"190 127 LINE",
"225 288 LINE",
"470 288 LINE",
"496 410 LINE",
"251 410 LINE"
);
},
{
closed = 1;
nodes = (
"374 1039 OFFCURVE",
"345 1029 OFFCURVE",
"321 1004 CURVE",
"301 909 LINE",
"331 939 OFFCURVE",
"359 951 OFFCURVE",
"390 951 CURVE SMOOTH",
"438 951 OFFCURVE",
"483 908 OFFCURVE",
"538 908 CURVE SMOOTH",
"573 908 OFFCURVE",
"601 918 OFFCURVE",
"624 942 CURVE",
"645 1038 LINE",
"616 1008 OFFCURVE",
"587 996 OFFCURVE",
"557 996 CURVE SMOOTH",
"508 996 OFFCURVE",
"460 1039 OFFCURVE",
"409 1039 CURVE SMOOTH"
);
},
{
closed = 1;
nodes = (
"510 897 LINE",
"395 897 LINE",
"216 742 LINE",
"354 742 LINE",
"435 818 LINE",
"484 742 LINE",
"621 742 LINE"
);
}
);
width = 559;
}
);
leftKerningGroup = E;
note = Ecircumflextilde;
rightKerningGroup = E;
unicode = 1EC4;
},
{
glyphname = Edieresis;
lastChange = "2015-10-28 14:45:03 +0000";
layers = (
{
layerId = "C917F9CB-DEFA-4BDD-B24E-8B4296F56613";
name = "SemiBold Italic";
paths = (
{
closed = 1;
nodes = (
"285 572 LINE",
"618 572 LINE",
"645 699 LINE",
"160 699 LINE",
"12 0 LINE",
"497 0 LINE",
"523 127 LINE",
"190 127 LINE",
"225 288 LINE",
"470 288 LINE",
"496 410 LINE",
"251 410 LINE"
);
},
{
closed = 1;
nodes = (
"209 783 OFFCURVE",
"236 752 OFFCURVE",
"274 752 CURVE SMOOTH",
"313 752 OFFCURVE",
"351 783 OFFCURVE",
"360 823 CURVE SMOOTH",
"368 863 OFFCURVE",
"343 895 OFFCURVE",
"304 895 CURVE SMOOTH",
"266 895 OFFCURVE",
"226 863 OFFCURVE",
"218 823 CURVE SMOOTH"
);
},
{
closed = 1;
nodes = (
"444 783 OFFCURVE",
"472 752 OFFCURVE",
"511 752 CURVE SMOOTH",
"549 752 OFFCURVE",
"588 783 OFFCURVE",
"597 823 CURVE SMOOTH",
"605 863 OFFCURVE",
"579 895 OFFCURVE",
"541 895 CURVE SMOOTH",
"502 895 OFFCURVE",
"461 863 OFFCURVE",
"453 823 CURVE SMOOTH"
);
}
);
width = 559;
}
);
leftKerningGroup = E;
note = Edieresis;
rightKerningGroup = E;
unicode = 00CB;
},
{
glyphname = Edotaccent;
lastChange = "2015-10-28 14:45:03 +0000";
layers = (
{
layerId = "C917F9CB-DEFA-4BDD-B24E-8B4296F56613";
name = "SemiBold Italic";
paths = (
{
closed = 1;
nodes = (
"285 572 LINE",
"618 572 LINE",
"645 699 LINE",
"160 699 LINE",
"12 0 LINE",
"497 0 LINE",
"523 127 LINE",
"190 127 LINE",
"225 288 LINE",
"470 288 LINE",
"496 410 LINE",
"251 410 LINE"
);
},
{
closed = 1;
nodes = (
"339 783 OFFCURVE",
"367 752 OFFCURVE",
"406 752 CURVE SMOOTH",
"445 752 OFFCURVE",
"483 783 OFFCURVE",
"492 823 CURVE SMOOTH",
"500 863 OFFCURVE",
"475 895 OFFCURVE",
"436 895 CURVE SMOOTH",
"397 895 OFFCURVE",
"356 863 OFFCURVE",
"348 823 CURVE SMOOTH"
);
}
);
width = 559;
}
);
leftKerningGroup = E;
note = Edotaccent;
rightKerningGroup = E;
unicode = 0116;
},
{
glyphname = Edotbelow;
lastChange = "2015-10-28 14:45:03 +0000";
layers = (
{
layerId = "C917F9CB-DEFA-4BDD-B24E-8B4296F56613";
name = "SemiBold Italic";
paths = (
{
closed = 1;
nodes = (
"285 572 LINE",
"618 572 LINE",
"645 699 LINE",
"160 699 LINE",
"12 0 LINE",
"497 0 LINE",
"523 127 LINE",
"190 127 LINE",
"225 288 LINE",
"470 288 LINE",
"496 410 LINE",
"251 410 LINE"
);
},
{
closed = 1;
nodes = (
"148 -158 OFFCURVE",
"175 -190 OFFCURVE",
"214 -190 CURVE SMOOTH",
"253 -190 OFFCURVE",
"291 -158 OFFCURVE",
"299 -118 CURVE SMOOTH",
"308 -78 OFFCURVE",
"283 -46 OFFCURVE",
"245 -46 CURVE SMOOTH",
"206 -46 OFFCURVE",
"165 -78 OFFCURVE",
"156 -118 CURVE SMOOTH"
);
}
);
width = 559;
}
);
leftKerningGroup = E;
note = Edotbelow;
rightKerningGroup = E;
unicode = 1EB8;
},
{
glyphname = Egrave;
lastChange = "2015-10-28 14:45:03 +0000";
layers = (
{
layerId = "C917F9CB-DEFA-4BDD-B24E-8B4296F56613";
name = "SemiBold Italic";
paths = (
{
closed = 1;
nodes = (
"285 572 LINE",
"618 572 LINE",
"645 699 LINE",
"160 699 LINE",
"12 0 LINE",
"497 0 LINE",
"523 127 LINE",
"190 127 LINE",
"225 288 LINE",
"470 288 LINE",
"496 410 LINE",
"251 410 LINE"
);
},
{
closed = 1;
nodes = (
"468 742 LINE",
"436 918 LINE",
"277 918 LINE",
"328 742 LINE"
);
}
);
width = 559;
}
);
leftKerningGroup = E;
note = Egrave;
rightKerningGroup = E;
unicode = 00C8;
},
{
glyphname = Ehookabove;
lastChange = "2015-10-28 14:45:03 +0000";
layers = (
{
layerId = "C917F9CB-DEFA-4BDD-B24E-8B4296F56613";
name = "SemiBold Italic";
paths = (
{
closed = 1;
nodes = (
"285 572 LINE",
"618 572 LINE",
"645 699 LINE",
"160 699 LINE",
"12 0 LINE",
"497 0 LINE",
"523 127 LINE",
"190 127 LINE",
"225 288 LINE",
"470 288 LINE",
"496 410 LINE",
"251 410 LINE"
);
},
{
closed = 1;
nodes = (
"582 930 OFFCURVE",
"542 972 OFFCURVE",
"442 972 CURVE SMOOTH",
"404 972 OFFCURVE",
"357 965 OFFCURVE",
"330 957 CURVE",
"314 882 LINE",
"328 888 OFFCURVE",
"362 893 OFFCURVE",
"378 893 CURVE SMOOTH",
"421 893 OFFCURVE",
"436 882 OFFCURVE",
"430 858 CURVE",
"423 824 OFFCURVE",
"388 814 OFFCURVE",
"336 814 CURVE",
"321 742 LINE",
"453 742 LINE",
"459 771 LINE",
"519 783 OFFCURVE",
"559 821 OFFCURVE",
"569 869 CURVE SMOOTH"
);
}
);
width = 559;
}
);
leftKerningGroup = E;
note = Ehookabove;
rightKerningGroup = E;
unicode = 1EBA;
},
{
glyphname = Emacron;
lastChange = "2015-10-28 14:45:03 +0000";
layers = (
{
layerId = "C917F9CB-DEFA-4BDD-B24E-8B4296F56613";
name = "SemiBold Italic";
paths = (
{
closed = 1;
nodes = (
"285 572 LINE",
"618 572 LINE",
"645 699 LINE",
"160 699 LINE",
"12 0 LINE",
"497 0 LINE",
"523 127 LINE",
"190 127 LINE",
"225 288 LINE",
"470 288 LINE",
"496 410 LINE",
"251 410 LINE"
);
},
{
closed = 1;
nodes = (
"572 752 LINE",
"592 850 LINE",
"259 850 LINE",
"239 752 LINE"
);
}
);
width = 559;
}
);
leftKerningGroup = E;
note = Emacron;
rightKerningGroup = E;
unicode = 0112;
},
{
glyphname = Eogonek;
lastChange = "2015-10-28 14:45:03 +0000";
layers = (
{
layerId = "C917F9CB-DEFA-4BDD-B24E-8B4296F56613";
name = "SemiBold Italic";
paths = (
{
closed = 1;
nodes = (
"398 -215 OFFCURVE",
"435 -209 OFFCURVE",
"460 -201 CURVE",
"478 -117 LINE",
"462 -124 OFFCURVE",
"444 -128 OFFCURVE",
"427 -128 CURVE SMOOTH",
"405 -128 OFFCURVE",
"393 -115 OFFCURVE",
"398 -92 CURVE SMOOTH",
"405 -58 OFFCURVE",
"437 -30 OFFCURVE",
"497 0 CURVE",
"523 127 LINE",
"190 127 LINE",
"225 288 LINE",
"470 288 LINE",
"496 410 LINE",
"251 410 LINE",
"285 572 LINE",
"618 572 LINE",
"645 699 LINE",
"160 699 LINE",
"12 0 LINE",
"359 0 LINE",
"312 -26 OFFCURVE",
"273 -67 OFFCURVE",
"262 -120 CURVE SMOOTH",
"249 -182 OFFCURVE",
"295 -215 OFFCURVE",
"363 -215 CURVE SMOOTH"
);
}
);
width = 559;
}
);
leftKerningGroup = E;
note = Eogonek;
rightKerningGroup = E;
unicode = 0118;
},
{
glyphname = Etilde;
lastChange = "2015-10-28 14:45:03 +0000";
layers = (
{
layerId = "C917F9CB-DEFA-4BDD-B24E-8B4296F56613";
name = "SemiBold Italic";
paths = (
{
closed = 1;
nodes = (
"285 572 LINE",
"618 572 LINE",
"645 699 LINE",
"160 699 LINE",
"12 0 LINE",
"497 0 LINE",
"523 127 LINE",
"190 127 LINE",
"225 288 LINE",
"470 288 LINE",
"496 410 LINE",
"251 410 LINE"
);
},
{
closed = 1;
nodes = (
"294 900 OFFCURVE",
"255 888 OFFCURVE",
"224 857 CURVE",
"200 742 LINE",
"239 780 OFFCURVE",
"276 793 OFFCURVE",
"314 793 CURVE SMOOTH",
"378 793 OFFCURVE",
"423 743 OFFCURVE",
"496 743 CURVE SMOOTH",
"539 743 OFFCURVE",
"576 754 OFFCURVE",
"606 785 CURVE",
"630 900 LINE",
"594 863 OFFCURVE",
"558 850 OFFCURVE",
"519 850 CURVE SMOOTH",
"454 850 OFFCURVE",
"404 900 OFFCURVE",
"336 900 CURVE SMOOTH"
);
}
);
width = 559;
}
);
leftKerningGroup = E;
note = Etilde;
rightKerningGroup = E;
unicode = 1EBC;
},
{
glyphname = F;
lastChange = "2015-10-28 14:45:04 +0000";
layers = (
{
layerId = "C917F9CB-DEFA-4BDD-B24E-8B4296F56613";
name = "SemiBold Italic";
paths = (
{
closed = 1;
nodes = (
"12 0 LINE",
"164 0 LINE",
"225 291 LINE",
"470 291 LINE",
"495 408 LINE",
"250 408 LINE",
"285 571 LINE",
"618 571 LINE",
"645 699 LINE",
"160 699 LINE"
);
}
);
width = 549;
}
);
note = F;
unicode = 0046;
},
{
glyphname = G;
lastChange = "2015-10-28 14:45:02 +0000";
layers = (
{
layerId = "C917F9CB-DEFA-4BDD-B24E-8B4296F56613";
name = "SemiBold Italic";
paths = (
{
closed = 1;
nodes = (
"713 390 LINE",
"453 390 LINE",
"430 278 LINE",
"543 278 LINE",
"514 143 LINE",
"482 129 OFFCURVE",
"444 121 OFFCURVE",
"401 121 CURVE SMOOTH",
"236 121 OFFCURVE",
"191 209 OFFCURVE",
"221 349 CURVE SMOOTH",
"250 488 OFFCURVE",
"361 573 OFFCURVE",
"505 574 CURVE SMOOTH",
"598 575 OFFCURVE",
"669 558 OFFCURVE",
"720 508 CURVE",
"750 650 LINE",
"693 695 OFFCURVE",
"621 714 OFFCURVE",
"521 714 CURVE SMOOTH",
"293 714 OFFCURVE",
"113 573 OFFCURVE",
"66 349 CURVE SMOOTH",
"18 125 OFFCURVE",
"149 -15 OFFCURVE",
"366 -15 CURVE SMOOTH",
"474 -15 OFFCURVE",
"565 7 OFFCURVE",
"642 53 CURVE"
);
}
);
width = 704;
}
);
leftKerningGroup = C;
note = G;
unicode = 0047;
},
{
glyphname = Gbreve;
lastChange = "2015-10-28 14:45:04 +0000";
layers = (
{
layerId = "C917F9CB-DEFA-4BDD-B24E-8B4296F56613";
name = "SemiBold Italic";
paths = (
{
closed = 1;
nodes = (
"713 390 LINE",
"453 390 LINE",
"430 278 LINE",
"543 278 LINE",
"514 143 LINE",
"482 129 OFFCURVE",
"444 121 OFFCURVE",
"401 121 CURVE SMOOTH",
"236 121 OFFCURVE",
"191 209 OFFCURVE",
"221 349 CURVE SMOOTH",
"250 488 OFFCURVE",
"361 573 OFFCURVE",
"505 574 CURVE SMOOTH",
"598 575 OFFCURVE",
"669 558 OFFCURVE",
"720 508 CURVE",
"750 650 LINE",
"693 695 OFFCURVE",
"621 714 OFFCURVE",
"521 714 CURVE SMOOTH",
"293 714 OFFCURVE",
"113 573 OFFCURVE",
"66 349 CURVE SMOOTH",
"18 125 OFFCURVE",
"149 -15 OFFCURVE",
"366 -15 CURVE SMOOTH",
"474 -15 OFFCURVE",
"565 7 OFFCURVE",
"642 53 CURVE"
);
},
{
closed = 1;
nodes = (
"495 840 OFFCURVE",
"479 862 OFFCURVE",
"488 904 CURVE",
"376 904 LINE",
"355 807 OFFCURVE",
"403 742 OFFCURVE",
"512 742 CURVE SMOOTH",
"621 742 OFFCURVE",
"698 807 OFFCURVE",
"719 904 CURVE",
"606 904 LINE",
"597 862 OFFCURVE",
"570 840 OFFCURVE",
"533 840 CURVE SMOOTH"
);
}
);
width = 704;
}
);
leftKerningGroup = C;
note = Gbreve;
unicode = 011E;
},
{
glyphname = Gcaron;
lastChange = "2015-10-28 14:45:03 +0000";
layers = (
{
layerId = "C917F9CB-DEFA-4BDD-B24E-8B4296F56613";
name = "SemiBold Italic";
paths = (
{
closed = 1;
nodes = (
"713 390 LINE",
"453 390 LINE",
"430 278 LINE",
"543 278 LINE",
"514 143 LINE",
"482 129 OFFCURVE",
"444 121 OFFCURVE",
"401 121 CURVE SMOOTH",
"236 121 OFFCURVE",
"191 209 OFFCURVE",
"221 349 CURVE SMOOTH",
"250 488 OFFCURVE",
"361 573 OFFCURVE",
"505 574 CURVE SMOOTH",
"598 575 OFFCURVE",
"669 558 OFFCURVE",
"720 508 CURVE",
"750 650 LINE",
"693 695 OFFCURVE",
"621 714 OFFCURVE",
"521 714 CURVE SMOOTH",
"293 714 OFFCURVE",
"113 573 OFFCURVE",
"66 349 CURVE SMOOTH",
"18 125 OFFCURVE",
"149 -15 OFFCURVE",
"366 -15 CURVE SMOOTH",
"474 -15 OFFCURVE",
"565 7 OFFCURVE",
"642 53 CURVE"
);
},
{
closed = 1;
nodes = (
"413 742 LINE",
"548 742 LINE",
"736 918 LINE",
"586 918 LINE",
"499 826 LINE",
"450 918 LINE",
"300 918 LINE"
);
}
);
width = 704;
}
);
leftKerningGroup = C;
note = Gcaron;
unicode = 01E6;
},
{
glyphname = Gcircumflex;
lastChange = "2015-10-28 14:45:03 +0000";
layers = (
{
layerId = "C917F9CB-DEFA-4BDD-B24E-8B4296F56613";
name = "SemiBold Italic";
paths = (
{
closed = 1;
nodes = (
"713 390 LINE",
"453 390 LINE",
"430 278 LINE",
"543 278 LINE",
"514 143 LINE",
"482 129 OFFCURVE",
"444 121 OFFCURVE",
"401 121 CURVE SMOOTH",
"236 121 OFFCURVE",
"191 209 OFFCURVE",
"221 349 CURVE SMOOTH",
"250 488 OFFCURVE",
"361 573 OFFCURVE",
"505 574 CURVE SMOOTH",
"598 575 OFFCURVE",
"669 558 OFFCURVE",
"720 508 CURVE",
"750 650 LINE",
"693 695 OFFCURVE",
"621 714 OFFCURVE",
"521 714 CURVE SMOOTH",
"293 714 OFFCURVE",
"113 573 OFFCURVE",
"66 349 CURVE SMOOTH",
"18 125 OFFCURVE",
"149 -15 OFFCURVE",
"366 -15 CURVE SMOOTH",
"474 -15 OFFCURVE",
"565 7 OFFCURVE",
"642 53 CURVE"
);
},
{
closed = 1;
nodes = (
"604 918 LINE",
"469 918 LINE",
"282 742 LINE",
"432 742 LINE",
"520 834 LINE",
"568 742 LINE",
"718 742 LINE"
);
}
);
width = 704;
}
);
leftKerningGroup = C;
note = Gcircumflex;
unicode = 011C;
},
{
glyphname = Gcommaaccent;
lastChange = "2015-10-28 14:45:02 +0000";
layers = (
{
layerId = "C917F9CB-DEFA-4BDD-B24E-8B4296F56613";
name = "SemiBold Italic";
paths = (
{
closed = 1;
nodes = (
"713 390 LINE",
"453 390 LINE",
"430 278 LINE",
"543 278 LINE",
"514 143 LINE",
"482 129 OFFCURVE",
"444 121 OFFCURVE",
"401 121 CURVE SMOOTH",
"236 121 OFFCURVE",
"191 209 OFFCURVE",
"221 349 CURVE SMOOTH",
"250 488 OFFCURVE",
"361 573 OFFCURVE",
"505 574 CURVE SMOOTH",
"598 575 OFFCURVE",
"669 558 OFFCURVE",
"720 508 CURVE",
"750 650 LINE",
"693 695 OFFCURVE",
"621 714 OFFCURVE",
"521 714 CURVE SMOOTH",
"293 714 OFFCURVE",
"113 573 OFFCURVE",
"66 349 CURVE SMOOTH",
"18 125 OFFCURVE",
"149 -15 OFFCURVE",
"366 -15 CURVE SMOOTH",
"474 -15 OFFCURVE",
"565 7 OFFCURVE",
"642 53 CURVE"
);
},
{
closed = 1;
nodes = (
"309 -260 LINE",
"454 -53 LINE",
"298 -53 LINE",
"172 -260 LINE"
);
}
);
width = 704;
}
);
leftKerningGroup = C;
note = Gcommaaccent;
unicode = 0122;
},
{
glyphname = Gdotaccent;
lastChange = "2015-10-28 14:45:03 +0000";
layers = (
{
layerId = "C917F9CB-DEFA-4BDD-B24E-8B4296F56613";
name = "SemiBold Italic";
paths = (
{
closed = 1;
nodes = (
"713 390 LINE",
"453 390 LINE",
"430 278 LINE",
"543 278 LINE",
"514 143 LINE",
"482 129 OFFCURVE",
"444 121 OFFCURVE",
"401 121 CURVE SMOOTH",
"236 121 OFFCURVE",
"191 209 OFFCURVE",
"221 349 CURVE SMOOTH",
"250 488 OFFCURVE",
"361 573 OFFCURVE",
"505 574 CURVE SMOOTH",
"598 575 OFFCURVE",
"669 558 OFFCURVE",
"720 508 CURVE",
"750 650 LINE",
"693 695 OFFCURVE",
"621 714 OFFCURVE",
"521 714 CURVE SMOOTH",
"293 714 OFFCURVE",
"113 573 OFFCURVE",
"66 349 CURVE SMOOTH",
"18 125 OFFCURVE",
"149 -15 OFFCURVE",
"366 -15 CURVE SMOOTH",
"474 -15 OFFCURVE",
"565 7 OFFCURVE",
"642 53 CURVE"
);
},
{
closed = 1;
nodes = (
"441 783 OFFCURVE",
"469 752 OFFCURVE",
"508 752 CURVE SMOOTH",
"547 752 OFFCURVE",
"585 783 OFFCURVE",
"594 823 CURVE SMOOTH",
"602 863 OFFCURVE",
"577 895 OFFCURVE",
"538 895 CURVE SMOOTH",
"499 895 OFFCURVE",
"458 863 OFFCURVE",
"450 823 CURVE SMOOTH"
);
}
);
width = 704;
}
);
leftKerningGroup = C;
note = Gdotaccent;
unicode = 0120;
},
{
glyphname = Gmacron;
lastChange = "2015-10-28 14:45:02 +0000";
layers = (
{
layerId = "C917F9CB-DEFA-4BDD-B24E-8B4296F56613";
name = "SemiBold Italic";
paths = (
{
closed = 1;
nodes = (
"713 390 LINE",
"453 390 LINE",
"430 278 LINE",
"543 278 LINE",
"514 143 LINE",
"482 129 OFFCURVE",
"444 121 OFFCURVE",
"401 121 CURVE SMOOTH",
"236 121 OFFCURVE",
"191 209 OFFCURVE",
"221 349 CURVE SMOOTH",
"250 488 OFFCURVE",
"361 573 OFFCURVE",
"505 574 CURVE SMOOTH",
"598 575 OFFCURVE",
"669 558 OFFCURVE",
"720 508 CURVE",
"750 650 LINE",
"693 695 OFFCURVE",
"621 714 OFFCURVE",
"521 714 CURVE SMOOTH",
"293 714 OFFCURVE",
"113 573 OFFCURVE",
"66 349 CURVE SMOOTH",
"18 125 OFFCURVE",
"149 -15 OFFCURVE",
"366 -15 CURVE SMOOTH",
"474 -15 OFFCURVE",
"565 7 OFFCURVE",
"642 53 CURVE"
);
},
{
closed = 1;
nodes = (
"678 752 LINE",
"698 850 LINE",
"365 850 LINE",
"345 752 LINE"
);
}
);
width = 704;
}
);
leftKerningGroup = C;
note = Gmacron;
unicode = 1E20;
},
{
glyphname = H;
lastChange = "2015-10-28 14:45:03 +0000";
layers = (
{
layerId = "C917F9CB-DEFA-4BDD-B24E-8B4296F56613";
name = "SemiBold Italic";
paths = (
{
closed = 1;
nodes = (
"469 0 LINE",
"621 0 LINE",
"769 699 LINE",
"617 699 LINE",
"558 419 LINE",
"253 419 LINE",
"312 699 LINE",
"160 699 LINE",
"12 0 LINE",
"164 0 LINE",
"226 293 LINE",
"531 293 LINE"
);
}
);
width = 713;
}
);
note = H;
unicode = 0048;
},
{
glyphname = Hbar;
lastChange = "2015-10-28 14:45:04 +0000";
layers = (
{
layerId = "C917F9CB-DEFA-4BDD-B24E-8B4296F56613";
name = "SemiBold Italic";
paths = (
{
closed = 1;
nodes = (
"93 499 LINE",
"136 499 LINE",
"31 0 LINE",
"187 0 LINE",
"248 287 LINE",
"545 287 LINE",
"484 0 LINE",
"640 0 LINE",
"745 499 LINE",
"795 499 LINE",
"820 619 LINE",
"771 619 LINE",
"788 699 LINE",
"632 699 LINE",
"615 619 LINE",
"318 619 LINE",
"335 699 LINE",
"179 699 LINE",
"162 619 LINE",
"118 619 LINE"
);
},
{
closed = 1;
nodes = (
"277 425 LINE",
"292 499 LINE",
"589 499 LINE",
"574 425 LINE"
);
}
);
width = 756;
}
);
note = Hbar;
unicode = 0126;
},
{
glyphname = Hbrevebelow;
lastChange = "2015-10-28 14:45:04 +0000";
layers = (
{
layerId = "C917F9CB-DEFA-4BDD-B24E-8B4296F56613";
name = "SemiBold Italic";
paths = (
{
closed = 1;
nodes = (
"469 0 LINE",
"621 0 LINE",
"769 699 LINE",
"617 699 LINE",
"558 419 LINE",
"253 419 LINE",
"312 699 LINE",
"160 699 LINE",
"12 0 LINE",
"164 0 LINE",
"226 293 LINE",
"531 293 LINE"
);
},
{
closed = 1;
nodes = (
"324 -121 OFFCURVE",
"350 -99 OFFCURVE",
"359 -57 CURVE",
"475 -57 LINE",
"455 -154 OFFCURVE",
"378 -219 OFFCURVE",
"270 -219 CURVE SMOOTH",
"161 -219 OFFCURVE",
"112 -154 OFFCURVE",
"132 -57 CURVE",
"242 -57 LINE",
"233 -99 OFFCURVE",
"250 -121 OFFCURVE",
"288 -121 CURVE SMOOTH"
);
}
);
width = 713;
}
);
note = Hbrevebelow;
unicode = 1E2A;
},
{
glyphname = Hcircumflex;
lastChange = "2015-10-28 14:45:03 +0000";
layers = (
{
layerId = "C917F9CB-DEFA-4BDD-B24E-8B4296F56613";
name = "SemiBold Italic";
paths = (
{
closed = 1;
nodes = (
"469 0 LINE",
"621 0 LINE",
"769 699 LINE",
"617 699 LINE",
"558 419 LINE",
"253 419 LINE",
"312 699 LINE",
"160 699 LINE",
"12 0 LINE",
"164 0 LINE",
"226 293 LINE",
"531 293 LINE"
);
},
{
closed = 1;
nodes = (
"558 918 LINE",
"423 918 LINE",
"236 742 LINE",
"386 742 LINE",
"474 834 LINE",
"522 742 LINE",
"672 742 LINE"
);
}
);
width = 713;
}
);
note = Hcircumflex;
unicode = 0124;
},
{
glyphname = Hdotbelow;
lastChange = "2015-10-28 14:45:04 +0000";
layers = (
{
layerId = "C917F9CB-DEFA-4BDD-B24E-8B4296F56613";
name = "SemiBold Italic";
paths = (
{
closed = 1;
nodes = (
"469 0 LINE",
"621 0 LINE",
"769 699 LINE",
"617 699 LINE",
"558 419 LINE",
"253 419 LINE",
"312 699 LINE",
"160 699 LINE",
"12 0 LINE",
"164 0 LINE",
"226 293 LINE",
"531 293 LINE"
);
},
{
closed = 1;
nodes = (
"211 -158 OFFCURVE",
"238 -190 OFFCURVE",
"277 -190 CURVE SMOOTH",
"316 -190 OFFCURVE",
"354 -158 OFFCURVE",
"362 -118 CURVE SMOOTH",
"371 -78 OFFCURVE",
"346 -46 OFFCURVE",
"308 -46 CURVE SMOOTH",
"269 -46 OFFCURVE",
"228 -78 OFFCURVE",
"219 -118 CURVE SMOOTH"
);
}
);
width = 713;
}
);
note = Hdotbelow;
unicode = 1E24;
},
{
glyphname = I;
lastChange = "2015-10-28 14:45:03 +0000";
layers = (
{
layerId = "C917F9CB-DEFA-4BDD-B24E-8B4296F56613";
name = "SemiBold Italic";
paths = (
{
closed = 1;
nodes = (
"312 699 LINE",
"160 699 LINE",
"12 0 LINE",
"164 0 LINE"
);
}
);
width = 257;
}
);
note = I;
unicode = 0049;
},
{
glyphname = IJ;
lastChange = "2015-10-28 14:45:03 +0000";
layers = (
{
layerId = "C917F9CB-DEFA-4BDD-B24E-8B4296F56613";
name = "SemiBold Italic";
paths = (
{
closed = 1;
nodes = (
"313 699 LINE",
"161 699 LINE",
"13 0 LINE",
"165 0 LINE"
);
},
{
closed = 1;
nodes = (
"705 699 LINE",
"553 699 LINE",
"449 209 LINE SMOOTH",
"436 148 OFFCURVE",
"401 122 OFFCURVE",
"341 122 CURVE SMOOTH",
"312 122 OFFCURVE",
"279 127 OFFCURVE",
"261 137 CURVE",
"233 6 LINE",
"254 -6 OFFCURVE",
"305 -15 OFFCURVE",
"346 -15 CURVE SMOOTH",
"495 -15 OFFCURVE",
"571 68 OFFCURVE",
"598 195 CURVE SMOOTH"
);
}
);
width = 646;
}
);
note = IJ;
rightKerningGroup = J;
unicode = 0132;
},
{
glyphname = Iacute;
lastChange = "2015-10-28 14:45:03 +0000";
layers = (
{
layerId = "C917F9CB-DEFA-4BDD-B24E-8B4296F56613";
name = "SemiBold Italic";
paths = (
{
closed = 1;
nodes = (
"313 699 LINE",
"161 699 LINE",
"13 0 LINE",
"165 0 LINE"
);
},
{
closed = 1;
nodes = (
"296 742 LINE",
"422 918 LINE",
"263 918 LINE",
"157 742 LINE"
);
}
);
width = 260;
}
);
note = Iacute;
unicode = 00CD;
},
{
glyphname = Ibreve;
lastChange = "2015-10-28 14:45:02 +0000";
layers = (
{
layerId = "C917F9CB-DEFA-4BDD-B24E-8B4296F56613";
name = "SemiBold Italic";
paths = (
{
closed = 1;
nodes = (
"313 699 LINE",
"161 699 LINE",
"13 0 LINE",
"165 0 LINE"
);
},
{
closed = 1;
nodes = (
"208 840 OFFCURVE",
"192 862 OFFCURVE",
"201 904 CURVE",
"89 904 LINE",
"68 807 OFFCURVE",
"116 742 OFFCURVE",
"225 742 CURVE SMOOTH",
"334 742 OFFCURVE",
"411 807 OFFCURVE",
"432 904 CURVE",
"319 904 LINE",
"310 862 OFFCURVE",
"283 840 OFFCURVE",
"246 840 CURVE SMOOTH"
);
}
);
width = 260;
}
);
note = Ibreve;
unicode = 012C;
},
{
glyphname = Icaron;
lastChange = "2015-10-28 14:45:04 +0000";
layers = (
{
layerId = "C917F9CB-DEFA-4BDD-B24E-8B4296F56613";
name = "SemiBold Italic";
paths = (
{
closed = 1;
nodes = (
"312 699 LINE",
"160 699 LINE",
"12 0 LINE",
"164 0 LINE"
);
},
{
closed = 1;
nodes = (
"158 742 LINE",
"293 742 LINE",
"481 918 LINE",
"331 918 LINE",
"244 826 LINE",
"195 918 LINE",
"45 918 LINE"
);
}
);
width = 257;
}
);
note = Icaron;
unicode = 01CF;
},
{
glyphname = Icircumflex;
lastChange = "2015-10-28 14:45:02 +0000";
layers = (
{
layerId = "C917F9CB-DEFA-4BDD-B24E-8B4296F56613";
name = "SemiBold Italic";
paths = (
{
closed = 1;
nodes = (
"313 699 LINE",
"161 699 LINE",
"13 0 LINE",
"165 0 LINE"
);
},
{
closed = 1;
nodes = (
"331 918 LINE",
"196 918 LINE",
"9 742 LINE",
"159 742 LINE",
"247 834 LINE",
"295 742 LINE",
"445 742 LINE"
);
}
);
width = 260;
}
);
note = Icircumflex;
unicode = 00CE;
},
{
glyphname = Idieresis;
lastChange = "2015-10-28 14:45:02 +0000";
layers = (
{
layerId = "C917F9CB-DEFA-4BDD-B24E-8B4296F56613";
name = "SemiBold Italic";
paths = (
{
closed = 1;
nodes = (
"313 699 LINE",
"161 699 LINE",
"13 0 LINE",
"165 0 LINE"
);
},
{
closed = 1;
nodes = (
"45 783 OFFCURVE",
"72 752 OFFCURVE",
"110 752 CURVE SMOOTH",
"149 752 OFFCURVE",
"187 783 OFFCURVE",
"196 823 CURVE SMOOTH",
"204 863 OFFCURVE",
"179 895 OFFCURVE",
"140 895 CURVE SMOOTH",
"102 895 OFFCURVE",
"62 863 OFFCURVE",
"54 823 CURVE SMOOTH"
);
},
{
closed = 1;
nodes = (
"280 783 OFFCURVE",
"308 752 OFFCURVE",
"347 752 CURVE SMOOTH",
"385 752 OFFCURVE",
"424 783 OFFCURVE",
"433 823 CURVE SMOOTH",
"441 863 OFFCURVE",
"415 895 OFFCURVE",
"377 895 CURVE SMOOTH",
"338 895 OFFCURVE",
"297 863 OFFCURVE",
"289 823 CURVE SMOOTH"
);
}
);
width = 260;
}
);
note = Idieresis;
unicode = 00CF;
},
{
glyphname = Idotaccent;
lastChange = "2015-10-28 14:45:02 +0000";
layers = (
{
layerId = "C917F9CB-DEFA-4BDD-B24E-8B4296F56613";
name = "SemiBold Italic";
paths = (
{
closed = 1;
nodes = (
"313 699 LINE",
"161 699 LINE",
"13 0 LINE",
"165 0 LINE"
);
},
{
closed = 1;
nodes = (
"162 783 OFFCURVE",
"190 752 OFFCURVE",
"229 752 CURVE SMOOTH",
"268 752 OFFCURVE",
"306 783 OFFCURVE",
"315 823 CURVE SMOOTH",
"323 863 OFFCURVE",
"298 895 OFFCURVE",
"259 895 CURVE SMOOTH",
"220 895 OFFCURVE",
"179 863 OFFCURVE",
"171 823 CURVE SMOOTH"
);
}
);
width = 260;
}
);
note = Idotaccent;
unicode = 0130;
},
{
glyphname = Idotbelow;
lastChange = "2015-10-28 14:45:04 +0000";
layers = (
{
layerId = "C917F9CB-DEFA-4BDD-B24E-8B4296F56613";
name = "SemiBold Italic";
paths = (
{
closed = 1;
nodes = (
"313 699 LINE",
"161 699 LINE",
"13 0 LINE",
"165 0 LINE"
);
},
{
closed = 1;
nodes = (
"-16 -158 OFFCURVE",
"11 -190 OFFCURVE",
"50 -190 CURVE SMOOTH",
"89 -190 OFFCURVE",
"127 -158 OFFCURVE",
"135 -118 CURVE SMOOTH",
"144 -78 OFFCURVE",
"119 -46 OFFCURVE",
"81 -46 CURVE SMOOTH",
"42 -46 OFFCURVE",
"1 -78 OFFCURVE",
"-8 -118 CURVE SMOOTH"
);
}
);
width = 260;
}
);
note = Idotbelow;
unicode = 1ECA;
},
{
glyphname = Igrave;
lastChange = "2015-10-28 14:45:02 +0000";
layers = (
{
layerId = "C917F9CB-DEFA-4BDD-B24E-8B4296F56613";
name = "SemiBold Italic";
paths = (
{
closed = 1;
nodes = (
"313 699 LINE",
"161 699 LINE",
"13 0 LINE",
"165 0 LINE"
);
},
{
closed = 1;
nodes = (
"298 742 LINE",
"266 918 LINE",
"107 918 LINE",
"158 742 LINE"
);
}
);
width = 260;
}
);
note = Igrave;
unicode = 00CC;
},
{
glyphname = Ihookabove;
lastChange = "2015-10-28 14:45:03 +0000";
layers = (
{
layerId = "C917F9CB-DEFA-4BDD-B24E-8B4296F56613";
name = "SemiBold Italic";
paths = (
{
closed = 1;
nodes = (
"313 699 LINE",
"161 699 LINE",
"13 0 LINE",
"165 0 LINE"
);
},
{
closed = 1;
nodes = (
"422 930 OFFCURVE",
"382 972 OFFCURVE",
"282 972 CURVE SMOOTH",
"244 972 OFFCURVE",
"197 965 OFFCURVE",
"170 957 CURVE",
"154 882 LINE",
"168 888 OFFCURVE",
"202 893 OFFCURVE",
"218 893 CURVE SMOOTH",
"261 893 OFFCURVE",
"276 882 OFFCURVE",
"270 858 CURVE",
"263 824 OFFCURVE",
"228 814 OFFCURVE",
"176 814 CURVE",
"161 742 LINE",
"293 742 LINE",
"299 771 LINE",
"359 783 OFFCURVE",
"399 821 OFFCURVE",
"409 869 CURVE SMOOTH"
);
}
);
width = 260;
}
);
note = Ihookabove;
unicode = 1EC8;
},
{
glyphname = Imacron;
lastChange = "2015-10-28 14:45:04 +0000";
layers = (
{
layerId = "C917F9CB-DEFA-4BDD-B24E-8B4296F56613";
name = "SemiBold Italic";
paths = (
{
closed = 1;
nodes = (
"313 699 LINE",
"161 699 LINE",
"13 0 LINE",
"165 0 LINE"
);
},
{
closed = 1;
nodes = (
"422 752 LINE",
"442 850 LINE",
"96 850 LINE",
"76 752 LINE"
);
}
);
width = 260;
}
);
note = Imacron;
unicode = 012A;
},
{
glyphname = Iogonek;
lastChange = "2015-10-28 14:45:04 +0000";
layers = (
{
layerId = "C917F9CB-DEFA-4BDD-B24E-8B4296F56613";
name = "SemiBold Italic";
paths = (
{
closed = 1;
nodes = (
"313 699 LINE",
"161 699 LINE",
"13 0 LINE",
"165 0 LINE"
);
},
{
closed = 1;
nodes = (
"62 -215 OFFCURVE",
"99 -209 OFFCURVE",
"124 -201 CURVE",
"142 -117 LINE",
"126 -124 OFFCURVE",
"108 -128 OFFCURVE",
"91 -128 CURVE SMOOTH",
"69 -128 OFFCURVE",
"57 -115 OFFCURVE",
"62 -92 CURVE SMOOTH",
"69 -58 OFFCURVE",
"101 -30 OFFCURVE",
"161 0 CURVE",
"23 0 LINE",
"-24 -26 OFFCURVE",
"-63 -67 OFFCURVE",
"-74 -120 CURVE SMOOTH",
"-87 -182 OFFCURVE",
"-41 -215 OFFCURVE",
"27 -215 CURVE SMOOTH"
);
}
);
width = 260;
}
);
note = Iogonek;
unicode = 012E;
},
{
glyphname = Itilde;
lastChange = "2015-10-28 14:45:03 +0000";
layers = (
{
layerId = "C917F9CB-DEFA-4BDD-B24E-8B4296F56613";
name = "SemiBold Italic";
paths = (
{
closed = 1;
nodes = (
"313 699 LINE",
"161 699 LINE",
"13 0 LINE",
"165 0 LINE"
);
},
{
closed = 1;
nodes = (
"123 900 OFFCURVE",
"84 888 OFFCURVE",
"53 857 CURVE",
"29 742 LINE",
"68 780 OFFCURVE",
"105 793 OFFCURVE",
"143 793 CURVE SMOOTH",
"207 793 OFFCURVE",
"252 743 OFFCURVE",
"325 743 CURVE SMOOTH",
"368 743 OFFCURVE",
"405 754 OFFCURVE",
"435 785 CURVE",
"459 900 LINE",
"423 863 OFFCURVE",
"387 850 OFFCURVE",
"348 850 CURVE SMOOTH",
"283 850 OFFCURVE",
"233 900 OFFCURVE",
"165 900 CURVE SMOOTH"
);
}
);
width = 260;
}
);
note = Itilde;
unicode = 0128;
},
{
glyphname = J;
lastChange = "2015-10-28 14:45:04 +0000";
layers = (
{
layerId = "C917F9CB-DEFA-4BDD-B24E-8B4296F56613";
name = "SemiBold Italic";
paths = (
{
closed = 1;
nodes = (
"445 699 LINE",
"293 699 LINE",
"189 209 LINE SMOOTH",
"176 148 OFFCURVE",
"141 122 OFFCURVE",
"81 122 CURVE SMOOTH",
"52 122 OFFCURVE",
"19 127 OFFCURVE",
"1 137 CURVE",
"-27 6 LINE",
"-6 -6 OFFCURVE",
"45 -15 OFFCURVE",
"86 -15 CURVE SMOOTH",
"235 -15 OFFCURVE",
"311 68 OFFCURVE",
"338 195 CURVE SMOOTH"
);
}
);
width = 387;
}
);
note = J;
rightKerningGroup = J;
unicode = 004A;
},
{
glyphname = Jcircumflex;
lastChange = "2015-10-28 14:45:03 +0000";
layers = (
{
layerId = "C917F9CB-DEFA-4BDD-B24E-8B4296F56613";
name = "SemiBold Italic";
paths = (
{
closed = 1;
nodes = (
"445 699 LINE",
"293 699 LINE",
"189 209 LINE SMOOTH",
"176 148 OFFCURVE",
"141 122 OFFCURVE",
"81 122 CURVE SMOOTH",
"52 122 OFFCURVE",
"19 127 OFFCURVE",
"1 137 CURVE",
"-27 6 LINE",
"-6 -6 OFFCURVE",
"45 -15 OFFCURVE",
"86 -15 CURVE SMOOTH",
"235 -15 OFFCURVE",
"311 68 OFFCURVE",
"338 195 CURVE SMOOTH"
);
},
{
closed = 1;
nodes = (
"461 918 LINE",
"326 918 LINE",
"139 742 LINE",
"289 742 LINE",
"377 834 LINE",
"425 742 LINE",
"575 742 LINE"
);
}
);
width = 386;
}
);
note = Jcircumflex;
rightKerningGroup = J;
unicode = 0134;
},
{
glyphname = K;
lastChange = "2015-10-28 14:45:04 +0000";
layers = (
{
layerId = "C917F9CB-DEFA-4BDD-B24E-8B4296F56613";
name = "SemiBold Italic";
paths = (
{
closed = 1;
nodes = (
"232 322 LINE",
"448 0 LINE",
"629 0 LINE",
"389 358 LINE",
"757 699 LINE",
"576 699 LINE",
"247 394 LINE",
"312 699 LINE",
"160 699 LINE",
"12 0 LINE",
"164 0 LINE"
);
}
);
width = 701;
}
);
leftKerningGroup = K;
note = K;
rightKerningGroup = K;
unicode = 004B;
},
{
glyphname = Kcommaaccent;
lastChange = "2015-10-28 14:45:03 +0000";
layers = (
{
layerId = "C917F9CB-DEFA-4BDD-B24E-8B4296F56613";
name = "SemiBold Italic";
paths = (
{
closed = 1;
nodes = (
"232 322 LINE",
"448 0 LINE",
"629 0 LINE",
"389 358 LINE",
"757 699 LINE",
"576 699 LINE",
"247 394 LINE",
"312 699 LINE",
"160 699 LINE",
"12 0 LINE",
"164 0 LINE"
);
},
{
closed = 1;
nodes = (
"221 -260 LINE",
"366 -53 LINE",
"210 -53 LINE",
"84 -260 LINE"
);
}
);
width = 701;
}
);
leftKerningGroup = K;
note = Kcommaaccent;
rightKerningGroup = K;
unicode = 0136;
},
{
glyphname = L;
lastChange = "2015-10-28 14:45:03 +0000";
layers = (
{
layerId = "C917F9CB-DEFA-4BDD-B24E-8B4296F56613";
name = "SemiBold Italic";
paths = (
{
closed = 1;
nodes = (
"312 699 LINE",
"160 699 LINE",
"12 0 LINE",
"484 0 LINE",
"510 127 LINE",
"190 127 LINE"
);
}
);
width = 537;
}
);
note = L;
rightKerningGroup = L;
unicode = 004C;
},
{
glyphname = Lacute;
lastChange = "2015-10-28 14:45:03 +0000";
layers = (
{
layerId = "C917F9CB-DEFA-4BDD-B24E-8B4296F56613";
name = "SemiBold Italic";
paths = (
{
closed = 1;
nodes = (
"312 699 LINE",
"160 699 LINE",
"12 0 LINE",
"484 0 LINE",
"510 127 LINE",
"190 127 LINE"
);
},
{
closed = 1;
nodes = (
"298 742 LINE",
"424 918 LINE",
"265 918 LINE",
"159 742 LINE"
);
}
);
width = 537;
}
);
note = Lacute;
rightKerningGroup = L;
unicode = 0139;
},
{
glyphname = Lcaron;
lastChange = "2015-10-28 14:45:03 +0000";
layers = (
{
layerId = "C917F9CB-DEFA-4BDD-B24E-8B4296F56613";
name = "SemiBold Italic";
paths = (
{
closed = 1;
nodes = (
"312 699 LINE",
"160 699 LINE",
"12 0 LINE",
"484 0 LINE",
"510 127 LINE",
"190 127 LINE"
);
},
{
closed = 1;
nodes = (
"498 503 LINE",
"643 710 LINE",
"487 710 LINE",
"361 503 LINE"
);
}
);
width = 533;
}
);
note = Lcaron;
rightKerningGroup = L;
unicode = 013D;
},
{
glyphname = Lcommaaccent;
lastChange = "2015-10-28 14:45:02 +0000";
layers = (
{
layerId = "C917F9CB-DEFA-4BDD-B24E-8B4296F56613";
name = "SemiBold Italic";
paths = (
{
closed = 1;
nodes = (
"312 699 LINE",
"160 699 LINE",
"12 0 LINE",
"484 0 LINE",
"510 127 LINE",
"190 127 LINE"
);
},
{
closed = 1;
nodes = (
"184 -260 LINE",
"329 -53 LINE",
"173 -53 LINE",
"47 -260 LINE"
);
}
);
width = 537;
}
);
note = Lcommaaccent;
rightKerningGroup = L;
unicode = 013B;
},
{
glyphname = Ldot;
lastChange = "2015-10-28 14:45:03 +0000";
layers = (
{
layerId = "C917F9CB-DEFA-4BDD-B24E-8B4296F56613";
name = "SemiBold Italic";
paths = (
{
closed = 1;
nodes = (
"312 699 LINE",
"160 699 LINE",
"12 0 LINE",
"484 0 LINE",
"510 127 LINE",
"190 127 LINE"
);
},
{
closed = 1;
nodes = (
"347 350 OFFCURVE",
"375 319 OFFCURVE",
"414 319 CURVE SMOOTH",
"453 319 OFFCURVE",
"491 350 OFFCURVE",
"500 390 CURVE SMOOTH",
"508 430 OFFCURVE",
"483 462 OFFCURVE",
"444 462 CURVE SMOOTH",
"405 462 OFFCURVE",
"364 430 OFFCURVE",
"356 390 CURVE SMOOTH"
);
}
);
width = 537;
}
);
note = Ldot;
rightKerningGroup = L;
unicode = 013F;
},
{
glyphname = Ldotbelow;
lastChange = "2015-10-28 14:45:02 +0000";
layers = (
{
layerId = "C917F9CB-DEFA-4BDD-B24E-8B4296F56613";
name = "SemiBold Italic";
paths = (
{
closed = 1;
nodes = (
"312 699 LINE",
"160 699 LINE",
"12 0 LINE",
"484 0 LINE",
"510 127 LINE",
"190 127 LINE"
);
},
{
closed = 1;
nodes = (
"124 -158 OFFCURVE",
"151 -190 OFFCURVE",
"190 -190 CURVE SMOOTH",
"229 -190 OFFCURVE",
"267 -158 OFFCURVE",
"275 -118 CURVE SMOOTH",
"284 -78 OFFCURVE",
"259 -46 OFFCURVE",
"221 -46 CURVE SMOOTH",
"182 -46 OFFCURVE",
"141 -78 OFFCURVE",
"132 -118 CURVE SMOOTH"
);
}
);
width = 537;
}
);
note = Ldotbelow;
rightKerningGroup = L;
unicode = 1E36;
},
{
glyphname = Ldotbelowmacron;
lastChange = "2015-10-28 14:45:04 +0000";
layers = (
{
layerId = "C917F9CB-DEFA-4BDD-B24E-8B4296F56613";
name = "SemiBold Italic";
paths = (
{
closed = 1;
nodes = (
"311 699 LINE",
"159 699 LINE",
"11 0 LINE",
"483 0 LINE",
"509 127 LINE",
"189 127 LINE"
);
},
{
closed = 1;
nodes = (
"470 752 LINE",
"490 850 LINE",
"157 850 LINE",
"137 752 LINE"
);
},
{
closed = 1;
nodes = (
"141 -158 OFFCURVE",
"168 -190 OFFCURVE",
"207 -190 CURVE SMOOTH",
"246 -190 OFFCURVE",
"284 -158 OFFCURVE",
"292 -118 CURVE SMOOTH",
"301 -78 OFFCURVE",
"276 -46 OFFCURVE",
"238 -46 CURVE SMOOTH",
"199 -46 OFFCURVE",
"158 -78 OFFCURVE",
"149 -118 CURVE SMOOTH"
);
}
);
width = 536;
}
);
note = Ldotbelowmacron;
rightKerningGroup = L;
unicode = 1E38;
},
{
glyphname = Llinebelow;
lastChange = "2015-10-28 14:45:03 +0000";
layers = (
{
layerId = "C917F9CB-DEFA-4BDD-B24E-8B4296F56613";
name = "SemiBold Italic";
paths = (
{
closed = 1;
nodes = (
"312 699 LINE",
"160 699 LINE",
"12 0 LINE",
"484 0 LINE",
"510 127 LINE",
"190 127 LINE"
);
},
{
closed = 1;
nodes = (
"377 -162 LINE",
"398 -64 LINE",
"65 -64 LINE",
"44 -162 LINE"
);
}
);
width = 537;
}
);
note = Llinebelow;
rightKerningGroup = L;
unicode = 1E3A;
},
{
glyphname = Lslash;
lastChange = "2015-10-28 14:45:04 +0000";
layers = (
{
layerId = "C917F9CB-DEFA-4BDD-B24E-8B4296F56613";
name = "SemiBold Italic";
paths = (
{
closed = 1;
nodes = (
"541 130 LINE",
"226 130 LINE",
"270 339 LINE",
"428 404 LINE",
"459 549 LINE",
"301 484 LINE",
"347 699 LINE",
"191 699 LINE",
"131 415 LINE",
"36 376 LINE",
"6 231 LINE",
"100 269 LINE",
"43 0 LINE",
"514 0 LINE"
);
}
);
width = 567;
}
);
note = Lslash;
rightKerningGroup = L;
unicode = 0141;
},
{
glyphname = M;
lastChange = "2015-10-28 14:45:03 +0000";
layers = (
{
layerId = "C917F9CB-DEFA-4BDD-B24E-8B4296F56613";
name = "SemiBold Italic";
paths = (
{
closed = 1;
nodes = (
"305 699 LINE",
"160 699 LINE",
"12 0 LINE",
"158 0 LINE",
"242 397 LINE",
"342 0 LINE",
"412 0 LINE",
"681 397 LINE",
"597 0 LINE",
"742 0 LINE",
"890 699 LINE",
"736 699 LINE",
"421 231 LINE"
);
}
);
width = 835;
}
);
note = M;
unicode = 004D;
},
{
glyphname = Mdotbelow;
lastChange = "2015-10-28 14:45:03 +0000";
layers = (
{
layerId = "C917F9CB-DEFA-4BDD-B24E-8B4296F56613";
name = "SemiBold Italic";
paths = (
{
closed = 1;
nodes = (
"305 699 LINE",
"160 699 LINE",
"12 0 LINE",
"158 0 LINE",
"242 397 LINE",
"342 0 LINE",
"412 0 LINE",
"681 397 LINE",
"597 0 LINE",
"742 0 LINE",
"890 699 LINE",
"736 699 LINE",
"421 231 LINE"
);
},
{
closed = 1;
nodes = (
"272 -158 OFFCURVE",
"299 -190 OFFCURVE",
"338 -190 CURVE SMOOTH",
"377 -190 OFFCURVE",
"415 -158 OFFCURVE",
"423 -118 CURVE SMOOTH",
"432 -78 OFFCURVE",
"407 -46 OFFCURVE",
"369 -46 CURVE SMOOTH",
"330 -46 OFFCURVE",
"289 -78 OFFCURVE",
"280 -118 CURVE SMOOTH"
);
}
);
width = 835;
}
);
note = Mdotbelow;
unicode = 1E42;
},
{
glyphname = N;
lastChange = "2015-10-28 14:45:04 +0000";
layers = (
{
layerId = "C917F9CB-DEFA-4BDD-B24E-8B4296F56613";
name = "SemiBold Italic";
paths = (
{
closed = 1;
nodes = (
"752 699 LINE",
"600 699 LINE",
"504 247 LINE",
"308 699 LINE",
"160 699 LINE",
"12 0 LINE",
"164 0 LINE",
"260 452 LINE",
"457 0 LINE",
"604 0 LINE"
);
}
);
width = 696;
}
);
note = N;
unicode = 004E;
},
{
glyphname = Nacute;
lastChange = "2015-10-28 14:45:03 +0000";
layers = (
{
layerId = "C917F9CB-DEFA-4BDD-B24E-8B4296F56613";
name = "SemiBold Italic";
paths = (
{
closed = 1;
nodes = (
"604 0 LINE",
"457 0 LINE",
"260 452 LINE",
"164 0 LINE",
"12 0 LINE",
"160 699 LINE",
"308 699 LINE",
"504 247 LINE",
"600 699 LINE",
"752 699 LINE"
);
},
{
closed = 1;
nodes = (
"508 742 LINE",
"634 918 LINE",
"475 918 LINE",
"369 742 LINE"
);
}
);
width = 696;
}
);
note = Nacute;
unicode = 0143;
},
{
glyphname = Ncaron;
lastChange = "2015-10-28 14:45:04 +0000";
layers = (
{
layerId = "C917F9CB-DEFA-4BDD-B24E-8B4296F56613";
name = "SemiBold Italic";
paths = (
{
closed = 1;
nodes = (
"604 0 LINE",
"457 0 LINE",
"260 452 LINE",
"164 0 LINE",
"12 0 LINE",
"160 699 LINE",
"308 699 LINE",
"504 247 LINE",
"600 699 LINE",
"752 699 LINE"
);
},
{
closed = 1;
nodes = (
"379 742 LINE",
"514 742 LINE",
"702 918 LINE",
"552 918 LINE",
"465 826 LINE",
"416 918 LINE",
"266 918 LINE"
);
}
);
width = 696;
}
);
note = Ncaron;
unicode = 0147;
},
{
glyphname = Ncommaaccent;
lastChange = "2015-10-28 14:45:03 +0000";
layers = (
{
layerId = "C917F9CB-DEFA-4BDD-B24E-8B4296F56613";
name = "SemiBold Italic";
paths = (
{
closed = 1;
nodes = (
"752 699 LINE",
"600 699 LINE",
"504 247 LINE",
"308 699 LINE",
"160 699 LINE",
"12 0 LINE",
"164 0 LINE",
"260 452 LINE",
"457 0 LINE",
"604 0 LINE"
);
},
{
closed = 1;
nodes = (
"239 -260 LINE",
"384 -53 LINE",
"228 -53 LINE",
"102 -260 LINE"
);
}
);
width = 696;
}
);
note = Ncommaaccent;
unicode = 0145;
},
{
glyphname = Ndotaccent;
lastChange = "2015-10-28 14:45:03 +0000";
layers = (
{
layerId = "C917F9CB-DEFA-4BDD-B24E-8B4296F56613";
name = "SemiBold Italic";
paths = (
{
closed = 1;
nodes = (
"604 0 LINE",
"457 0 LINE",
"260 452 LINE",
"164 0 LINE",
"12 0 LINE",
"160 699 LINE",
"308 699 LINE",
"504 247 LINE",
"600 699 LINE",
"752 699 LINE"
);
},
{
closed = 1;
nodes = (
"389 783 OFFCURVE",
"417 752 OFFCURVE",
"456 752 CURVE SMOOTH",
"495 752 OFFCURVE",
"533 783 OFFCURVE",
"542 823 CURVE SMOOTH",
"550 863 OFFCURVE",
"525 895 OFFCURVE",
"486 895 CURVE SMOOTH",
"447 895 OFFCURVE",
"406 863 OFFCURVE",
"398 823 CURVE SMOOTH"
);
}
);
width = 696;
}
);
note = Ndotaccent;
unicode = 1E44;
},
{
glyphname = Ndotbelow;
lastChange = "2015-10-28 14:45:04 +0000";
layers = (
{
layerId = "C917F9CB-DEFA-4BDD-B24E-8B4296F56613";
name = "SemiBold Italic";
paths = (
{
closed = 1;
nodes = (
"752 699 LINE",
"600 699 LINE",
"504 247 LINE",
"308 699 LINE",
"160 699 LINE",
"12 0 LINE",
"164 0 LINE",
"260 452 LINE",
"457 0 LINE",
"604 0 LINE"
);
},
{
closed = 1;
nodes = (
"210 -158 OFFCURVE",
"237 -190 OFFCURVE",
"276 -190 CURVE SMOOTH",
"315 -190 OFFCURVE",
"353 -158 OFFCURVE",
"361 -118 CURVE SMOOTH",
"370 -78 OFFCURVE",
"345 -46 OFFCURVE",
"307 -46 CURVE SMOOTH",
"268 -46 OFFCURVE",
"227 -78 OFFCURVE",
"218 -118 CURVE SMOOTH"
);
}
);
width = 696;
}
);
note = Ndotbelow;
unicode = 1E46;
},
{
glyphname = Eng;
lastChange = "2015-10-28 14:45:02 +0000";
layers = (
{
layerId = "C917F9CB-DEFA-4BDD-B24E-8B4296F56613";
name = "SemiBold Italic";
paths = (
{
closed = 1;
nodes = (
"752 699 LINE",
"600 699 LINE",
"504 247 LINE",
"308 699 LINE",
"160 699 LINE",
"12 0 LINE",
"164 0 LINE",
"260 452 LINE",
"454 7 LINE",
"446 -29 LINE SMOOTH",
"435 -84 OFFCURVE",
"404 -108 OFFCURVE",
"354 -108 CURVE SMOOTH",
"328 -108 OFFCURVE",
"308 -103 OFFCURVE",
"291 -95 CURVE",
"266 -216 LINE",
"287 -225 OFFCURVE",
"315 -231 OFFCURVE",
"352 -231 CURVE SMOOTH",
"495 -231 OFFCURVE",
"567 -173 OFFCURVE",
"594 -46 CURVE SMOOTH"
);
}
);
width = 702;
}
);
note = Eng;
unicode = 014A;
},
{
glyphname = Nlinebelow;
lastChange = "2015-10-28 14:45:03 +0000";
layers = (
{
layerId = "C917F9CB-DEFA-4BDD-B24E-8B4296F56613";
name = "SemiBold Italic";
paths = (
{
closed = 1;
nodes = (
"752 699 LINE",
"600 699 LINE",
"504 247 LINE",
"308 699 LINE",
"160 699 LINE",
"12 0 LINE",
"164 0 LINE",
"260 452 LINE",
"457 0 LINE",
"604 0 LINE"
);
},
{
closed = 1;
nodes = (
"451 -162 LINE",
"472 -64 LINE",
"139 -64 LINE",
"118 -162 LINE"
);
}
);
width = 696;
}
);
note = Nlinebelow;
unicode = 1E48;
},
{
glyphname = Ntilde;
lastChange = "2015-10-28 14:45:04 +0000";
layers = (
{
layerId = "C917F9CB-DEFA-4BDD-B24E-8B4296F56613";
name = "SemiBold Italic";
paths = (
{
closed = 1;
nodes = (
"752 699 LINE",
"600 699 LINE",
"504 247 LINE",
"308 699 LINE",
"160 699 LINE",
"12 0 LINE",
"164 0 LINE",
"260 452 LINE",
"457 0 LINE",
"604 0 LINE"
);
},
{
closed = 1;
nodes = (
"349 900 OFFCURVE",
"310 888 OFFCURVE",
"279 857 CURVE",
"255 742 LINE",
"294 780 OFFCURVE",
"331 793 OFFCURVE",
"369 793 CURVE SMOOTH",
"433 793 OFFCURVE",
"478 743 OFFCURVE",
"551 743 CURVE SMOOTH",
"594 743 OFFCURVE",
"631 754 OFFCURVE",
"661 785 CURVE",
"685 900 LINE",
"649 863 OFFCURVE",
"613 850 OFFCURVE",
"574 850 CURVE SMOOTH",
"509 850 OFFCURVE",
"459 900 OFFCURVE",
"391 900 CURVE SMOOTH"
);
}
);
width = 696;
}
);
note = Ntilde;
unicode = 00D1;
},
{
glyphname = O;
lastChange = "2015-10-28 14:45:04 +0000";
layers = (
{
layerId = "C917F9CB-DEFA-4BDD-B24E-8B4296F56613";
name = "SemiBold Italic";
paths = (
{
closed = 1;
nodes = (
"245 125 OFFCURVE",
"191 210 OFFCURVE",
"221 349 CURVE SMOOTH",
"250 486 OFFCURVE",
"364 572 OFFCURVE",
"487 572 CURVE SMOOTH",
"632 572 OFFCURVE",
"686 486 OFFCURVE",
"657 349 CURVE SMOOTH",
"627 210 OFFCURVE",
"511 125 OFFCURVE",
"392 125 CURVE SMOOTH"
);
},
{
closed = 1;
nodes = (
"591 -15 OFFCURVE",
"765 131 OFFCURVE",
"812 349 CURVE SMOOTH",
"858 568 OFFCURVE",
"727 714 OFFCURVE",
"517 714 CURVE SMOOTH",
"292 714 OFFCURVE",
"112 568 OFFCURVE",
"66 349 CURVE SMOOTH",
"19 131 OFFCURVE",
"151 -15 OFFCURVE",
"362 -15 CURVE SMOOTH"
);
}
);
width = 810;
}
);
leftKerningGroup = O;
note = O;
rightKerningGroup = O;
unicode = 004F;
},
{
glyphname = Oacute;
lastChange = "2015-10-28 14:45:02 +0000";
layers = (
{
layerId = "C917F9CB-DEFA-4BDD-B24E-8B4296F56613";
name = "SemiBold Italic";
paths = (
{
closed = 1;
nodes = (
"245 125 OFFCURVE",
"191 210 OFFCURVE",
"221 349 CURVE SMOOTH",
"250 486 OFFCURVE",
"364 572 OFFCURVE",
"487 572 CURVE SMOOTH",
"632 572 OFFCURVE",
"686 486 OFFCURVE",
"657 349 CURVE SMOOTH",
"627 210 OFFCURVE",
"511 125 OFFCURVE",
"392 125 CURVE SMOOTH"
);
},
{
closed = 1;
nodes = (
"591 -15 OFFCURVE",
"765 131 OFFCURVE",
"812 349 CURVE SMOOTH",
"858 568 OFFCURVE",
"727 714 OFFCURVE",
"517 714 CURVE SMOOTH",
"292 714 OFFCURVE",
"112 568 OFFCURVE",
"66 349 CURVE SMOOTH",
"19 131 OFFCURVE",
"151 -15 OFFCURVE",
"362 -15 CURVE SMOOTH"
);
},
{
closed = 1;
nodes = (
"571 742 LINE",
"697 918 LINE",
"538 918 LINE",
"432 742 LINE"
);
}
);
width = 810;
}
);
leftKerningGroup = O;
note = Oacute;
rightKerningGroup = O;
unicode = 00D3;
},
{
glyphname = Obreve;
lastChange = "2015-10-28 14:45:03 +0000";
layers = (
{
layerId = "C917F9CB-DEFA-4BDD-B24E-8B4296F56613";
name = "SemiBold Italic";
paths = (
{
closed = 1;
nodes = (
"245 125 OFFCURVE",
"191 210 OFFCURVE",
"221 349 CURVE SMOOTH",
"250 486 OFFCURVE",
"364 572 OFFCURVE",
"487 572 CURVE SMOOTH",
"632 572 OFFCURVE",
"686 486 OFFCURVE",
"657 349 CURVE SMOOTH",
"627 210 OFFCURVE",
"511 125 OFFCURVE",
"392 125 CURVE SMOOTH"
);
},
{
closed = 1;
nodes = (
"591 -15 OFFCURVE",
"765 131 OFFCURVE",
"812 349 CURVE SMOOTH",
"858 568 OFFCURVE",
"727 714 OFFCURVE",
"517 714 CURVE SMOOTH",
"292 714 OFFCURVE",
"112 568 OFFCURVE",
"66 349 CURVE SMOOTH",
"19 131 OFFCURVE",
"151 -15 OFFCURVE",
"362 -15 CURVE SMOOTH"
);
},
{
closed = 1;
nodes = (
"484 840 OFFCURVE",
"468 862 OFFCURVE",
"477 904 CURVE",
"365 904 LINE",
"344 807 OFFCURVE",
"392 742 OFFCURVE",
"501 742 CURVE SMOOTH",
"610 742 OFFCURVE",
"687 807 OFFCURVE",
"708 904 CURVE",
"595 904 LINE",
"586 862 OFFCURVE",
"559 840 OFFCURVE",
"522 840 CURVE SMOOTH"
);
}
);
width = 810;
}
);
leftKerningGroup = O;
note = Obreve;
rightKerningGroup = O;
unicode = 014E;
},
{
glyphname = Ocaron;
lastChange = "2015-10-28 14:45:04 +0000";
layers = (
{
layerId = "C917F9CB-DEFA-4BDD-B24E-8B4296F56613";
name = "SemiBold Italic";
paths = (
{
closed = 1;
nodes = (
"245 125 OFFCURVE",
"191 210 OFFCURVE",
"221 349 CURVE SMOOTH",
"250 486 OFFCURVE",
"364 572 OFFCURVE",
"487 572 CURVE SMOOTH",
"632 572 OFFCURVE",
"686 486 OFFCURVE",
"657 349 CURVE SMOOTH",
"627 210 OFFCURVE",
"511 125 OFFCURVE",
"392 125 CURVE SMOOTH"
);
},
{
closed = 1;
nodes = (
"591 -15 OFFCURVE",
"765 131 OFFCURVE",
"812 349 CURVE SMOOTH",
"858 568 OFFCURVE",
"727 714 OFFCURVE",
"517 714 CURVE SMOOTH",
"292 714 OFFCURVE",
"112 568 OFFCURVE",
"66 349 CURVE SMOOTH",
"19 131 OFFCURVE",
"151 -15 OFFCURVE",
"362 -15 CURVE SMOOTH"
);
},
{
closed = 1;
nodes = (
"434 742 LINE",
"569 742 LINE",
"757 918 LINE",
"607 918 LINE",
"520 826 LINE",
"471 918 LINE",
"321 918 LINE"
);
}
);
width = 810;
}
);
leftKerningGroup = O;
note = Ocaron;
rightKerningGroup = O;
unicode = 01D1;
},
{
glyphname = Ocircumflex;
lastChange = "2015-10-28 14:45:04 +0000";
layers = (
{
layerId = "C917F9CB-DEFA-4BDD-B24E-8B4296F56613";
name = "SemiBold Italic";
paths = (
{
closed = 1;
nodes = (
"245 125 OFFCURVE",
"191 210 OFFCURVE",
"221 349 CURVE SMOOTH",
"250 486 OFFCURVE",
"364 572 OFFCURVE",
"487 572 CURVE SMOOTH",
"632 572 OFFCURVE",
"686 486 OFFCURVE",
"657 349 CURVE SMOOTH",
"627 210 OFFCURVE",
"511 125 OFFCURVE",
"392 125 CURVE SMOOTH"
);
},
{
closed = 1;
nodes = (
"591 -15 OFFCURVE",
"765 131 OFFCURVE",
"812 349 CURVE SMOOTH",
"858 568 OFFCURVE",
"727 714 OFFCURVE",
"517 714 CURVE SMOOTH",
"292 714 OFFCURVE",
"112 568 OFFCURVE",
"66 349 CURVE SMOOTH",
"19 131 OFFCURVE",
"151 -15 OFFCURVE",
"362 -15 CURVE SMOOTH"
);
},
{
closed = 1;
nodes = (
"607 918 LINE",
"472 918 LINE",
"285 742 LINE",
"435 742 LINE",
"523 834 LINE",
"571 742 LINE",
"721 742 LINE"
);
}
);
width = 810;
}
);
leftKerningGroup = O;
note = Ocircumflex;
rightKerningGroup = O;
unicode = 00D4;
},
{
glyphname = Ocircumflexacute;
lastChange = "2015-10-28 14:45:04 +0000";
layers = (
{
layerId = "C917F9CB-DEFA-4BDD-B24E-8B4296F56613";
name = "SemiBold Italic";
paths = (
{
closed = 1;
nodes = (
"245 125 OFFCURVE",
"191 210 OFFCURVE",
"221 349 CURVE SMOOTH",
"250 486 OFFCURVE",
"364 572 OFFCURVE",
"487 572 CURVE SMOOTH",
"632 572 OFFCURVE",
"686 486 OFFCURVE",
"657 349 CURVE SMOOTH",
"627 210 OFFCURVE",
"511 125 OFFCURVE",
"392 125 CURVE SMOOTH"
);
},
{
closed = 1;
nodes = (
"591 -15 OFFCURVE",
"765 131 OFFCURVE",
"812 349 CURVE SMOOTH",
"858 568 OFFCURVE",
"727 714 OFFCURVE",
"517 714 CURVE SMOOTH",
"292 714 OFFCURVE",
"112 568 OFFCURVE",
"66 349 CURVE SMOOTH",
"19 131 OFFCURVE",
"151 -15 OFFCURVE",
"362 -15 CURVE SMOOTH"
);
},
{
closed = 1;
nodes = (
"807 850 LINE",
"914 983 LINE",
"775 983 LINE",
"688 850 LINE"
);
},
{
closed = 1;
nodes = (
"623 897 LINE",
"508 897 LINE",
"329 742 LINE",
"467 742 LINE",
"548 818 LINE",
"597 742 LINE",
"734 742 LINE"
);
}
);
width = 810;
}
);
leftKerningGroup = O;
note = Ocircumflexacute;
rightKerningGroup = O;
unicode = 1ED0;
},
{
glyphname = Ocircumflexdotbelow;
lastChange = "2015-10-28 14:45:02 +0000";
layers = (
{
layerId = "C917F9CB-DEFA-4BDD-B24E-8B4296F56613";
name = "SemiBold Italic";
paths = (
{
closed = 1;
nodes = (
"245 125 OFFCURVE",
"191 210 OFFCURVE",
"221 349 CURVE SMOOTH",
"250 486 OFFCURVE",
"364 572 OFFCURVE",
"487 572 CURVE SMOOTH",
"632 572 OFFCURVE",
"686 486 OFFCURVE",
"657 349 CURVE SMOOTH",
"627 210 OFFCURVE",
"511 125 OFFCURVE",
"392 125 CURVE SMOOTH"
);
},
{
closed = 1;
nodes = (
"591 -15 OFFCURVE",
"765 131 OFFCURVE",
"812 349 CURVE SMOOTH",
"858 568 OFFCURVE",
"727 714 OFFCURVE",
"517 714 CURVE SMOOTH",
"292 714 OFFCURVE",
"112 568 OFFCURVE",
"66 349 CURVE SMOOTH",
"19 131 OFFCURVE",
"151 -15 OFFCURVE",
"362 -15 CURVE SMOOTH"
);
},
{
closed = 1;
nodes = (
"607 918 LINE",
"472 918 LINE",
"285 742 LINE",
"435 742 LINE",
"523 834 LINE",
"571 742 LINE",
"721 742 LINE"
);
},
{
closed = 1;
nodes = (
"261 -158 OFFCURVE",
"288 -190 OFFCURVE",
"327 -190 CURVE SMOOTH",
"366 -190 OFFCURVE",
"404 -158 OFFCURVE",
"412 -118 CURVE SMOOTH",
"421 -78 OFFCURVE",
"396 -46 OFFCURVE",
"358 -46 CURVE SMOOTH",
"319 -46 OFFCURVE",
"278 -78 OFFCURVE",
"269 -118 CURVE SMOOTH"
);
}
);
width = 810;
}
);
leftKerningGroup = O;
note = Ocircumflexdotbelow;
rightKerningGroup = O;
unicode = 1ED8;
},
{
glyphname = Ocircumflexgrave;
lastChange = "2015-10-28 14:45:04 +0000";
layers = (
{
layerId = "C917F9CB-DEFA-4BDD-B24E-8B4296F56613";
name = "SemiBold Italic";
paths = (
{
closed = 1;
nodes = (
"245 125 OFFCURVE",
"191 210 OFFCURVE",
"221 349 CURVE SMOOTH",
"250 486 OFFCURVE",
"364 572 OFFCURVE",
"487 572 CURVE SMOOTH",
"632 572 OFFCURVE",
"686 486 OFFCURVE",
"657 349 CURVE SMOOTH",
"627 210 OFFCURVE",
"511 125 OFFCURVE",
"392 125 CURVE SMOOTH"
);
},
{
closed = 1;
nodes = (
"591 -15 OFFCURVE",
"765 131 OFFCURVE",
"812 349 CURVE SMOOTH",
"858 568 OFFCURVE",
"727 714 OFFCURVE",
"517 714 CURVE SMOOTH",
"292 714 OFFCURVE",
"112 568 OFFCURVE",
"66 349 CURVE SMOOTH",
"19 131 OFFCURVE",
"151 -15 OFFCURVE",
"362 -15 CURVE SMOOTH"
);
},
{
closed = 1;
nodes = (
"418 850 LINE",
"386 983 LINE",
"246 983 LINE",
"297 850 LINE"
);
},
{
closed = 1;
nodes = (
"325 742 LINE",
"462 742 LINE",
"543 818 LINE",
"591 742 LINE",
"729 742 LINE",
"617 897 LINE",
"503 897 LINE"
);
}
);
width = 810;
}
);
leftKerningGroup = O;
note = Ocircumflexgrave;
rightKerningGroup = O;
unicode = 1ED2;
},
{
glyphname = Ocircumflexhookabove;
lastChange = "2015-10-28 14:45:03 +0000";
layers = (
{
layerId = "C917F9CB-DEFA-4BDD-B24E-8B4296F56613";
name = "SemiBold Italic";
paths = (
{
closed = 1;
nodes = (
"245 125 OFFCURVE",
"191 210 OFFCURVE",
"221 349 CURVE SMOOTH",
"250 486 OFFCURVE",
"364 572 OFFCURVE",
"487 572 CURVE SMOOTH",
"632 572 OFFCURVE",
"686 486 OFFCURVE",
"657 349 CURVE SMOOTH",
"627 210 OFFCURVE",
"511 125 OFFCURVE",
"392 125 CURVE SMOOTH"
);
},
{
closed = 1;
nodes = (
"591 -15 OFFCURVE",
"765 131 OFFCURVE",
"812 349 CURVE SMOOTH",
"858 568 OFFCURVE",
"727 714 OFFCURVE",
"517 714 CURVE SMOOTH",
"292 714 OFFCURVE",
"112 568 OFFCURVE",
"66 349 CURVE SMOOTH",
"19 131 OFFCURVE",
"151 -15 OFFCURVE",
"362 -15 CURVE SMOOTH"
);
},
{
closed = 1;
nodes = (
"867 971 OFFCURVE",
"836 1000 OFFCURVE",
"771 1000 CURVE SMOOTH",
"745 1000 OFFCURVE",
"710 995 OFFCURVE",
"691 989 CURVE",
"680 935 LINE",
"690 939 OFFCURVE",
"706 942 OFFCURVE",
"719 942 CURVE SMOOTH",
"746 942 OFFCURVE",
"759 936 OFFCURVE",
"755 918 CURVE SMOOTH",
"750 896 OFFCURVE",
"730 889 OFFCURVE",
"694 889 CURVE",
"684 839 LINE",
"777 839 LINE",
"782 863 LINE",
"823 871 OFFCURVE",
"851 895 OFFCURVE",
"858 928 CURVE SMOOTH"
);
},
{
closed = 1;
nodes = (
"621 897 LINE",
"506 897 LINE",
"327 742 LINE",
"465 742 LINE",
"546 818 LINE",
"595 742 LINE",
"732 742 LINE"
);
}
);
width = 810;
}
);
leftKerningGroup = O;
note = Ocircumflexhookabove;
rightKerningGroup = O;
unicode = 1ED4;
},
{
glyphname = Ocircumflextilde;
lastChange = "2015-10-28 14:45:03 +0000";
layers = (
{
layerId = "C917F9CB-DEFA-4BDD-B24E-8B4296F56613";
name = "SemiBold Italic";
paths = (
{
closed = 1;
nodes = (
"245 125 OFFCURVE",
"191 210 OFFCURVE",
"221 349 CURVE SMOOTH",
"250 486 OFFCURVE",
"364 572 OFFCURVE",
"487 572 CURVE SMOOTH",
"632 572 OFFCURVE",
"686 486 OFFCURVE",
"657 349 CURVE SMOOTH",
"627 210 OFFCURVE",
"511 125 OFFCURVE",
"392 125 CURVE SMOOTH"
);
},
{
closed = 1;
nodes = (
"591 -15 OFFCURVE",
"765 131 OFFCURVE",
"812 349 CURVE SMOOTH",
"858 568 OFFCURVE",
"727 714 OFFCURVE",
"517 714 CURVE SMOOTH",
"292 714 OFFCURVE",
"112 568 OFFCURVE",
"66 349 CURVE SMOOTH",
"19 131 OFFCURVE",
"151 -15 OFFCURVE",
"362 -15 CURVE SMOOTH"
);
},
{
closed = 1;
nodes = (
"475 1054 OFFCURVE",
"446 1044 OFFCURVE",
"422 1019 CURVE",
"402 924 LINE",
"433 954 OFFCURVE",
"460 966 OFFCURVE",
"492 966 CURVE SMOOTH",
"540 966 OFFCURVE",
"584 923 OFFCURVE",
"640 923 CURVE SMOOTH",
"675 923 OFFCURVE",
"703 933 OFFCURVE",
"726 957 CURVE",
"747 1053 LINE",
"717 1023 OFFCURVE",
"689 1011 OFFCURVE",
"659 1011 CURVE SMOOTH",
"609 1011 OFFCURVE",
"562 1054 OFFCURVE",
"511 1054 CURVE SMOOTH"
);
},
{
closed = 1;
nodes = (
"501 831 OFFCURVE",
"484 850 OFFCURVE",
"493 890 CURVE",
"389 890 LINE",
"370 799 OFFCURVE",
"421 742 OFFCURVE",
"522 742 CURVE SMOOTH",
"623 742 OFFCURVE",
"698 799 OFFCURVE",
"717 890 CURVE",
"615 890 LINE",
"606 850 OFFCURVE",
"580 831 OFFCURVE",
"541 831 CURVE SMOOTH"
);
}
);
width = 810;
}
);
leftKerningGroup = O;
note = Ocircumflextilde;
rightKerningGroup = O;
unicode = 1ED6;
},
{
glyphname = Odieresis;
lastChange = "2015-10-28 14:45:03 +0000";
layers = (
{
layerId = "C917F9CB-DEFA-4BDD-B24E-8B4296F56613";
name = "SemiBold Italic";
paths = (
{
closed = 1;
nodes = (
"245 125 OFFCURVE",
"191 210 OFFCURVE",
"221 349 CURVE SMOOTH",
"250 486 OFFCURVE",
"364 572 OFFCURVE",
"487 572 CURVE SMOOTH",
"632 572 OFFCURVE",
"686 486 OFFCURVE",
"657 349 CURVE SMOOTH",
"627 210 OFFCURVE",
"511 125 OFFCURVE",
"392 125 CURVE SMOOTH"
);
},
{
closed = 1;
nodes = (
"591 -15 OFFCURVE",
"765 131 OFFCURVE",
"812 349 CURVE SMOOTH",
"858 568 OFFCURVE",
"727 714 OFFCURVE",
"517 714 CURVE SMOOTH",
"292 714 OFFCURVE",
"112 568 OFFCURVE",
"66 349 CURVE SMOOTH",
"19 131 OFFCURVE",
"151 -15 OFFCURVE",
"362 -15 CURVE SMOOTH"
);
},
{
closed = 1;
nodes = (
"321 783 OFFCURVE",
"348 752 OFFCURVE",
"386 752 CURVE SMOOTH",
"425 752 OFFCURVE",
"463 783 OFFCURVE",
"472 823 CURVE SMOOTH",
"480 863 OFFCURVE",
"455 895 OFFCURVE",
"416 895 CURVE SMOOTH",
"378 895 OFFCURVE",
"338 863 OFFCURVE",
"330 823 CURVE SMOOTH"
);
},
{
closed = 1;
nodes = (
"556 783 OFFCURVE",
"584 752 OFFCURVE",
"623 752 CURVE SMOOTH",
"661 752 OFFCURVE",
"700 783 OFFCURVE",
"709 823 CURVE SMOOTH",
"717 863 OFFCURVE",
"691 895 OFFCURVE",
"653 895 CURVE SMOOTH",
"614 895 OFFCURVE",
"573 863 OFFCURVE",
"565 823 CURVE SMOOTH"
);
}
);
width = 810;
}
);
leftKerningGroup = O;
note = Odieresis;
rightKerningGroup = O;
unicode = 00D6;
},
{
glyphname = Odotbelow;
lastChange = "2015-10-28 14:45:03 +0000";
layers = (
{
layerId = "C917F9CB-DEFA-4BDD-B24E-8B4296F56613";
name = "SemiBold Italic";
paths = (
{
closed = 1;
nodes = (
"245 125 OFFCURVE",
"191 210 OFFCURVE",
"221 349 CURVE SMOOTH",
"250 486 OFFCURVE",
"364 572 OFFCURVE",
"487 572 CURVE SMOOTH",
"632 572 OFFCURVE",
"686 486 OFFCURVE",
"657 349 CURVE SMOOTH",
"627 210 OFFCURVE",
"511 125 OFFCURVE",
"392 125 CURVE SMOOTH"
);
},
{
closed = 1;
nodes = (
"591 -15 OFFCURVE",
"765 131 OFFCURVE",
"812 349 CURVE SMOOTH",
"858 568 OFFCURVE",
"727 714 OFFCURVE",
"517 714 CURVE SMOOTH",
"292 714 OFFCURVE",
"112 568 OFFCURVE",
"66 349 CURVE SMOOTH",
"19 131 OFFCURVE",
"151 -15 OFFCURVE",
"362 -15 CURVE SMOOTH"
);
},
{
closed = 1;
nodes = (
"260 -158 OFFCURVE",
"287 -190 OFFCURVE",
"326 -190 CURVE SMOOTH",
"365 -190 OFFCURVE",
"403 -158 OFFCURVE",
"411 -118 CURVE SMOOTH",
"420 -78 OFFCURVE",
"395 -46 OFFCURVE",
"357 -46 CURVE SMOOTH",
"318 -46 OFFCURVE",
"277 -78 OFFCURVE",
"268 -118 CURVE SMOOTH"
);
}
);
width = 810;
}
);
leftKerningGroup = O;
note = Odotbelow;
rightKerningGroup = O;
unicode = 1ECC;
},
{
glyphname = Ograve;
lastChange = "2015-10-28 14:45:03 +0000";
layers = (
{
layerId = "C917F9CB-DEFA-4BDD-B24E-8B4296F56613";
name = "SemiBold Italic";
paths = (
{
closed = 1;
nodes = (
"245 125 OFFCURVE",
"191 210 OFFCURVE",
"221 349 CURVE SMOOTH",
"250 486 OFFCURVE",
"364 572 OFFCURVE",
"487 572 CURVE SMOOTH",
"632 572 OFFCURVE",
"686 486 OFFCURVE",
"657 349 CURVE SMOOTH",
"627 210 OFFCURVE",
"511 125 OFFCURVE",
"392 125 CURVE SMOOTH"
);
},
{
closed = 1;
nodes = (
"591 -15 OFFCURVE",
"765 131 OFFCURVE",
"812 349 CURVE SMOOTH",
"858 568 OFFCURVE",
"727 714 OFFCURVE",
"517 714 CURVE SMOOTH",
"292 714 OFFCURVE",
"112 568 OFFCURVE",
"66 349 CURVE SMOOTH",
"19 131 OFFCURVE",
"151 -15 OFFCURVE",
"362 -15 CURVE SMOOTH"
);
},
{
closed = 1;
nodes = (
"588 742 LINE",
"556 918 LINE",
"397 918 LINE",
"448 742 LINE"
);
}
);
width = 810;
}
);
leftKerningGroup = O;
note = Ograve;
rightKerningGroup = O;
unicode = 00D2;
},
{
glyphname = Ohookabove;
lastChange = "2015-10-28 14:45:03 +0000";
layers = (
{
layerId = "C917F9CB-DEFA-4BDD-B24E-8B4296F56613";
name = "SemiBold Italic";
paths = (
{
closed = 1;
nodes = (
"245 125 OFFCURVE",
"191 210 OFFCURVE",
"221 349 CURVE SMOOTH",
"250 486 OFFCURVE",
"364 572 OFFCURVE",
"487 572 CURVE SMOOTH",
"632 572 OFFCURVE",
"686 486 OFFCURVE",
"657 349 CURVE SMOOTH",
"627 210 OFFCURVE",
"511 125 OFFCURVE",
"392 125 CURVE SMOOTH"
);
},
{
closed = 1;
nodes = (
"591 -15 OFFCURVE",
"765 131 OFFCURVE",
"812 349 CURVE SMOOTH",
"858 568 OFFCURVE",
"727 714 OFFCURVE",
"517 714 CURVE SMOOTH",
"292 714 OFFCURVE",
"112 568 OFFCURVE",
"66 349 CURVE SMOOTH",
"19 131 OFFCURVE",
"151 -15 OFFCURVE",
"362 -15 CURVE SMOOTH"
);
},
{
closed = 1;
nodes = (
"695 930 OFFCURVE",
"655 972 OFFCURVE",
"555 972 CURVE SMOOTH",
"517 972 OFFCURVE",
"470 965 OFFCURVE",
"443 957 CURVE",
"427 882 LINE",
"441 888 OFFCURVE",
"475 893 OFFCURVE",
"491 893 CURVE SMOOTH",
"534 893 OFFCURVE",
"549 882 OFFCURVE",
"543 858 CURVE",
"536 824 OFFCURVE",
"501 814 OFFCURVE",
"449 814 CURVE",
"434 742 LINE",
"566 742 LINE",
"572 771 LINE",
"632 783 OFFCURVE",
"672 821 OFFCURVE",
"682 869 CURVE SMOOTH"
);
}
);
width = 810;
}
);
leftKerningGroup = O;
note = Ohookabove;
rightKerningGroup = O;
unicode = 1ECE;
},
{
glyphname = Ohorn;
lastChange = "2015-10-28 14:45:03 +0000";
layers = (
{
layerId = "C917F9CB-DEFA-4BDD-B24E-8B4296F56613";
name = "SemiBold Italic";
paths = (
{
closed = 1;
nodes = (
"591 -15 OFFCURVE",
"765 131 OFFCURVE",
"812 349 CURVE SMOOTH",
"825 413 OFFCURVE",
"824 472 OFFCURVE",
"809 522 CURVE",
"901 542 OFFCURVE",
"966 614 OFFCURVE",
"985 703 CURVE SMOOTH",
"994 747 LINE",
"862 747 LINE",
"855 712 LINE SMOOTH",
"843 652 OFFCURVE",
"817 628 OFFCURVE",
"748 627 CURVE",
"695 682 OFFCURVE",
"614 714 OFFCURVE",
"517 714 CURVE SMOOTH",
"292 714 OFFCURVE",
"112 568 OFFCURVE",
"66 349 CURVE SMOOTH",
"19 131 OFFCURVE",
"151 -15 OFFCURVE",
"362 -15 CURVE SMOOTH"
);
},
{
closed = 1;
nodes = (
"245 125 OFFCURVE",
"191 210 OFFCURVE",
"221 349 CURVE SMOOTH",
"250 486 OFFCURVE",
"364 572 OFFCURVE",
"487 572 CURVE SMOOTH",
"632 572 OFFCURVE",
"686 486 OFFCURVE",
"657 349 CURVE SMOOTH",
"627 210 OFFCURVE",
"511 125 OFFCURVE",
"392 125 CURVE SMOOTH"
);
}
);
width = 810;
}
);
leftKerningGroup = O;
note = Ohorn;
rightKerningGroup = O;
unicode = 01A0;
},
{
glyphname = Ohornacute;
lastChange = "2015-10-28 14:45:04 +0000";
layers = (
{
layerId = "C917F9CB-DEFA-4BDD-B24E-8B4296F56613";
name = "SemiBold Italic";
paths = (
{
closed = 1;
nodes = (
"591 -15 OFFCURVE",
"765 131 OFFCURVE",
"812 349 CURVE SMOOTH",
"825 413 OFFCURVE",
"824 472 OFFCURVE",
"809 522 CURVE",
"901 542 OFFCURVE",
"966 614 OFFCURVE",
"985 703 CURVE SMOOTH",
"994 747 LINE",
"862 747 LINE",
"855 712 LINE SMOOTH",
"843 652 OFFCURVE",
"817 628 OFFCURVE",
"748 627 CURVE",
"695 682 OFFCURVE",
"614 714 OFFCURVE",
"517 714 CURVE SMOOTH",
"292 714 OFFCURVE",
"112 568 OFFCURVE",
"66 349 CURVE SMOOTH",
"19 131 OFFCURVE",
"151 -15 OFFCURVE",
"362 -15 CURVE SMOOTH"
);
},
{
closed = 1;
nodes = (
"245 125 OFFCURVE",
"191 210 OFFCURVE",
"221 349 CURVE SMOOTH",
"250 486 OFFCURVE",
"364 572 OFFCURVE",
"487 572 CURVE SMOOTH",
"632 572 OFFCURVE",
"686 486 OFFCURVE",
"657 349 CURVE SMOOTH",
"627 210 OFFCURVE",
"511 125 OFFCURVE",
"392 125 CURVE SMOOTH"
);
},
{
closed = 1;
nodes = (
"580 742 LINE",
"706 918 LINE",
"547 918 LINE",
"441 742 LINE"
);
}
);
width = 810;
}
);
leftKerningGroup = O;
note = Ohornacute;
rightKerningGroup = O;
unicode = 1EDA;
},
{
glyphname = Ohorndotbelow;
lastChange = "2015-10-28 14:45:03 +0000";
layers = (
{
layerId = "C917F9CB-DEFA-4BDD-B24E-8B4296F56613";
name = "SemiBold Italic";
paths = (
{
closed = 1;
nodes = (
"591 -15 OFFCURVE",
"765 131 OFFCURVE",
"812 349 CURVE SMOOTH",
"825 413 OFFCURVE",
"824 472 OFFCURVE",
"809 522 CURVE",
"901 542 OFFCURVE",
"966 614 OFFCURVE",
"985 703 CURVE SMOOTH",
"994 747 LINE",
"862 747 LINE",
"855 712 LINE SMOOTH",
"843 652 OFFCURVE",
"817 628 OFFCURVE",
"748 627 CURVE",
"695 682 OFFCURVE",
"614 714 OFFCURVE",
"517 714 CURVE SMOOTH",
"292 714 OFFCURVE",
"112 568 OFFCURVE",
"66 349 CURVE SMOOTH",
"19 131 OFFCURVE",
"151 -15 OFFCURVE",
"362 -15 CURVE SMOOTH"
);
},
{
closed = 1;
nodes = (
"245 125 OFFCURVE",
"191 210 OFFCURVE",
"221 349 CURVE SMOOTH",
"250 486 OFFCURVE",
"364 572 OFFCURVE",
"487 572 CURVE SMOOTH",
"632 572 OFFCURVE",
"686 486 OFFCURVE",
"657 349 CURVE SMOOTH",
"627 210 OFFCURVE",
"511 125 OFFCURVE",
"392 125 CURVE SMOOTH"
);
},
{
closed = 1;
nodes = (
"263 -158 OFFCURVE",
"290 -190 OFFCURVE",
"329 -190 CURVE SMOOTH",
"368 -190 OFFCURVE",
"406 -158 OFFCURVE",
"414 -118 CURVE SMOOTH",
"423 -78 OFFCURVE",
"398 -46 OFFCURVE",
"360 -46 CURVE SMOOTH",
"321 -46 OFFCURVE",
"280 -78 OFFCURVE",
"271 -118 CURVE SMOOTH"
);
}
);
width = 810;
}
);
leftKerningGroup = O;
note = Ohorndotbelow;
rightKerningGroup = O;
unicode = 1EE2;
},
{
glyphname = Ohorngrave;
lastChange = "2015-10-28 14:45:02 +0000";
layers = (
{
layerId = "C917F9CB-DEFA-4BDD-B24E-8B4296F56613";
name = "SemiBold Italic";
paths = (
{
closed = 1;
nodes = (
"591 -15 OFFCURVE",
"765 131 OFFCURVE",
"812 349 CURVE SMOOTH",
"825 413 OFFCURVE",
"824 472 OFFCURVE",
"809 522 CURVE",
"901 542 OFFCURVE",
"966 614 OFFCURVE",
"985 703 CURVE SMOOTH",
"994 747 LINE",
"862 747 LINE",
"855 712 LINE SMOOTH",
"843 652 OFFCURVE",
"817 628 OFFCURVE",
"748 627 CURVE",
"695 682 OFFCURVE",
"614 714 OFFCURVE",
"517 714 CURVE SMOOTH",
"292 714 OFFCURVE",
"112 568 OFFCURVE",
"66 349 CURVE SMOOTH",
"19 131 OFFCURVE",
"151 -15 OFFCURVE",
"362 -15 CURVE SMOOTH"
);
},
{
closed = 1;
nodes = (
"245 125 OFFCURVE",
"191 210 OFFCURVE",
"221 349 CURVE SMOOTH",
"250 486 OFFCURVE",
"364 572 OFFCURVE",
"487 572 CURVE SMOOTH",
"632 572 OFFCURVE",
"686 486 OFFCURVE",
"657 349 CURVE SMOOTH",
"627 210 OFFCURVE",
"511 125 OFFCURVE",
"392 125 CURVE SMOOTH"
);
},
{
closed = 1;
nodes = (
"571 742 LINE",
"539 918 LINE",
"380 918 LINE",
"431 742 LINE"
);
}
);
width = 810;
}
);
leftKerningGroup = O;
note = Ohorngrave;
rightKerningGroup = O;
unicode = 1EDC;
},
{
glyphname = Ohornhookabove;
lastChange = "2015-10-28 14:45:03 +0000";
layers = (
{
layerId = "C917F9CB-DEFA-4BDD-B24E-8B4296F56613";
name = "SemiBold Italic";
paths = (
{
closed = 1;
nodes = (
"591 -15 OFFCURVE",
"765 131 OFFCURVE",
"812 349 CURVE SMOOTH",
"825 413 OFFCURVE",
"824 472 OFFCURVE",
"809 522 CURVE",
"901 542 OFFCURVE",
"966 614 OFFCURVE",
"985 703 CURVE SMOOTH",
"994 747 LINE",
"862 747 LINE",
"855 712 LINE SMOOTH",
"843 652 OFFCURVE",
"817 628 OFFCURVE",
"748 627 CURVE",
"695 682 OFFCURVE",
"614 714 OFFCURVE",
"517 714 CURVE SMOOTH",
"292 714 OFFCURVE",
"112 568 OFFCURVE",
"66 349 CURVE SMOOTH",
"19 131 OFFCURVE",
"151 -15 OFFCURVE",
"362 -15 CURVE SMOOTH"
);
},
{
closed = 1;
nodes = (
"245 125 OFFCURVE",
"191 210 OFFCURVE",
"221 349 CURVE SMOOTH",
"250 486 OFFCURVE",
"364 572 OFFCURVE",
"487 572 CURVE SMOOTH",
"632 572 OFFCURVE",
"686 486 OFFCURVE",
"657 349 CURVE SMOOTH",
"627 210 OFFCURVE",
"511 125 OFFCURVE",
"392 125 CURVE SMOOTH"
);
},
{
closed = 1;
nodes = (
"702 930 OFFCURVE",
"662 972 OFFCURVE",
"562 972 CURVE SMOOTH",
"524 972 OFFCURVE",
"477 965 OFFCURVE",
"450 957 CURVE",
"434 882 LINE",
"448 888 OFFCURVE",
"482 893 OFFCURVE",
"498 893 CURVE SMOOTH",
"541 893 OFFCURVE",
"556 882 OFFCURVE",
"550 858 CURVE",
"543 824 OFFCURVE",
"508 814 OFFCURVE",
"456 814 CURVE",
"441 742 LINE",
"573 742 LINE",
"579 771 LINE",
"639 783 OFFCURVE",
"679 821 OFFCURVE",
"689 869 CURVE SMOOTH"
);
}
);
width = 810;
}
);
leftKerningGroup = O;
note = Ohornhookabove;
rightKerningGroup = O;
unicode = 1EDE;
},
{
glyphname = Ohorntilde;
lastChange = "2015-10-28 14:45:04 +0000";
layers = (
{
layerId = "C917F9CB-DEFA-4BDD-B24E-8B4296F56613";
name = "SemiBold Italic";
paths = (
{
closed = 1;
nodes = (
"591 -15 OFFCURVE",
"765 131 OFFCURVE",
"812 349 CURVE SMOOTH",
"825 413 OFFCURVE",
"824 472 OFFCURVE",
"809 522 CURVE",
"901 542 OFFCURVE",
"966 614 OFFCURVE",
"985 703 CURVE SMOOTH",
"994 747 LINE",
"862 747 LINE",
"855 712 LINE SMOOTH",
"843 652 OFFCURVE",
"817 628 OFFCURVE",
"748 627 CURVE",
"695 682 OFFCURVE",
"614 714 OFFCURVE",
"517 714 CURVE SMOOTH",
"292 714 OFFCURVE",
"112 568 OFFCURVE",
"66 349 CURVE SMOOTH",
"19 131 OFFCURVE",
"151 -15 OFFCURVE",
"362 -15 CURVE SMOOTH"
);
},
{
closed = 1;
nodes = (
"245 125 OFFCURVE",
"191 210 OFFCURVE",
"221 349 CURVE SMOOTH",
"250 486 OFFCURVE",
"364 572 OFFCURVE",
"487 572 CURVE SMOOTH",
"632 572 OFFCURVE",
"686 486 OFFCURVE",
"657 349 CURVE SMOOTH",
"627 210 OFFCURVE",
"511 125 OFFCURVE",
"392 125 CURVE SMOOTH"
);
},
{
closed = 1;
nodes = (
"411 900 OFFCURVE",
"372 888 OFFCURVE",
"341 857 CURVE",
"317 742 LINE",
"356 780 OFFCURVE",
"393 793 OFFCURVE",
"431 793 CURVE SMOOTH",
"495 793 OFFCURVE",
"540 743 OFFCURVE",
"613 743 CURVE SMOOTH",
"656 743 OFFCURVE",
"693 754 OFFCURVE",
"723 785 CURVE",
"747 900 LINE",
"711 863 OFFCURVE",
"675 850 OFFCURVE",
"636 850 CURVE SMOOTH",
"571 850 OFFCURVE",
"521 900 OFFCURVE",
"453 900 CURVE SMOOTH"
);
}
);
width = 810;
}
);
leftKerningGroup = O;
note = Ohorntilde;
rightKerningGroup = O;
unicode = 1EE0;
},
{
glyphname = Ohungarumlaut;
lastChange = "2015-10-28 14:45:03 +0000";
layers = (
{
layerId = "C917F9CB-DEFA-4BDD-B24E-8B4296F56613";
name = "SemiBold Italic";
paths = (
{
closed = 1;
nodes = (
"245 125 OFFCURVE",
"191 210 OFFCURVE",
"221 349 CURVE SMOOTH",
"250 486 OFFCURVE",
"364 572 OFFCURVE",
"487 572 CURVE SMOOTH",
"632 572 OFFCURVE",
"686 486 OFFCURVE",
"657 349 CURVE SMOOTH",
"627 210 OFFCURVE",
"511 125 OFFCURVE",
"392 125 CURVE SMOOTH"
);
},
{
closed = 1;
nodes = (
"591 -15 OFFCURVE",
"765 131 OFFCURVE",
"812 349 CURVE SMOOTH",
"858 568 OFFCURVE",
"727 714 OFFCURVE",
"517 714 CURVE SMOOTH",
"292 714 OFFCURVE",
"112 568 OFFCURVE",
"66 349 CURVE SMOOTH",
"19 131 OFFCURVE",
"151 -15 OFFCURVE",
"362 -15 CURVE SMOOTH"
);
},
{
closed = 1;
nodes = (
"436 742 LINE",
"562 918 LINE",
"416 918 LINE",
"310 742 LINE"
);
},
{
closed = 1;
nodes = (
"674 742 LINE",
"799 918 LINE",
"653 918 LINE",
"547 742 LINE"
);
}
);
width = 810;
}
);
leftKerningGroup = O;
note = Ohungarumlaut;
rightKerningGroup = O;
unicode = 0150;
},
{
glyphname = Omacron;
lastChange = "2015-10-28 14:45:04 +0000";
layers = (
{
layerId = "C917F9CB-DEFA-4BDD-B24E-8B4296F56613";
name = "SemiBold Italic";
paths = (
{
closed = 1;
nodes = (
"245 125 OFFCURVE",
"191 210 OFFCURVE",
"221 349 CURVE SMOOTH",
"250 486 OFFCURVE",
"364 572 OFFCURVE",
"487 572 CURVE SMOOTH",
"632 572 OFFCURVE",
"686 486 OFFCURVE",
"657 349 CURVE SMOOTH",
"627 210 OFFCURVE",
"511 125 OFFCURVE",
"392 125 CURVE SMOOTH"
);
},
{
closed = 1;
nodes = (
"591 -15 OFFCURVE",
"765 131 OFFCURVE",
"812 349 CURVE SMOOTH",
"858 568 OFFCURVE",
"727 714 OFFCURVE",
"517 714 CURVE SMOOTH",
"292 714 OFFCURVE",
"112 568 OFFCURVE",
"66 349 CURVE SMOOTH",
"19 131 OFFCURVE",
"151 -15 OFFCURVE",
"362 -15 CURVE SMOOTH"
);
},
{
closed = 1;
nodes = (
"671 752 LINE",
"691 850 LINE",
"358 850 LINE",
"338 752 LINE"
);
}
);
width = 810;
}
);
leftKerningGroup = O;
note = Omacron;
rightKerningGroup = O;
unicode = 014C;
},
{
glyphname = Oslash;
lastChange = "2015-10-28 14:45:03 +0000";
layers = (
{
layerId = "C917F9CB-DEFA-4BDD-B24E-8B4296F56613";
name = "SemiBold Italic";
paths = (
{
closed = 1;
nodes = (
"591 -15 OFFCURVE",
"765 131 OFFCURVE",
"812 349 CURVE SMOOTH",
"842 495 OFFCURVE",
"795 608 OFFCURVE",
"697 668 CURVE",
"768 784 LINE",
"645 784 LINE",
"597 706 LINE",
"572 711 OFFCURVE",
"545 714 OFFCURVE",
"517 714 CURVE SMOOTH",
"292 714 OFFCURVE",
"112 568 OFFCURVE",
"66 349 CURVE SMOOTH",
"34 203 OFFCURVE",
"83 90 OFFCURVE",
"181 30 CURVE",
"110 -86 LINE",
"233 -86 LINE",
"281 -7 LINE",
"307 -12 OFFCURVE",
"333 -15 OFFCURVE",
"362 -15 CURVE SMOOTH"
);
},
{
closed = 1;
nodes = (
"250 486 OFFCURVE",
"364 572 OFFCURVE",
"487 572 CURVE SMOOTH",
"496 572 OFFCURVE",
"505 571 OFFCURVE",
"514 571 CURVE",
"262 161 LINE",
"215 199 OFFCURVE",
"202 264 OFFCURVE",
"221 349 CURVE SMOOTH"
);
},
{
closed = 1;
nodes = (
"382 125 OFFCURVE",
"372 125 OFFCURVE",
"363 126 CURVE",
"615 535 LINE",
"661 497 OFFCURVE",
"674 433 OFFCURVE",
"657 349 CURVE SMOOTH",
"627 210 OFFCURVE",
"511 125 OFFCURVE",
"392 125 CURVE SMOOTH"
);
}
);
width = 810;
}
);
leftKerningGroup = O;
note = Oslash;
rightKerningGroup = O;
unicode = 00D8;
},
{
glyphname = Oslashacute;
lastChange = "2015-10-28 14:45:03 +0000";
layers = (
{
layerId = "C917F9CB-DEFA-4BDD-B24E-8B4296F56613";
name = "SemiBold Italic";
paths = (
{
closed = 1;
nodes = (
"591 -15 OFFCURVE",
"765 131 OFFCURVE",
"812 349 CURVE SMOOTH",
"842 495 OFFCURVE",
"795 608 OFFCURVE",
"697 668 CURVE",
"768 784 LINE",
"645 784 LINE",
"597 706 LINE",
"572 711 OFFCURVE",
"545 714 OFFCURVE",
"517 714 CURVE SMOOTH",
"292 714 OFFCURVE",
"112 568 OFFCURVE",
"66 349 CURVE SMOOTH",
"34 203 OFFCURVE",
"83 90 OFFCURVE",
"181 30 CURVE",
"110 -86 LINE",
"233 -86 LINE",
"281 -7 LINE",
"307 -12 OFFCURVE",
"333 -15 OFFCURVE",
"362 -15 CURVE SMOOTH"
);
},
{
closed = 1;
nodes = (
"250 486 OFFCURVE",
"364 572 OFFCURVE",
"487 572 CURVE SMOOTH",
"496 572 OFFCURVE",
"505 571 OFFCURVE",
"514 571 CURVE",
"262 161 LINE",
"215 199 OFFCURVE",
"202 264 OFFCURVE",
"221 349 CURVE SMOOTH"
);
},
{
closed = 1;
nodes = (
"382 125 OFFCURVE",
"372 125 OFFCURVE",
"363 126 CURVE",
"615 535 LINE",
"661 497 OFFCURVE",
"674 433 OFFCURVE",
"657 349 CURVE SMOOTH",
"627 210 OFFCURVE",
"511 125 OFFCURVE",
"392 125 CURVE SMOOTH"
);
},
{
closed = 1;
nodes = (
"564 742 LINE",
"690 918 LINE",
"531 918 LINE",
"425 742 LINE"
);
}
);
width = 810;
}
);
leftKerningGroup = O;
note = Oslashacute;
rightKerningGroup = O;
unicode = 01FE;
},
{
glyphname = Otilde;
lastChange = "2015-10-28 14:45:03 +0000";
layers = (
{
layerId = "C917F9CB-DEFA-4BDD-B24E-8B4296F56613";
name = "SemiBold Italic";
paths = (
{
closed = 1;
nodes = (
"245 125 OFFCURVE",
"191 210 OFFCURVE",
"221 349 CURVE SMOOTH",
"250 486 OFFCURVE",
"364 572 OFFCURVE",
"487 572 CURVE SMOOTH",
"632 572 OFFCURVE",
"686 486 OFFCURVE",
"657 349 CURVE SMOOTH",
"627 210 OFFCURVE",
"511 125 OFFCURVE",
"392 125 CURVE SMOOTH"
);
},
{
closed = 1;
nodes = (
"591 -15 OFFCURVE",
"765 131 OFFCURVE",
"812 349 CURVE SMOOTH",
"858 568 OFFCURVE",
"727 714 OFFCURVE",
"517 714 CURVE SMOOTH",
"292 714 OFFCURVE",
"112 568 OFFCURVE",
"66 349 CURVE SMOOTH",
"19 131 OFFCURVE",
"151 -15 OFFCURVE",
"362 -15 CURVE SMOOTH"
);
},
{
closed = 1;
nodes = (
"398 900 OFFCURVE",
"359 888 OFFCURVE",
"328 857 CURVE",
"304 742 LINE",
"343 780 OFFCURVE",
"380 793 OFFCURVE",
"418 793 CURVE SMOOTH",
"482 793 OFFCURVE",
"527 743 OFFCURVE",
"600 743 CURVE SMOOTH",
"643 743 OFFCURVE",
"680 754 OFFCURVE",
"710 785 CURVE",
"734 900 LINE",
"698 863 OFFCURVE",
"662 850 OFFCURVE",
"623 850 CURVE SMOOTH",
"558 850 OFFCURVE",
"508 900 OFFCURVE",
"440 900 CURVE SMOOTH"
);
}
);
width = 810;
}
);
leftKerningGroup = O;
note = Otilde;
rightKerningGroup = O;
unicode = 00D5;
},
{
glyphname = OE;
lastChange = "2015-10-28 14:45:02 +0000";
layers = (
{
layerId = "C917F9CB-DEFA-4BDD-B24E-8B4296F56613";
name = "SemiBold Italic";
paths = (
{
closed = 1;
nodes = (
"649 572 LINE",
"940 572 LINE",
"967 699 LINE",
"531 699 LINE SMOOTH",
"306 699 OFFCURVE",
"112 568 OFFCURVE",
"66 349 CURVE SMOOTH",
"19 131 OFFCURVE",
"158 0 OFFCURVE",
"383 0 CURVE SMOOTH",
"819 0 LINE",
"845 127 LINE",
"554 127 LINE",
"589 288 LINE",
"792 288 LINE",
"818 410 LINE",
"615 410 LINE"
);
},
{
closed = 1;
nodes = (
"251 491 OFFCURVE",
"361 572 OFFCURVE",
"497 572 CURVE",
"402 127 LINE",
"266 127 OFFCURVE",
"190 206 OFFCURVE",
"221 349 CURVE SMOOTH"
);
}
);
width = 891;
}
);
leftKerningGroup = O;
note = OE;
rightKerningGroup = E;
unicode = 0152;
},
{
glyphname = P;
lastChange = "2015-10-28 14:45:03 +0000";
layers = (
{
layerId = "C917F9CB-DEFA-4BDD-B24E-8B4296F56613";
name = "SemiBold Italic";
paths = (
{
closed = 1;
nodes = (
"354 227 LINE SMOOTH",
"528 227 OFFCURVE",
"633 308 OFFCURVE",
"665 463 CURVE SMOOTH",
"694 604 OFFCURVE",
"601 699 OFFCURVE",
"454 699 CURVE SMOOTH",
"160 699 LINE",
"12 0 LINE",
"164 0 LINE",
"212 227 LINE"
);
},
{
closed = 1;
nodes = (
"239 354 LINE",
"285 572 LINE",
"405 572 LINE SMOOTH",
"488 572 OFFCURVE",
"529 550 OFFCURVE",
"511 463 CURVE SMOOTH",
"493 378 OFFCURVE",
"444 354 OFFCURVE",
"359 354 CURVE SMOOTH"
);
}
);
width = 625;
}
);
note = P;
unicode = 0050;
},
{
glyphname = Thorn;
lastChange = "2015-10-28 14:45:03 +0000";
layers = (
{
layerId = "C917F9CB-DEFA-4BDD-B24E-8B4296F56613";
name = "SemiBold Italic";
paths = (
{
closed = 1;
nodes = (
"338 124 LINE SMOOTH",
"504 124 OFFCURVE",
"611 195 OFFCURVE",
"641 351 CURVE SMOOTH",
"669 495 OFFCURVE",
"579 579 OFFCURVE",
"435 579 CURVE SMOOTH",
"287 579 LINE",
"312 699 LINE",
"160 699 LINE",
"12 0 LINE",
"164 0 LINE",
"190 124 LINE"
);
},
{
closed = 1;
nodes = (
"217 251 LINE",
"260 452 LINE",
"395 452 LINE SMOOTH",
"466 452 OFFCURVE",
"505 435 OFFCURVE",
"487 351 CURVE SMOOTH",
"469 268 OFFCURVE",
"408 251 OFFCURVE",
"337 251 CURVE SMOOTH"
);
}
);
width = 625;
}
);
note = Thorn;
unicode = 00DE;
},
{
glyphname = Q;
lastChange = "2015-10-28 14:45:04 +0000";
layers = (
{
layerId = "C917F9CB-DEFA-4BDD-B24E-8B4296F56613";
name = "SemiBold Italic";
paths = (
{
closed = 1;
nodes = (
"859 570 OFFCURVE",
"727 714 OFFCURVE",
"517 714 CURVE SMOOTH",
"306 714 OFFCURVE",
"113 570 OFFCURVE",
"66 351 CURVE SMOOTH",
"20 135 OFFCURVE",
"141 0 OFFCURVE",
"385 0 CURVE SMOOTH",
"753 0 LINE",
"779 124 LINE",
"657 124 LINE",
"727 172 OFFCURVE",
"793 261 OFFCURVE",
"812 351 CURVE SMOOTH"
);
},
{
closed = 1;
nodes = (
"256 133 OFFCURVE",
"191 211 OFFCURVE",
"221 350 CURVE SMOOTH",
"250 487 OFFCURVE",
"364 572 OFFCURVE",
"487 572 CURVE SMOOTH",
"642 572 OFFCURVE",
"686 487 OFFCURVE",
"657 350 CURVE SMOOTH",
"628 212 OFFCURVE",
"519 133 OFFCURVE",
"394 133 CURVE SMOOTH"
);
}
);
width = 808;
}
);
leftKerningGroup = O;
note = Q;
rightKerningGroup = O;
unicode = 0051;
},
{
glyphname = R;
lastChange = "2015-10-28 14:45:04 +0000";
layers = (
{
layerId = "C917F9CB-DEFA-4BDD-B24E-8B4296F56613";
name = "SemiBold Italic";
paths = (
{
closed = 1;
nodes = (
"164 0 LINE",
"214 237 LINE",
"333 237 LINE",
"406 0 LINE",
"562 0 LINE",
"483 256 LINE",
"578 289 OFFCURVE",
"644 364 OFFCURVE",
"666 468 CURVE SMOOTH",
"698 619 OFFCURVE",
"606 699 OFFCURVE",
"463 699 CURVE SMOOTH",
"160 699 LINE",
"12 0 LINE"
);
},
{
closed = 1;
nodes = (
"409 572 LINE SMOOTH",
"494 572 OFFCURVE",
"529 550 OFFCURVE",
"512 468 CURVE SMOOTH",
"496 393 OFFCURVE",
"452 364 OFFCURVE",
"365 364 CURVE SMOOTH",
"241 364 LINE",
"285 572 LINE"
);
}
);
width = 640;
}
);
note = R;
rightKerningGroup = R;
unicode = 0052;
},
{
glyphname = Racute;
lastChange = "2015-10-28 14:45:03 +0000";
layers = (
{
layerId = "C917F9CB-DEFA-4BDD-B24E-8B4296F56613";
name = "SemiBold Italic";
paths = (
{
closed = 1;
nodes = (
"12 0 LINE",
"160 699 LINE",
"463 699 LINE SMOOTH",
"606 699 OFFCURVE",
"698 619 OFFCURVE",
"666 468 CURVE SMOOTH",
"644 364 OFFCURVE",
"578 289 OFFCURVE",
"483 256 CURVE",
"562 0 LINE",
"406 0 LINE",
"333 237 LINE",
"214 237 LINE",
"164 0 LINE"
);
},
{
closed = 1;
nodes = (
"285 572 LINE",
"241 364 LINE",
"365 364 LINE SMOOTH",
"452 364 OFFCURVE",
"496 393 OFFCURVE",
"512 468 CURVE SMOOTH",
"529 550 OFFCURVE",
"494 572 OFFCURVE",
"409 572 CURVE SMOOTH"
);
},
{
closed = 1;
nodes = (
"446 742 LINE",
"572 918 LINE",
"413 918 LINE",
"307 742 LINE"
);
}
);
width = 640;
}
);
note = Racute;
rightKerningGroup = R;
unicode = 0154;
},
{
glyphname = Rcaron;
lastChange = "2015-10-28 14:45:03 +0000";
layers = (
{
layerId = "C917F9CB-DEFA-4BDD-B24E-8B4296F56613";
name = "SemiBold Italic";
paths = (
{
closed = 1;
nodes = (
"12 0 LINE",
"160 699 LINE",
"463 699 LINE SMOOTH",
"606 699 OFFCURVE",
"698 619 OFFCURVE",
"666 468 CURVE SMOOTH",
"644 364 OFFCURVE",
"578 289 OFFCURVE",
"483 256 CURVE",
"562 0 LINE",
"406 0 LINE",
"333 237 LINE",
"214 237 LINE",
"164 0 LINE"
);
},
{
closed = 1;
nodes = (
"285 572 LINE",
"241 364 LINE",
"365 364 LINE SMOOTH",
"452 364 OFFCURVE",
"496 393 OFFCURVE",
"512 468 CURVE SMOOTH",
"529 550 OFFCURVE",
"494 572 OFFCURVE",
"409 572 CURVE SMOOTH"
);
},
{
closed = 1;
nodes = (
"323 742 LINE",
"458 742 LINE",
"646 918 LINE",
"496 918 LINE",
"409 826 LINE",
"360 918 LINE",
"210 918 LINE"
);
}
);
width = 640;
}
);
note = Rcaron;
rightKerningGroup = R;
unicode = 0158;
},
{
glyphname = Rcommaaccent;
lastChange = "2015-10-28 14:45:04 +0000";
layers = (
{
layerId = "C917F9CB-DEFA-4BDD-B24E-8B4296F56613";
name = "SemiBold Italic";
paths = (
{
closed = 1;
nodes = (
"164 0 LINE",
"214 237 LINE",
"333 237 LINE",
"406 0 LINE",
"562 0 LINE",
"483 256 LINE",
"578 289 OFFCURVE",
"644 364 OFFCURVE",
"666 468 CURVE SMOOTH",
"698 619 OFFCURVE",
"606 699 OFFCURVE",
"463 699 CURVE SMOOTH",
"160 699 LINE",
"12 0 LINE"
);
},
{
closed = 1;
nodes = (
"409 572 LINE SMOOTH",
"494 572 OFFCURVE",
"529 550 OFFCURVE",
"512 468 CURVE SMOOTH",
"496 393 OFFCURVE",
"452 364 OFFCURVE",
"365 364 CURVE SMOOTH",
"241 364 LINE",
"285 572 LINE"
);
},
{
closed = 1;
nodes = (
"197 -260 LINE",
"342 -53 LINE",
"186 -53 LINE",
"60 -260 LINE"
);
}
);
width = 640;
}
);
note = Rcommaaccent;
rightKerningGroup = R;
unicode = 0156;
},
{
glyphname = Rdotbelow;
lastChange = "2015-10-28 14:45:02 +0000";
layers = (
{
layerId = "C917F9CB-DEFA-4BDD-B24E-8B4296F56613";
name = "SemiBold Italic";
paths = (
{
closed = 1;
nodes = (
"164 0 LINE",
"214 237 LINE",
"333 237 LINE",
"406 0 LINE",
"562 0 LINE",
"483 256 LINE",
"578 289 OFFCURVE",
"644 364 OFFCURVE",
"666 468 CURVE SMOOTH",
"698 619 OFFCURVE",
"606 699 OFFCURVE",
"463 699 CURVE SMOOTH",
"160 699 LINE",
"12 0 LINE"
);
},
{
closed = 1;
nodes = (
"409 572 LINE SMOOTH",
"494 572 OFFCURVE",
"529 550 OFFCURVE",
"512 468 CURVE SMOOTH",
"496 393 OFFCURVE",
"452 364 OFFCURVE",
"365 364 CURVE SMOOTH",
"241 364 LINE",
"285 572 LINE"
);
},
{
closed = 1;
nodes = (
"169 -158 OFFCURVE",
"196 -190 OFFCURVE",
"235 -190 CURVE SMOOTH",
"274 -190 OFFCURVE",
"312 -158 OFFCURVE",
"320 -118 CURVE SMOOTH",
"329 -78 OFFCURVE",
"304 -46 OFFCURVE",
"266 -46 CURVE SMOOTH",
"227 -46 OFFCURVE",
"186 -78 OFFCURVE",
"177 -118 CURVE SMOOTH"
);
}
);
width = 640;
}
);
note = Rdotbelow;
rightKerningGroup = R;
unicode = 1E5A;
},
{
glyphname = Rdotbelowmacron;
lastChange = "2015-10-28 14:45:03 +0000";
layers = (
{
layerId = "C917F9CB-DEFA-4BDD-B24E-8B4296F56613";
name = "SemiBold Italic";
paths = (
{
closed = 1;
nodes = (
"12 0 LINE",
"160 699 LINE",
"463 699 LINE SMOOTH",
"606 699 OFFCURVE",
"698 619 OFFCURVE",
"666 468 CURVE SMOOTH",
"644 364 OFFCURVE",
"578 289 OFFCURVE",
"483 256 CURVE",
"562 0 LINE",
"406 0 LINE",
"333 237 LINE",
"214 237 LINE",
"164 0 LINE"
);
},
{
closed = 1;
nodes = (
"285 572 LINE",
"241 364 LINE",
"365 364 LINE SMOOTH",
"452 364 OFFCURVE",
"496 393 OFFCURVE",
"512 468 CURVE SMOOTH",
"529 550 OFFCURVE",
"494 572 OFFCURVE",
"409 572 CURVE SMOOTH"
);
},
{
closed = 1;
nodes = (
"561 752 LINE",
"581 850 LINE",
"248 850 LINE",
"228 752 LINE"
);
},
{
closed = 1;
nodes = (
"150 -158 OFFCURVE",
"177 -190 OFFCURVE",
"216 -190 CURVE SMOOTH",
"255 -190 OFFCURVE",
"293 -158 OFFCURVE",
"301 -118 CURVE SMOOTH",
"310 -78 OFFCURVE",
"285 -46 OFFCURVE",
"247 -46 CURVE SMOOTH",
"208 -46 OFFCURVE",
"167 -78 OFFCURVE",
"158 -118 CURVE SMOOTH"
);
}
);
width = 640;
}
);
note = Rdotbelowmacron;
rightKerningGroup = R;
unicode = 1E5C;
},
{
glyphname = Rlinebelow;
lastChange = "2015-10-28 14:45:03 +0000";
layers = (
{
layerId = "C917F9CB-DEFA-4BDD-B24E-8B4296F56613";
name = "SemiBold Italic";
paths = (
{
closed = 1;
nodes = (
"164 0 LINE",
"214 237 LINE",
"333 237 LINE",
"406 0 LINE",
"562 0 LINE",
"483 256 LINE",
"578 289 OFFCURVE",
"644 364 OFFCURVE",
"666 468 CURVE SMOOTH",
"698 619 OFFCURVE",
"606 699 OFFCURVE",
"463 699 CURVE SMOOTH",
"160 699 LINE",
"12 0 LINE"
);
},
{
closed = 1;
nodes = (
"409 572 LINE SMOOTH",
"494 572 OFFCURVE",
"529 550 OFFCURVE",
"512 468 CURVE SMOOTH",
"496 393 OFFCURVE",
"452 364 OFFCURVE",
"365 364 CURVE SMOOTH",
"241 364 LINE",
"285 572 LINE"
);
},
{
closed = 1;
nodes = (
"405 -162 LINE",
"426 -64 LINE",
"93 -64 LINE",
"72 -162 LINE"
);
}
);
width = 640;
}
);
note = Rlinebelow;
rightKerningGroup = R;
unicode = 1E5E;
},
{
glyphname = S;
lastChange = "2015-10-28 14:45:02 +0000";
layers = (
{
layerId = "C917F9CB-DEFA-4BDD-B24E-8B4296F56613";
name = "SemiBold Italic";
paths = (
{
closed = 1;
nodes = (
"558 298 OFFCURVE",
"513 345 OFFCURVE",
"391 401 CURVE SMOOTH",
"302 440 OFFCURVE",
"258 458 OFFCURVE",
"269 512 CURVE SMOOTH",
"280 560 OFFCURVE",
"331 587 OFFCURVE",
"405 587 CURVE SMOOTH",
"464 587 OFFCURVE",
"520 572 OFFCURVE",
"572 543 CURVE",
"600 673 LINE",
"546 701 OFFCURVE",
"487 714 OFFCURVE",
"404 714 CURVE SMOOTH",
"251 714 OFFCURVE",
"131 633 OFFCURVE",
"106 514 CURVE SMOOTH",
"85 415 OFFCURVE",
"129 355 OFFCURVE",
"247 302 CURVE SMOOTH",
"339 261 OFFCURVE",
"380 241 OFFCURVE",
"368 187 CURVE SMOOTH",
"358 140 OFFCURVE",
"312 111 OFFCURVE",
"234 111 CURVE SMOOTH",
"166 111 OFFCURVE",
"91 128 OFFCURVE",
"26 163 CURVE",
"-2 29 LINE",
"46 2 OFFCURVE",
"134 -15 OFFCURVE",
"218 -15 CURVE SMOOTH",
"404 -15 OFFCURVE",
"508 62 OFFCURVE",
"534 186 CURVE SMOOTH"
);
}
);
width = 568;
}
);
leftKerningGroup = S;
note = S;
rightKerningGroup = S;
unicode = 0053;
},
{
glyphname = Sacute;
lastChange = "2015-10-28 14:45:03 +0000";
layers = (
{
layerId = "C917F9CB-DEFA-4BDD-B24E-8B4296F56613";
name = "SemiBold Italic";
paths = (
{
closed = 1;
nodes = (
"508 62 OFFCURVE",
"404 -15 OFFCURVE",
"218 -15 CURVE SMOOTH",
"134 -15 OFFCURVE",
"46 2 OFFCURVE",
"-2 29 CURVE",
"26 163 LINE",
"91 128 OFFCURVE",
"166 111 OFFCURVE",
"234 111 CURVE SMOOTH",
"312 111 OFFCURVE",
"358 140 OFFCURVE",
"368 187 CURVE SMOOTH",
"380 241 OFFCURVE",
"339 261 OFFCURVE",
"247 302 CURVE SMOOTH",
"129 355 OFFCURVE",
"85 415 OFFCURVE",
"106 514 CURVE SMOOTH",
"131 633 OFFCURVE",
"251 714 OFFCURVE",
"404 714 CURVE SMOOTH",
"487 714 OFFCURVE",
"546 701 OFFCURVE",
"600 673 CURVE",
"572 543 LINE",
"520 572 OFFCURVE",
"464 587 OFFCURVE",
"405 587 CURVE SMOOTH",
"331 587 OFFCURVE",
"280 560 OFFCURVE",
"269 512 CURVE SMOOTH",
"258 458 OFFCURVE",
"302 440 OFFCURVE",
"391 401 CURVE SMOOTH",
"513 345 OFFCURVE",
"558 298 OFFCURVE",
"534 186 CURVE SMOOTH"
);
},
{
closed = 1;
nodes = (
"449 742 LINE",
"575 918 LINE",
"416 918 LINE",
"310 742 LINE"
);
}
);
width = 568;
}
);
leftKerningGroup = S;
note = Sacute;
rightKerningGroup = S;
unicode = 015A;
},
{
glyphname = Scaron;
lastChange = "2015-10-28 14:45:02 +0000";
layers = (
{
layerId = "C917F9CB-DEFA-4BDD-B24E-8B4296F56613";
name = "SemiBold Italic";
paths = (
{
closed = 1;
nodes = (
"508 62 OFFCURVE",
"404 -15 OFFCURVE",
"218 -15 CURVE SMOOTH",
"134 -15 OFFCURVE",
"46 2 OFFCURVE",
"-2 29 CURVE",
"26 163 LINE",
"91 128 OFFCURVE",
"166 111 OFFCURVE",
"234 111 CURVE SMOOTH",
"312 111 OFFCURVE",
"358 140 OFFCURVE",
"368 187 CURVE SMOOTH",
"380 241 OFFCURVE",
"339 261 OFFCURVE",
"247 302 CURVE SMOOTH",
"129 355 OFFCURVE",
"85 415 OFFCURVE",
"106 514 CURVE SMOOTH",
"131 633 OFFCURVE",
"251 714 OFFCURVE",
"404 714 CURVE SMOOTH",
"487 714 OFFCURVE",
"546 701 OFFCURVE",
"600 673 CURVE",
"572 543 LINE",
"520 572 OFFCURVE",
"464 587 OFFCURVE",
"405 587 CURVE SMOOTH",
"331 587 OFFCURVE",
"280 560 OFFCURVE",
"269 512 CURVE SMOOTH",
"258 458 OFFCURVE",
"302 440 OFFCURVE",
"391 401 CURVE SMOOTH",
"513 345 OFFCURVE",
"558 298 OFFCURVE",
"534 186 CURVE SMOOTH"
);
},
{
closed = 1;
nodes = (
"322 742 LINE",
"457 742 LINE",
"645 918 LINE",
"495 918 LINE",
"408 826 LINE",
"359 918 LINE",
"209 918 LINE"
);
}
);
width = 568;
}
);
leftKerningGroup = S;
note = Scaron;
rightKerningGroup = S;
unicode = 0160;
},
{
glyphname = Scedilla;
lastChange = "2015-10-28 14:45:04 +0000";
layers = (
{
layerId = "C917F9CB-DEFA-4BDD-B24E-8B4296F56613";
name = "SemiBold Italic";
paths = (
{
closed = 1;
nodes = (
"347 -94 OFFCURVE",
"323 -57 OFFCURVE",
"269 -49 CURVE",
"292 -10 LINE",
"432 8 OFFCURVE",
"511 79 OFFCURVE",
"534 186 CURVE SMOOTH",
"558 298 OFFCURVE",
"513 345 OFFCURVE",
"391 401 CURVE SMOOTH",
"302 440 OFFCURVE",
"258 458 OFFCURVE",
"269 512 CURVE SMOOTH",
"280 560 OFFCURVE",
"331 587 OFFCURVE",
"405 587 CURVE SMOOTH",
"464 587 OFFCURVE",
"520 572 OFFCURVE",
"572 543 CURVE",
"600 673 LINE",
"546 701 OFFCURVE",
"487 714 OFFCURVE",
"404 714 CURVE SMOOTH",
"251 714 OFFCURVE",
"131 633 OFFCURVE",
"106 514 CURVE SMOOTH",
"85 415 OFFCURVE",
"129 355 OFFCURVE",
"247 302 CURVE SMOOTH",
"339 261 OFFCURVE",
"380 241 OFFCURVE",
"368 187 CURVE SMOOTH",
"358 140 OFFCURVE",
"312 111 OFFCURVE",
"234 111 CURVE SMOOTH",
"166 111 OFFCURVE",
"91 128 OFFCURVE",
"26 163 CURVE",
"-2 29 LINE",
"34 8 OFFCURVE",
"94 -6 OFFCURVE",
"157 -12 CURVE",
"113 -87 LINE",
"187 -87 OFFCURVE",
"208 -107 OFFCURVE",
"202 -134 CURVE SMOOTH",
"197 -158 OFFCURVE",
"175 -171 OFFCURVE",
"139 -171 CURVE SMOOTH",
"118 -171 OFFCURVE",
"95 -166 OFFCURVE",
"83 -158 CURVE",
"66 -235 LINE",
"84 -243 OFFCURVE",
"124 -248 OFFCURVE",
"165 -248 CURVE SMOOTH",
"256 -248 OFFCURVE",
"324 -214 OFFCURVE",
"337 -146 CURVE SMOOTH"
);
}
);
width = 568;
}
);
leftKerningGroup = S;
note = Scedilla;
rightKerningGroup = S;
unicode = 015E;
},
{
glyphname = Scircumflex;
lastChange = "2015-10-28 14:45:02 +0000";
layers = (
{
layerId = "C917F9CB-DEFA-4BDD-B24E-8B4296F56613";
name = "SemiBold Italic";
paths = (
{
closed = 1;
nodes = (
"508 62 OFFCURVE",
"404 -15 OFFCURVE",
"218 -15 CURVE SMOOTH",
"134 -15 OFFCURVE",
"46 2 OFFCURVE",
"-2 29 CURVE",
"26 163 LINE",
"91 128 OFFCURVE",
"166 111 OFFCURVE",
"234 111 CURVE SMOOTH",
"312 111 OFFCURVE",
"358 140 OFFCURVE",
"368 187 CURVE SMOOTH",
"380 241 OFFCURVE",
"339 261 OFFCURVE",
"247 302 CURVE SMOOTH",
"129 355 OFFCURVE",
"85 415 OFFCURVE",
"106 514 CURVE SMOOTH",
"131 633 OFFCURVE",
"251 714 OFFCURVE",
"404 714 CURVE SMOOTH",
"487 714 OFFCURVE",
"546 701 OFFCURVE",
"600 673 CURVE",
"572 543 LINE",
"520 572 OFFCURVE",
"464 587 OFFCURVE",
"405 587 CURVE SMOOTH",
"331 587 OFFCURVE",
"280 560 OFFCURVE",
"269 512 CURVE SMOOTH",
"258 458 OFFCURVE",
"302 440 OFFCURVE",
"391 401 CURVE SMOOTH",
"513 345 OFFCURVE",
"558 298 OFFCURVE",
"534 186 CURVE SMOOTH"
);
},
{
closed = 1;
nodes = (
"485 918 LINE",
"350 918 LINE",
"163 742 LINE",
"313 742 LINE",
"401 834 LINE",
"449 742 LINE",
"599 742 LINE"
);
}
);
width = 568;
}
);
leftKerningGroup = S;
note = Scircumflex;
rightKerningGroup = S;
unicode = 015C;
},
{
glyphname = Scommaaccent;
lastChange = "2015-10-28 14:45:03 +0000";
layers = (
{
layerId = "C917F9CB-DEFA-4BDD-B24E-8B4296F56613";
name = "SemiBold Italic";
paths = (
{
closed = 1;
nodes = (
"558 298 OFFCURVE",
"513 345 OFFCURVE",
"391 401 CURVE SMOOTH",
"302 440 OFFCURVE",
"258 458 OFFCURVE",
"269 512 CURVE SMOOTH",
"280 560 OFFCURVE",
"331 587 OFFCURVE",
"405 587 CURVE SMOOTH",
"464 587 OFFCURVE",
"520 572 OFFCURVE",
"572 543 CURVE",
"600 673 LINE",
"546 701 OFFCURVE",
"487 714 OFFCURVE",
"404 714 CURVE SMOOTH",
"251 714 OFFCURVE",
"131 633 OFFCURVE",
"106 514 CURVE SMOOTH",
"85 415 OFFCURVE",
"129 355 OFFCURVE",
"247 302 CURVE SMOOTH",
"339 261 OFFCURVE",
"380 241 OFFCURVE",
"368 187 CURVE SMOOTH",
"358 140 OFFCURVE",
"312 111 OFFCURVE",
"234 111 CURVE SMOOTH",
"166 111 OFFCURVE",
"91 128 OFFCURVE",
"26 163 CURVE",
"-2 29 LINE",
"46 2 OFFCURVE",
"134 -15 OFFCURVE",
"218 -15 CURVE SMOOTH",
"404 -15 OFFCURVE",
"508 62 OFFCURVE",
"534 186 CURVE SMOOTH"
);
},
{
closed = 1;
nodes = (
"163 -259 LINE",
"307 -53 LINE",
"152 -53 LINE",
"25 -259 LINE"
);
}
);
width = 568;
}
);
leftKerningGroup = S;
note = Scommaaccent;
rightKerningGroup = S;
unicode = 0218;
},
{
glyphname = Sdotaccent;
lastChange = "2015-10-28 14:45:04 +0000";
layers = (
{
layerId = "C917F9CB-DEFA-4BDD-B24E-8B4296F56613";
name = "SemiBold Italic";
paths = (
{
closed = 1;
nodes = (
"508 62 OFFCURVE",
"404 -15 OFFCURVE",
"218 -15 CURVE SMOOTH",
"134 -15 OFFCURVE",
"46 2 OFFCURVE",
"-2 29 CURVE",
"26 163 LINE",
"91 128 OFFCURVE",
"166 111 OFFCURVE",
"234 111 CURVE SMOOTH",
"312 111 OFFCURVE",
"358 140 OFFCURVE",
"368 187 CURVE SMOOTH",
"380 241 OFFCURVE",
"339 261 OFFCURVE",
"247 302 CURVE SMOOTH",
"129 355 OFFCURVE",
"85 415 OFFCURVE",
"106 514 CURVE SMOOTH",
"131 633 OFFCURVE",
"251 714 OFFCURVE",
"404 714 CURVE SMOOTH",
"487 714 OFFCURVE",
"546 701 OFFCURVE",
"600 673 CURVE",
"572 543 LINE",
"520 572 OFFCURVE",
"464 587 OFFCURVE",
"405 587 CURVE SMOOTH",
"331 587 OFFCURVE",
"280 560 OFFCURVE",
"269 512 CURVE SMOOTH",
"258 458 OFFCURVE",
"302 440 OFFCURVE",
"391 401 CURVE SMOOTH",
"513 345 OFFCURVE",
"558 298 OFFCURVE",
"534 186 CURVE SMOOTH"
);
},
{
closed = 1;
nodes = (
"327 783 OFFCURVE",
"355 752 OFFCURVE",
"394 752 CURVE SMOOTH",
"433 752 OFFCURVE",
"471 783 OFFCURVE",
"480 823 CURVE SMOOTH",
"488 863 OFFCURVE",
"463 895 OFFCURVE",
"424 895 CURVE SMOOTH",
"385 895 OFFCURVE",
"344 863 OFFCURVE",
"336 823 CURVE SMOOTH"
);
}
);
width = 568;
}
);
leftKerningGroup = S;
note = Sdotaccent;
rightKerningGroup = S;
unicode = 1E60;
},
{
glyphname = Sdotbelow;
lastChange = "2015-10-28 14:45:03 +0000";
layers = (
{
layerId = "C917F9CB-DEFA-4BDD-B24E-8B4296F56613";
name = "SemiBold Italic";
paths = (
{
closed = 1;
nodes = (
"558 298 OFFCURVE",
"513 345 OFFCURVE",
"391 401 CURVE SMOOTH",
"302 440 OFFCURVE",
"258 458 OFFCURVE",
"269 512 CURVE SMOOTH",
"280 560 OFFCURVE",
"331 587 OFFCURVE",
"405 587 CURVE SMOOTH",
"464 587 OFFCURVE",
"520 572 OFFCURVE",
"572 543 CURVE",
"600 673 LINE",
"546 701 OFFCURVE",
"487 714 OFFCURVE",
"404 714 CURVE SMOOTH",
"251 714 OFFCURVE",
"131 633 OFFCURVE",
"106 514 CURVE SMOOTH",
"85 415 OFFCURVE",
"129 355 OFFCURVE",
"247 302 CURVE SMOOTH",
"339 261 OFFCURVE",
"380 241 OFFCURVE",
"368 187 CURVE SMOOTH",
"358 140 OFFCURVE",
"312 111 OFFCURVE",
"234 111 CURVE SMOOTH",
"166 111 OFFCURVE",
"91 128 OFFCURVE",
"26 163 CURVE",
"-2 29 LINE",
"46 2 OFFCURVE",
"134 -15 OFFCURVE",
"218 -15 CURVE SMOOTH",
"404 -15 OFFCURVE",
"508 62 OFFCURVE",
"534 186 CURVE SMOOTH"
);
},
{
closed = 1;
nodes = (
"131 -158 OFFCURVE",
"158 -190 OFFCURVE",
"197 -190 CURVE SMOOTH",
"236 -190 OFFCURVE",
"274 -158 OFFCURVE",
"282 -118 CURVE SMOOTH",
"291 -78 OFFCURVE",
"266 -46 OFFCURVE",
"228 -46 CURVE SMOOTH",
"189 -46 OFFCURVE",
"148 -78 OFFCURVE",
"139 -118 CURVE SMOOTH"
);
}
);
width = 568;
}
);
leftKerningGroup = S;
note = Sdotbelow;
rightKerningGroup = S;
unicode = 1E62;
},
{
glyphname = Germandbls;
lastChange = "2015-10-28 14:45:03 +0000";
layers = (
{
layerId = "C917F9CB-DEFA-4BDD-B24E-8B4296F56613";
name = "SemiBold Italic";
paths = (
{
closed = 1;
nodes = (
"292 114 OFFCURVE",
"262 120 OFFCURVE",
"240 135 CURVE",
"212 3 LINE",
"241 -10 OFFCURVE",
"289 -15 OFFCURVE",
"336 -15 CURVE SMOOTH",
"480 -15 OFFCURVE",
"586 69 OFFCURVE",
"613 197 CURVE SMOOTH",
"635 300 OFFCURVE",
"606 366 OFFCURVE",
"506 388 CURVE",
"632 497 LINE",
"642 603 OFFCURVE",
"587 714 OFFCURVE",
"417 714 CURVE SMOOTH",
"232 714 OFFCURVE",
"137 616 OFFCURVE",
"103 456 CURVE SMOOTH",
"7 0 LINE",
"158 0 LINE",
"257 467 LINE SMOOTH",
"273 544 OFFCURVE",
"319 584 OFFCURVE",
"390 584 CURVE SMOOTH",
"446 584 OFFCURVE",
"472 552 OFFCURVE",
"472 514 CURVE",
"323 385 LINE",
"306 305 LINE",
"356 305 LINE SMOOTH",
"432 305 OFFCURVE",
"478 280 OFFCURVE",
"463 208 CURVE SMOOTH",
"449 145 OFFCURVE",
"412 114 OFFCURVE",
"327 114 CURVE SMOOTH"
);
}
);
width = 645;
}
);
note = uni1E9E;
unicode = 1E9E;
},
{
glyphname = Schwa;
lastChange = "2015-10-28 14:45:03 +0000";
layers = (
{
layerId = "C917F9CB-DEFA-4BDD-B24E-8B4296F56613";
name = "SemiBold Italic";
paths = (
{
closed = 1;
nodes = (
"234 110 OFFCURVE",
"198 187 OFFCURVE",
"213 291 CURVE",
"637 291 LINE",
"607 187 OFFCURVE",
"527 110 OFFCURVE",
"388 110 CURVE SMOOTH"
);
},
{
closed = 1;
nodes = (
"78 405 LINE",
"63 337 LINE SMOOTH",
"21 139 OFFCURVE",
"136 -15 OFFCURVE",
"365 -15 CURVE SMOOTH",
"638 -15 OFFCURVE",
"779 130 OFFCURVE",
"825 351 CURVE SMOOTH",
"871 572 OFFCURVE",
"732 714 OFFCURVE",
"485 714 CURVE SMOOTH",
"377 714 OFFCURVE",
"267 693 OFFCURVE",
"196 666 CURVE",
"170 542 LINE",
"242 569 OFFCURVE",
"345 586 OFFCURVE",
"433 586 CURVE SMOOTH",
"625 586 OFFCURVE",
"668 516 OFFCURVE",
"661 405 CURVE"
);
}
);
width = 823;
}
);
note = uni018F;
unicode = 018F;
},
{
glyphname = T;
lastChange = "2015-10-28 14:45:03 +0000";
layers = (
{
layerId = "C917F9CB-DEFA-4BDD-B24E-8B4296F56613";
name = "SemiBold Italic";
paths = (
{
closed = 1;
nodes = (
"123 699 LINE",
"96 572 LINE",
"300 572 LINE",
"179 0 LINE",
"331 0 LINE",
"452 572 LINE",
"656 572 LINE",
"683 699 LINE"
);
}
);
width = 590;
}
);
leftKerningGroup = T;
note = T;
rightKerningGroup = T;
unicode = 0054;
},
{
glyphname = Tbar;
lastChange = "2015-10-28 14:45:03 +0000";
layers = (
{
layerId = "C917F9CB-DEFA-4BDD-B24E-8B4296F56613";
name = "SemiBold Italic";
paths = (
{
closed = 1;
nodes = (
"123 699 LINE",
"95 565 LINE",
"295 565 LINE",
"258 393 LINE",
"147 393 LINE",
"120 266 LINE",
"231 266 LINE",
"175 0 LINE",
"334 0 LINE",
"390 266 LINE",
"504 266 LINE",
"531 393 LINE",
"417 393 LINE",
"454 565 LINE",
"655 565 LINE",
"683 699 LINE"
);
}
);
width = 590;
}
);
leftKerningGroup = T;
note = Tbar;
rightKerningGroup = T;
unicode = 0166;
},
{
glyphname = Tcaron;
lastChange = "2015-10-28 14:45:03 +0000";
layers = (
{
layerId = "C917F9CB-DEFA-4BDD-B24E-8B4296F56613";
name = "SemiBold Italic";
paths = (
{
closed = 1;
nodes = (
"123 699 LINE",
"96 572 LINE",
"300 572 LINE",
"179 0 LINE",
"331 0 LINE",
"452 572 LINE",
"656 572 LINE",
"683 699 LINE"
);
},
{
closed = 1;
nodes = (
"325 742 LINE",
"460 742 LINE",
"648 918 LINE",
"498 918 LINE",
"411 826 LINE",
"362 918 LINE",
"212 918 LINE"
);
}
);
width = 590;
}
);
leftKerningGroup = T;
note = Tcaron;
rightKerningGroup = T;
unicode = 0164;
},
{
glyphname = Tcedilla;
lastChange = "2015-10-28 14:45:02 +0000";
layers = (
{
layerId = "C917F9CB-DEFA-4BDD-B24E-8B4296F56613";
name = "SemiBold Italic";
paths = (
{
closed = 1;
nodes = (
"371 -94 OFFCURVE",
"347 -57 OFFCURVE",
"293 -49 CURVE",
"323 0 LINE",
"331 0 LINE",
"452 572 LINE",
"656 572 LINE",
"683 699 LINE",
"123 699 LINE",
"96 572 LINE",
"300 572 LINE",
"179 0 LINE",
"189 0 LINE",
"137 -87 LINE",
"211 -87 OFFCURVE",
"232 -107 OFFCURVE",
"226 -134 CURVE SMOOTH",
"221 -158 OFFCURVE",
"199 -171 OFFCURVE",
"163 -171 CURVE SMOOTH",
"142 -171 OFFCURVE",
"119 -166 OFFCURVE",
"107 -158 CURVE",
"90 -235 LINE",
"108 -243 OFFCURVE",
"148 -248 OFFCURVE",
"189 -248 CURVE SMOOTH",
"280 -248 OFFCURVE",
"348 -214 OFFCURVE",
"361 -146 CURVE SMOOTH"
);
}
);
width = 590;
}
);
leftKerningGroup = T;
note = Tcedilla;
rightKerningGroup = T;
unicode = 0162;
},
{
glyphname = Tcommaaccent;
lastChange = "2015-10-28 14:45:04 +0000";
layers = (
{
layerId = "C917F9CB-DEFA-4BDD-B24E-8B4296F56613";
name = "SemiBold Italic";
paths = (
{
closed = 1;
nodes = (
"123 699 LINE",
"96 572 LINE",
"300 572 LINE",
"179 0 LINE",
"331 0 LINE",
"452 572 LINE",
"656 572 LINE",
"683 699 LINE"
);
},
{
closed = 1;
nodes = (
"172 -260 LINE",
"317 -53 LINE",
"161 -53 LINE",
"35 -260 LINE"
);
}
);
width = 590;
}
);
leftKerningGroup = T;
note = Tcommaaccent;
rightKerningGroup = T;
unicode = 021A;
},
{
glyphname = Tdotbelow;
lastChange = "2015-10-28 14:45:03 +0000";
layers = (
{
layerId = "C917F9CB-DEFA-4BDD-B24E-8B4296F56613";
name = "SemiBold Italic";
paths = (
{
closed = 1;
nodes = (
"123 699 LINE",
"96 572 LINE",
"300 572 LINE",
"179 0 LINE",
"331 0 LINE",
"452 572 LINE",
"656 572 LINE",
"683 699 LINE"
);
},
{
closed = 1;
nodes = (
"150 -158 OFFCURVE",
"177 -190 OFFCURVE",
"216 -190 CURVE SMOOTH",
"255 -190 OFFCURVE",
"293 -158 OFFCURVE",
"301 -118 CURVE SMOOTH",
"310 -78 OFFCURVE",
"285 -46 OFFCURVE",
"247 -46 CURVE SMOOTH",
"208 -46 OFFCURVE",
"167 -78 OFFCURVE",
"158 -118 CURVE SMOOTH"
);
}
);
width = 590;
}
);
leftKerningGroup = T;
note = Tdotbelow;
rightKerningGroup = T;
unicode = 1E6C;
},
{
glyphname = Tlinebelow;
lastChange = "2015-10-28 14:45:04 +0000";
layers = (
{
layerId = "C917F9CB-DEFA-4BDD-B24E-8B4296F56613";
name = "SemiBold Italic";
paths = (
{
closed = 1;
nodes = (
"123 699 LINE",
"96 572 LINE",
"300 572 LINE",
"179 0 LINE",
"331 0 LINE",
"452 572 LINE",
"656 572 LINE",
"683 699 LINE"
);
},
{
closed = 1;
nodes = (
"387 -162 LINE",
"408 -64 LINE",
"75 -64 LINE",
"54 -162 LINE"
);
}
);
width = 590;
}
);
leftKerningGroup = T;
note = Tlinebelow;
rightKerningGroup = T;
unicode = 1E6E;
},
{
glyphname = U;
lastChange = "2015-10-28 14:45:04 +0000";
layers = (
{
layerId = "C917F9CB-DEFA-4BDD-B24E-8B4296F56613";
name = "SemiBold Italic";
paths = (
{
closed = 1;
nodes = (
"225 124 OFFCURVE",
"196 176 OFFCURVE",
"218 280 CURVE SMOOTH",
"307 699 LINE",
"155 699 LINE",
"66 282 LINE SMOOTH",
"31 117 OFFCURVE",
"115 -15 OFFCURVE",
"312 -15 CURVE SMOOTH",
"541 -15 OFFCURVE",
"642 93 OFFCURVE",
"682 282 CURVE SMOOTH",
"771 699 LINE",
"619 699 LINE",
"530 280 LINE SMOOTH",
"508 176 OFFCURVE",
"435 124 OFFCURVE",
"342 124 CURVE SMOOTH"
);
}
);
width = 711;
}
);
leftKerningGroup = U;
note = U;
rightKerningGroup = U;
unicode = 0055;
},
{
glyphname = Uacute;
lastChange = "2015-10-28 14:45:04 +0000";
layers = (
{
layerId = "C917F9CB-DEFA-4BDD-B24E-8B4296F56613";
name = "SemiBold Italic";
paths = (
{
closed = 1;
nodes = (
"435 124 OFFCURVE",
"508 176 OFFCURVE",
"530 280 CURVE SMOOTH",
"619 699 LINE",
"771 699 LINE",
"682 282 LINE SMOOTH",
"642 93 OFFCURVE",
"541 -15 OFFCURVE",
"312 -15 CURVE SMOOTH",
"115 -15 OFFCURVE",
"31 117 OFFCURVE",
"66 282 CURVE SMOOTH",
"155 699 LINE",
"307 699 LINE",
"218 280 LINE SMOOTH",
"196 176 OFFCURVE",
"225 124 OFFCURVE",
"342 124 CURVE SMOOTH"
);
},
{
closed = 1;
nodes = (
"522 742 LINE",
"648 918 LINE",
"489 918 LINE",
"383 742 LINE"
);
}
);
width = 711;
}
);
leftKerningGroup = U;
note = Uacute;
rightKerningGroup = U;
unicode = 00DA;
},
{
glyphname = Ubreve;
lastChange = "2015-10-28 14:45:03 +0000";
layers = (
{
layerId = "C917F9CB-DEFA-4BDD-B24E-8B4296F56613";
name = "SemiBold Italic";
paths = (
{
closed = 1;
nodes = (
"225 124 OFFCURVE",
"196 176 OFFCURVE",
"218 280 CURVE SMOOTH",
"307 699 LINE",
"155 699 LINE",
"66 282 LINE SMOOTH",
"31 117 OFFCURVE",
"115 -15 OFFCURVE",
"312 -15 CURVE SMOOTH",
"541 -15 OFFCURVE",
"642 93 OFFCURVE",
"682 282 CURVE SMOOTH",
"771 699 LINE",
"619 699 LINE",
"530 280 LINE SMOOTH",
"508 176 OFFCURVE",
"435 124 OFFCURVE",
"342 124 CURVE SMOOTH"
);
},
{
closed = 1;
nodes = (
"434 840 OFFCURVE",
"418 862 OFFCURVE",
"427 904 CURVE",
"315 904 LINE",
"294 807 OFFCURVE",
"342 742 OFFCURVE",
"451 742 CURVE SMOOTH",
"560 742 OFFCURVE",
"637 807 OFFCURVE",
"658 904 CURVE",
"545 904 LINE",
"536 862 OFFCURVE",
"509 840 OFFCURVE",
"472 840 CURVE SMOOTH"
);
}
);
width = 711;
}
);
leftKerningGroup = U;
note = Ubreve;
rightKerningGroup = U;
unicode = 016C;
},
{
glyphname = Ucaron;
lastChange = "2015-10-28 14:45:04 +0000";
layers = (
{
layerId = "C917F9CB-DEFA-4BDD-B24E-8B4296F56613";
name = "SemiBold Italic";
paths = (
{
closed = 1;
nodes = (
"435 124 OFFCURVE",
"508 176 OFFCURVE",
"530 280 CURVE SMOOTH",
"619 699 LINE",
"771 699 LINE",
"682 282 LINE SMOOTH",
"642 93 OFFCURVE",
"541 -15 OFFCURVE",
"312 -15 CURVE SMOOTH",
"115 -15 OFFCURVE",
"31 117 OFFCURVE",
"66 282 CURVE SMOOTH",
"155 699 LINE",
"307 699 LINE",
"218 280 LINE SMOOTH",
"196 176 OFFCURVE",
"225 124 OFFCURVE",
"342 124 CURVE SMOOTH"
);
},
{
closed = 1;
nodes = (
"385 742 LINE",
"520 742 LINE",
"708 918 LINE",
"558 918 LINE",
"471 826 LINE",
"422 918 LINE",
"272 918 LINE"
);
}
);
width = 711;
}
);
leftKerningGroup = U;
note = Ucaron;
rightKerningGroup = U;
unicode = 01D3;
},
{
glyphname = Ucircumflex;
lastChange = "2015-10-28 14:45:03 +0000";
layers = (
{
layerId = "C917F9CB-DEFA-4BDD-B24E-8B4296F56613";
name = "SemiBold Italic";
paths = (
{
closed = 1;
nodes = (
"435 124 OFFCURVE",
"508 176 OFFCURVE",
"530 280 CURVE SMOOTH",
"619 699 LINE",
"771 699 LINE",
"682 282 LINE SMOOTH",
"642 93 OFFCURVE",
"541 -15 OFFCURVE",
"312 -15 CURVE SMOOTH",
"115 -15 OFFCURVE",
"31 117 OFFCURVE",
"66 282 CURVE SMOOTH",
"155 699 LINE",
"307 699 LINE",
"218 280 LINE SMOOTH",
"196 176 OFFCURVE",
"225 124 OFFCURVE",
"342 124 CURVE SMOOTH"
);
},
{
closed = 1;
nodes = (
"557 918 LINE",
"422 918 LINE",
"235 742 LINE",
"385 742 LINE",
"473 834 LINE",
"521 742 LINE",
"671 742 LINE"
);
}
);
width = 711;
}
);
leftKerningGroup = U;
note = Ucircumflex;
rightKerningGroup = U;
unicode = 00DB;
},
{
glyphname = Udieresis;
lastChange = "2015-10-28 14:45:03 +0000";
layers = (
{
layerId = "C917F9CB-DEFA-4BDD-B24E-8B4296F56613";
name = "SemiBold Italic";
paths = (
{
closed = 1;
nodes = (
"435 124 OFFCURVE",
"508 176 OFFCURVE",
"530 280 CURVE SMOOTH",
"619 699 LINE",
"771 699 LINE",
"682 282 LINE SMOOTH",
"642 93 OFFCURVE",
"541 -15 OFFCURVE",
"312 -15 CURVE SMOOTH",
"115 -15 OFFCURVE",
"31 117 OFFCURVE",
"66 282 CURVE SMOOTH",
"155 699 LINE",
"307 699 LINE",
"218 280 LINE SMOOTH",
"196 176 OFFCURVE",
"225 124 OFFCURVE",
"342 124 CURVE SMOOTH"
);
},
{
closed = 1;
nodes = (
"271 783 OFFCURVE",
"298 752 OFFCURVE",
"336 752 CURVE SMOOTH",
"375 752 OFFCURVE",
"413 783 OFFCURVE",
"422 823 CURVE SMOOTH",
"430 863 OFFCURVE",
"405 895 OFFCURVE",
"366 895 CURVE SMOOTH",
"328 895 OFFCURVE",
"288 863 OFFCURVE",
"280 823 CURVE SMOOTH"
);
},
{
closed = 1;
nodes = (
"506 783 OFFCURVE",
"534 752 OFFCURVE",
"573 752 CURVE SMOOTH",
"611 752 OFFCURVE",
"650 783 OFFCURVE",
"659 823 CURVE SMOOTH",
"667 863 OFFCURVE",
"641 895 OFFCURVE",
"603 895 CURVE SMOOTH",
"564 895 OFFCURVE",
"523 863 OFFCURVE",
"515 823 CURVE SMOOTH"
);
}
);
width = 711;
}
);
leftKerningGroup = U;
note = Udieresis;
rightKerningGroup = U;
unicode = 00DC;
},
{
glyphname = Udieresisacute;
lastChange = "2015-10-28 14:45:02 +0000";
layers = (
{
layerId = "C917F9CB-DEFA-4BDD-B24E-8B4296F56613";
name = "SemiBold Italic";
paths = (
{
closed = 1;
nodes = (
"435 124 OFFCURVE",
"508 176 OFFCURVE",
"530 280 CURVE SMOOTH",
"619 699 LINE",
"771 699 LINE",
"682 282 LINE SMOOTH",
"642 93 OFFCURVE",
"541 -15 OFFCURVE",
"312 -15 CURVE SMOOTH",
"115 -15 OFFCURVE",
"31 117 OFFCURVE",
"66 282 CURVE SMOOTH",
"155 699 LINE",
"307 699 LINE",
"218 280 LINE SMOOTH",
"196 176 OFFCURVE",
"225 124 OFFCURVE",
"342 124 CURVE SMOOTH"
);
},
{
closed = 1;
nodes = (
"296 783 OFFCURVE",
"323 752 OFFCURVE",
"362 752 CURVE SMOOTH",
"401 752 OFFCURVE",
"439 783 OFFCURVE",
"448 823 CURVE SMOOTH",
"456 863 OFFCURVE",
"431 895 OFFCURVE",
"392 895 CURVE SMOOTH",
"353 895 OFFCURVE",
"313 863 OFFCURVE",
"305 823 CURVE SMOOTH"
);
},
{
closed = 1;
nodes = (
"531 783 OFFCURVE",
"559 752 OFFCURVE",
"598 752 CURVE SMOOTH",
"636 752 OFFCURVE",
"675 783 OFFCURVE",
"684 823 CURVE SMOOTH",
"692 863 OFFCURVE",
"666 895 OFFCURVE",
"628 895 CURVE SMOOTH",
"589 895 OFFCURVE",
"548 863 OFFCURVE",
"540 823 CURVE SMOOTH"
);
},
{
closed = 1;
nodes = (
"560 888 LINE",
"656 1005 LINE",
"522 1005 LINE",
"451 888 LINE"
);
}
);
width = 711;
}
);
leftKerningGroup = U;
note = Udieresisacute;
rightKerningGroup = U;
unicode = 01D7;
},
{
glyphname = Udieresiscaron;
lastChange = "2015-10-28 14:45:04 +0000";
layers = (
{
layerId = "C917F9CB-DEFA-4BDD-B24E-8B4296F56613";
name = "SemiBold Italic";
paths = (
{
closed = 1;
nodes = (
"435 124 OFFCURVE",
"508 176 OFFCURVE",
"530 280 CURVE SMOOTH",
"619 699 LINE",
"771 699 LINE",
"682 282 LINE SMOOTH",
"642 93 OFFCURVE",
"541 -15 OFFCURVE",
"312 -15 CURVE SMOOTH",
"115 -15 OFFCURVE",
"31 117 OFFCURVE",
"66 282 CURVE SMOOTH",
"155 699 LINE",
"307 699 LINE",
"218 280 LINE SMOOTH",
"196 176 OFFCURVE",
"225 124 OFFCURVE",
"342 124 CURVE SMOOTH"
);
},
{
closed = 1;
nodes = (
"689 863 OFFCURVE",
"663 895 OFFCURVE",
"624 895 CURVE SMOOTH",
"585 895 OFFCURVE",
"546 863 OFFCURVE",
"538 823 CURVE SMOOTH",
"529 783 OFFCURVE",
"555 752 OFFCURVE",
"594 752 CURVE SMOOTH",
"633 752 OFFCURVE",
"672 783 OFFCURVE",
"681 823 CURVE SMOOTH"
);
},
{
closed = 1;
nodes = (
"454 863 OFFCURVE",
"427 895 OFFCURVE",
"388 895 CURVE SMOOTH",
"350 895 OFFCURVE",
"310 863 OFFCURVE",
"302 823 CURVE SMOOTH",
"293 783 OFFCURVE",
"320 752 OFFCURVE",
"358 752 CURVE SMOOTH",
"397 752 OFFCURVE",
"437 783 OFFCURVE",
"446 823 CURVE SMOOTH"
);
},
{
closed = 1;
nodes = (
"704 1014 LINE",
"571 1014 LINE",
"519 958 LINE",
"492 1014 LINE",
"359 1014 LINE",
"449 889 LINE",
"563 889 LINE"
);
}
);
width = 711;
}
);
leftKerningGroup = U;
note = Udieresiscaron;
rightKerningGroup = U;
unicode = 01D9;
},
{
glyphname = Udieresisgrave;
lastChange = "2015-10-28 14:45:04 +0000";
layers = (
{
layerId = "C917F9CB-DEFA-4BDD-B24E-8B4296F56613";
name = "SemiBold Italic";
paths = (
{
closed = 1;
nodes = (
"435 124 OFFCURVE",
"508 176 OFFCURVE",
"530 280 CURVE SMOOTH",
"619 699 LINE",
"771 699 LINE",
"682 282 LINE SMOOTH",
"642 93 OFFCURVE",
"541 -15 OFFCURVE",
"312 -15 CURVE SMOOTH",
"115 -15 OFFCURVE",
"31 117 OFFCURVE",
"66 282 CURVE SMOOTH",
"155 699 LINE",
"307 699 LINE",
"218 280 LINE SMOOTH",
"196 176 OFFCURVE",
"225 124 OFFCURVE",
"342 124 CURVE SMOOTH"
);
},
{
closed = 1;
nodes = (
"693 863 OFFCURVE",
"667 895 OFFCURVE",
"628 895 CURVE SMOOTH",
"589 895 OFFCURVE",
"550 863 OFFCURVE",
"542 823 CURVE SMOOTH",
"533 783 OFFCURVE",
"559 752 OFFCURVE",
"598 752 CURVE SMOOTH",
"637 752 OFFCURVE",
"676 783 OFFCURVE",
"685 823 CURVE SMOOTH"
);
},
{
closed = 1;
nodes = (
"458 863 OFFCURVE",
"431 895 OFFCURVE",
"392 895 CURVE SMOOTH",
"354 895 OFFCURVE",
"314 863 OFFCURVE",
"306 823 CURVE SMOOTH",
"297 783 OFFCURVE",
"324 752 OFFCURVE",
"362 752 CURVE SMOOTH",
"401 752 OFFCURVE",
"441 783 OFFCURVE",
"450 823 CURVE SMOOTH"
);
},
{
closed = 1;
nodes = (
"565 888 LINE",
"543 1005 LINE",
"410 1005 LINE",
"456 888 LINE"
);
}
);
width = 711;
}
);
leftKerningGroup = U;
note = Udieresisgrave;
rightKerningGroup = U;
unicode = 01DB;
},
{
glyphname = Udieresismacron;
lastChange = "2015-10-28 14:45:03 +0000";
layers = (
{
layerId = "C917F9CB-DEFA-4BDD-B24E-8B4296F56613";
name = "SemiBold Italic";
paths = (
{
closed = 1;
nodes = (
"435 124 OFFCURVE",
"508 176 OFFCURVE",
"530 280 CURVE SMOOTH",
"619 699 LINE",
"771 699 LINE",
"682 282 LINE SMOOTH",
"642 93 OFFCURVE",
"541 -15 OFFCURVE",
"312 -15 CURVE SMOOTH",
"115 -15 OFFCURVE",
"31 117 OFFCURVE",
"66 282 CURVE SMOOTH",
"155 699 LINE",
"307 699 LINE",
"218 280 LINE SMOOTH",
"196 176 OFFCURVE",
"225 124 OFFCURVE",
"342 124 CURVE SMOOTH"
);
},
{
closed = 1;
nodes = (
"660 934 LINE",
"680 1032 LINE",
"347 1032 LINE",
"327 934 LINE"
);
},
{
closed = 1;
nodes = (
"271 783 OFFCURVE",
"298 752 OFFCURVE",
"336 752 CURVE SMOOTH",
"375 752 OFFCURVE",
"413 783 OFFCURVE",
"422 823 CURVE SMOOTH",
"430 863 OFFCURVE",
"405 895 OFFCURVE",
"366 895 CURVE SMOOTH",
"328 895 OFFCURVE",
"288 863 OFFCURVE",
"280 823 CURVE SMOOTH"
);
},
{
closed = 1;
nodes = (
"506 783 OFFCURVE",
"534 752 OFFCURVE",
"573 752 CURVE SMOOTH",
"611 752 OFFCURVE",
"650 783 OFFCURVE",
"659 823 CURVE SMOOTH",
"667 863 OFFCURVE",
"641 895 OFFCURVE",
"603 895 CURVE SMOOTH",
"564 895 OFFCURVE",
"523 863 OFFCURVE",
"515 823 CURVE SMOOTH"
);
}
);
width = 711;
}
);
leftKerningGroup = U;
note = Udieresismacron;
rightKerningGroup = U;
unicode = 01D5;
},
{
glyphname = Udotbelow;
lastChange = "2015-10-28 14:45:02 +0000";
layers = (
{
layerId = "C917F9CB-DEFA-4BDD-B24E-8B4296F56613";
name = "SemiBold Italic";
paths = (
{
closed = 1;
nodes = (
"225 124 OFFCURVE",
"196 176 OFFCURVE",
"218 280 CURVE SMOOTH",
"307 699 LINE",
"155 699 LINE",
"66 282 LINE SMOOTH",
"31 117 OFFCURVE",
"115 -15 OFFCURVE",
"312 -15 CURVE SMOOTH",
"541 -15 OFFCURVE",
"642 93 OFFCURVE",
"682 282 CURVE SMOOTH",
"771 699 LINE",
"619 699 LINE",
"530 280 LINE SMOOTH",
"508 176 OFFCURVE",
"435 124 OFFCURVE",
"342 124 CURVE SMOOTH"
);
},
{
closed = 1;
nodes = (
"210 -158 OFFCURVE",
"237 -190 OFFCURVE",
"276 -190 CURVE SMOOTH",
"315 -190 OFFCURVE",
"353 -158 OFFCURVE",
"361 -118 CURVE SMOOTH",
"370 -78 OFFCURVE",
"345 -46 OFFCURVE",
"307 -46 CURVE SMOOTH",
"268 -46 OFFCURVE",
"227 -78 OFFCURVE",
"218 -118 CURVE SMOOTH"
);
}
);
width = 711;
}
);
leftKerningGroup = U;
note = Udotbelow;
rightKerningGroup = U;
unicode = 1EE4;
},
{
glyphname = Ugrave;
lastChange = "2015-10-28 14:45:03 +0000";
layers = (
{
layerId = "C917F9CB-DEFA-4BDD-B24E-8B4296F56613";
name = "SemiBold Italic";
paths = (
{
closed = 1;
nodes = (
"435 124 OFFCURVE",
"508 176 OFFCURVE",
"530 280 CURVE SMOOTH",
"619 699 LINE",
"771 699 LINE",
"682 282 LINE SMOOTH",
"642 93 OFFCURVE",
"541 -15 OFFCURVE",
"312 -15 CURVE SMOOTH",
"115 -15 OFFCURVE",
"31 117 OFFCURVE",
"66 282 CURVE SMOOTH",
"155 699 LINE",
"307 699 LINE",
"218 280 LINE SMOOTH",
"196 176 OFFCURVE",
"225 124 OFFCURVE",
"342 124 CURVE SMOOTH"
);
},
{
closed = 1;
nodes = (
"535 742 LINE",
"503 918 LINE",
"344 918 LINE",
"395 742 LINE"
);
}
);
width = 711;
}
);
leftKerningGroup = U;
note = Ugrave;
rightKerningGroup = U;
unicode = 00D9;
},
{
glyphname = Uhookabove;
lastChange = "2015-10-28 14:45:02 +0000";
layers = (
{
layerId = "C917F9CB-DEFA-4BDD-B24E-8B4296F56613";
name = "SemiBold Italic";
paths = (
{
closed = 1;
nodes = (
"435 124 OFFCURVE",
"508 176 OFFCURVE",
"530 280 CURVE SMOOTH",
"619 699 LINE",
"771 699 LINE",
"682 282 LINE SMOOTH",
"642 93 OFFCURVE",
"541 -15 OFFCURVE",
"312 -15 CURVE SMOOTH",
"115 -15 OFFCURVE",
"31 117 OFFCURVE",
"66 282 CURVE SMOOTH",
"155 699 LINE",
"307 699 LINE",
"218 280 LINE SMOOTH",
"196 176 OFFCURVE",
"225 124 OFFCURVE",
"342 124 CURVE SMOOTH"
);
},
{
closed = 1;
nodes = (
"645 930 OFFCURVE",
"605 972 OFFCURVE",
"505 972 CURVE SMOOTH",
"467 972 OFFCURVE",
"420 965 OFFCURVE",
"393 957 CURVE",
"377 882 LINE",
"391 888 OFFCURVE",
"425 893 OFFCURVE",
"441 893 CURVE SMOOTH",
"484 893 OFFCURVE",
"499 882 OFFCURVE",
"493 858 CURVE",
"486 824 OFFCURVE",
"451 814 OFFCURVE",
"399 814 CURVE",
"384 742 LINE",
"516 742 LINE",
"522 771 LINE",
"582 783 OFFCURVE",
"622 821 OFFCURVE",
"632 869 CURVE SMOOTH"
);
}
);
width = 711;
}
);
leftKerningGroup = U;
note = Uhookabove;
rightKerningGroup = U;
unicode = 1EE6;
},
{
glyphname = Uhorn;
lastChange = "2015-10-28 14:45:02 +0000";
layers = (
{
layerId = "C917F9CB-DEFA-4BDD-B24E-8B4296F56613";
name = "SemiBold Italic";
paths = (
{
closed = 1;
nodes = (
"225 124 OFFCURVE",
"196 176 OFFCURVE",
"218 280 CURVE SMOOTH",
"307 699 LINE",
"155 699 LINE",
"66 282 LINE SMOOTH",
"31 117 OFFCURVE",
"115 -15 OFFCURVE",
"312 -15 CURVE SMOOTH",
"541 -15 OFFCURVE",
"642 93 OFFCURVE",
"682 282 CURVE SMOOTH",
"732 516 LINE",
"885 516 OFFCURVE",
"964 598 OFFCURVE",
"986 703 CURVE SMOOTH",
"995 747 LINE",
"862 747 LINE",
"855 712 LINE SMOOTH",
"842 651 OFFCURVE",
"822 628 OFFCURVE",
"756 628 CURVE",
"771 699 LINE",
"619 699 LINE",
"530 280 LINE SMOOTH",
"508 176 OFFCURVE",
"435 124 OFFCURVE",
"342 124 CURVE SMOOTH"
);
}
);
width = 884;
}
);
leftKerningGroup = U;
note = Uhorn;
rightKerningGroup = U;
unicode = 01AF;
},
{
glyphname = Uhornacute;
lastChange = "2015-10-28 14:45:03 +0000";
layers = (
{
layerId = "C917F9CB-DEFA-4BDD-B24E-8B4296F56613";
name = "SemiBold Italic";
paths = (
{
closed = 1;
nodes = (
"435 124 OFFCURVE",
"508 176 OFFCURVE",
"530 280 CURVE SMOOTH",
"619 699 LINE",
"771 699 LINE",
"756 628 LINE",
"822 628 OFFCURVE",
"842 651 OFFCURVE",
"855 712 CURVE SMOOTH",
"862 747 LINE",
"995 747 LINE",
"986 703 LINE SMOOTH",
"964 598 OFFCURVE",
"885 516 OFFCURVE",
"732 516 CURVE",
"682 282 LINE SMOOTH",
"642 93 OFFCURVE",
"541 -15 OFFCURVE",
"312 -15 CURVE SMOOTH",
"115 -15 OFFCURVE",
"31 117 OFFCURVE",
"66 282 CURVE SMOOTH",
"155 699 LINE",
"307 699 LINE",
"218 280 LINE SMOOTH",
"196 176 OFFCURVE",
"225 124 OFFCURVE",
"342 124 CURVE SMOOTH"
);
},
{
closed = 1;
nodes = (
"519 742 LINE",
"645 918 LINE",
"486 918 LINE",
"380 742 LINE"
);
}
);
width = 884;
}
);
leftKerningGroup = U;
note = Uhornacute;
rightKerningGroup = U;
unicode = 1EE8;
},
{
glyphname = Uhorndotbelow;
lastChange = "2015-10-28 14:45:04 +0000";
layers = (
{
layerId = "C917F9CB-DEFA-4BDD-B24E-8B4296F56613";
name = "SemiBold Italic";
paths = (
{
closed = 1;
nodes = (
"225 124 OFFCURVE",
"196 176 OFFCURVE",
"218 280 CURVE SMOOTH",
"307 699 LINE",
"155 699 LINE",
"66 282 LINE SMOOTH",
"31 117 OFFCURVE",
"115 -15 OFFCURVE",
"312 -15 CURVE SMOOTH",
"541 -15 OFFCURVE",
"642 93 OFFCURVE",
"682 282 CURVE SMOOTH",
"732 516 LINE",
"885 516 OFFCURVE",
"964 598 OFFCURVE",
"986 703 CURVE SMOOTH",
"995 747 LINE",
"862 747 LINE",
"855 712 LINE SMOOTH",
"842 651 OFFCURVE",
"822 628 OFFCURVE",
"756 628 CURVE",
"771 699 LINE",
"619 699 LINE",
"530 280 LINE SMOOTH",
"508 176 OFFCURVE",
"435 124 OFFCURVE",
"342 124 CURVE SMOOTH"
);
},
{
closed = 1;
nodes = (
"214 -158 OFFCURVE",
"241 -190 OFFCURVE",
"280 -190 CURVE SMOOTH",
"319 -190 OFFCURVE",
"357 -158 OFFCURVE",
"365 -118 CURVE SMOOTH",
"374 -78 OFFCURVE",
"349 -46 OFFCURVE",
"311 -46 CURVE SMOOTH",
"272 -46 OFFCURVE",
"231 -78 OFFCURVE",
"222 -118 CURVE SMOOTH"
);
}
);
width = 884;
}
);
leftKerningGroup = U;
note = Uhorndotbelow;
rightKerningGroup = U;
unicode = 1EF0;
},
{
glyphname = Uhorngrave;
lastChange = "2015-10-28 14:45:04 +0000";
layers = (
{
layerId = "C917F9CB-DEFA-4BDD-B24E-8B4296F56613";
name = "SemiBold Italic";
paths = (
{
closed = 1;
nodes = (
"435 124 OFFCURVE",
"508 176 OFFCURVE",
"530 280 CURVE SMOOTH",
"619 699 LINE",
"771 699 LINE",
"756 628 LINE",
"822 628 OFFCURVE",
"842 651 OFFCURVE",
"855 712 CURVE SMOOTH",
"862 747 LINE",
"995 747 LINE",
"986 703 LINE SMOOTH",
"964 598 OFFCURVE",
"885 516 OFFCURVE",
"732 516 CURVE",
"682 282 LINE SMOOTH",
"642 93 OFFCURVE",
"541 -15 OFFCURVE",
"312 -15 CURVE SMOOTH",
"115 -15 OFFCURVE",
"31 117 OFFCURVE",
"66 282 CURVE SMOOTH",
"155 699 LINE",
"307 699 LINE",
"218 280 LINE SMOOTH",
"196 176 OFFCURVE",
"225 124 OFFCURVE",
"342 124 CURVE SMOOTH"
);
},
{
closed = 1;
nodes = (
"533 742 LINE",
"501 918 LINE",
"342 918 LINE",
"393 742 LINE"
);
}
);
width = 884;
}
);
leftKerningGroup = U;
note = Uhorngrave;
rightKerningGroup = U;
unicode = 1EEA;
},
{
glyphname = Uhornhookabove;
lastChange = "2015-10-28 14:45:03 +0000";
layers = (
{
layerId = "C917F9CB-DEFA-4BDD-B24E-8B4296F56613";
name = "SemiBold Italic";
paths = (
{
closed = 1;
nodes = (
"435 124 OFFCURVE",
"508 176 OFFCURVE",
"530 280 CURVE SMOOTH",
"619 699 LINE",
"771 699 LINE",
"756 628 LINE",
"822 628 OFFCURVE",
"842 651 OFFCURVE",
"855 712 CURVE SMOOTH",
"862 747 LINE",
"995 747 LINE",
"986 703 LINE SMOOTH",
"964 598 OFFCURVE",
"885 516 OFFCURVE",
"732 516 CURVE",
"682 282 LINE SMOOTH",
"642 93 OFFCURVE",
"541 -15 OFFCURVE",
"312 -15 CURVE SMOOTH",
"115 -15 OFFCURVE",
"31 117 OFFCURVE",
"66 282 CURVE SMOOTH",
"155 699 LINE",
"307 699 LINE",
"218 280 LINE SMOOTH",
"196 176 OFFCURVE",
"225 124 OFFCURVE",
"342 124 CURVE SMOOTH"
);
},
{
closed = 1;
nodes = (
"645 930 OFFCURVE",
"605 972 OFFCURVE",
"505 972 CURVE SMOOTH",
"467 972 OFFCURVE",
"420 965 OFFCURVE",
"393 957 CURVE",
"377 882 LINE",
"391 888 OFFCURVE",
"425 893 OFFCURVE",
"441 893 CURVE SMOOTH",
"484 893 OFFCURVE",
"499 882 OFFCURVE",
"493 858 CURVE",
"486 824 OFFCURVE",
"451 814 OFFCURVE",
"399 814 CURVE",
"384 742 LINE",
"516 742 LINE",
"522 771 LINE",
"582 783 OFFCURVE",
"622 821 OFFCURVE",
"632 869 CURVE SMOOTH"
);
}
);
width = 884;
}
);
leftKerningGroup = U;
note = Uhornhookabove;
rightKerningGroup = U;
unicode = 1EEC;
},
{
glyphname = Uhorntilde;
lastChange = "2015-10-28 14:45:03 +0000";
layers = (
{
layerId = "C917F9CB-DEFA-4BDD-B24E-8B4296F56613";
name = "SemiBold Italic";
paths = (
{
closed = 1;
nodes = (
"225 124 OFFCURVE",
"196 176 OFFCURVE",
"218 280 CURVE SMOOTH",
"307 699 LINE",
"155 699 LINE",
"66 282 LINE SMOOTH",
"31 117 OFFCURVE",
"115 -15 OFFCURVE",
"312 -15 CURVE SMOOTH",
"541 -15 OFFCURVE",
"642 93 OFFCURVE",
"682 282 CURVE SMOOTH",
"732 516 LINE",
"885 516 OFFCURVE",
"964 598 OFFCURVE",
"986 703 CURVE SMOOTH",
"995 747 LINE",
"862 747 LINE",
"855 712 LINE SMOOTH",
"842 651 OFFCURVE",
"822 628 OFFCURVE",
"756 628 CURVE",
"771 699 LINE",
"619 699 LINE",
"530 280 LINE SMOOTH",
"508 176 OFFCURVE",
"435 124 OFFCURVE",
"342 124 CURVE SMOOTH"
);
},
{
closed = 1;
nodes = (
"363 900 OFFCURVE",
"324 888 OFFCURVE",
"293 857 CURVE",
"269 742 LINE",
"308 780 OFFCURVE",
"345 793 OFFCURVE",
"383 793 CURVE SMOOTH",
"447 793 OFFCURVE",
"492 743 OFFCURVE",
"565 743 CURVE SMOOTH",
"608 743 OFFCURVE",
"645 754 OFFCURVE",
"675 785 CURVE",
"699 900 LINE",
"663 863 OFFCURVE",
"627 850 OFFCURVE",
"588 850 CURVE SMOOTH",
"523 850 OFFCURVE",
"473 900 OFFCURVE",
"405 900 CURVE SMOOTH"
);
}
);
width = 884;
}
);
leftKerningGroup = U;
note = Uhorntilde;
rightKerningGroup = U;
unicode = 1EEE;
},
{
glyphname = Uhungarumlaut;
lastChange = "2015-10-28 14:45:02 +0000";
layers = (
{
layerId = "C917F9CB-DEFA-4BDD-B24E-8B4296F56613";
name = "SemiBold Italic";
paths = (
{
closed = 1;
nodes = (
"435 124 OFFCURVE",
"508 176 OFFCURVE",
"530 280 CURVE SMOOTH",
"619 699 LINE",
"771 699 LINE",
"682 282 LINE SMOOTH",
"642 93 OFFCURVE",
"541 -15 OFFCURVE",
"312 -15 CURVE SMOOTH",
"115 -15 OFFCURVE",
"31 117 OFFCURVE",
"66 282 CURVE SMOOTH",
"155 699 LINE",
"307 699 LINE",
"218 280 LINE SMOOTH",
"196 176 OFFCURVE",
"225 124 OFFCURVE",
"342 124 CURVE SMOOTH"
);
},
{
closed = 1;
nodes = (
"396 742 LINE",
"522 918 LINE",
"376 918 LINE",
"270 742 LINE"
);
},
{
closed = 1;
nodes = (
"634 742 LINE",
"759 918 LINE",
"613 918 LINE",
"507 742 LINE"
);
}
);
width = 711;
}
);
leftKerningGroup = U;
note = Uhungarumlaut;
rightKerningGroup = U;
unicode = 0170;
},
{
glyphname = Umacron;
lastChange = "2015-10-28 14:45:03 +0000";
layers = (
{
layerId = "C917F9CB-DEFA-4BDD-B24E-8B4296F56613";
name = "SemiBold Italic";
paths = (
{
closed = 1;
nodes = (
"435 124 OFFCURVE",
"508 176 OFFCURVE",
"530 280 CURVE SMOOTH",
"619 699 LINE",
"771 699 LINE",
"682 282 LINE SMOOTH",
"642 93 OFFCURVE",
"541 -15 OFFCURVE",
"312 -15 CURVE SMOOTH",
"115 -15 OFFCURVE",
"31 117 OFFCURVE",
"66 282 CURVE SMOOTH",
"155 699 LINE",
"307 699 LINE",
"218 280 LINE SMOOTH",
"196 176 OFFCURVE",
"225 124 OFFCURVE",
"342 124 CURVE SMOOTH"
);
},
{
closed = 1;
nodes = (
"621 752 LINE",
"641 850 LINE",
"308 850 LINE",
"288 752 LINE"
);
}
);
width = 711;
}
);
leftKerningGroup = U;
note = Umacron;
rightKerningGroup = U;
unicode = 016A;
},
{
glyphname = Uogonek;
lastChange = "2015-10-28 14:45:02 +0000";
layers = (
{
layerId = "C917F9CB-DEFA-4BDD-B24E-8B4296F56613";
name = "SemiBold Italic";
paths = (
{
closed = 1;
nodes = (
"225 124 OFFCURVE",
"196 176 OFFCURVE",
"218 280 CURVE SMOOTH",
"307 699 LINE",
"155 699 LINE",
"66 282 LINE SMOOTH",
"31 117 OFFCURVE",
"115 -15 OFFCURVE",
"312 -15 CURVE SMOOTH",
"541 -15 OFFCURVE",
"642 93 OFFCURVE",
"682 282 CURVE SMOOTH",
"771 699 LINE",
"619 699 LINE",
"530 280 LINE SMOOTH",
"508 176 OFFCURVE",
"435 124 OFFCURVE",
"342 124 CURVE SMOOTH"
);
},
{
closed = 1;
nodes = (
"306 -215 OFFCURVE",
"343 -209 OFFCURVE",
"368 -201 CURVE",
"386 -117 LINE",
"370 -124 OFFCURVE",
"352 -128 OFFCURVE",
"335 -128 CURVE SMOOTH",
"313 -128 OFFCURVE",
"301 -115 OFFCURVE",
"306 -92 CURVE SMOOTH",
"313 -58 OFFCURVE",
"345 -30 OFFCURVE",
"405 0 CURVE",
"267 0 LINE",
"220 -26 OFFCURVE",
"181 -67 OFFCURVE",
"170 -120 CURVE SMOOTH",
"157 -182 OFFCURVE",
"203 -215 OFFCURVE",
"271 -215 CURVE SMOOTH"
);
}
);
width = 711;
}
);
leftKerningGroup = U;
note = Uogonek;
rightKerningGroup = U;
unicode = 0172;
},
{
glyphname = Uring;
lastChange = "2015-10-28 14:45:02 +0000";
layers = (
{
layerId = "C917F9CB-DEFA-4BDD-B24E-8B4296F56613";
name = "SemiBold Italic";
paths = (
{
closed = 1;
nodes = (
"225 124 OFFCURVE",
"196 176 OFFCURVE",
"218 280 CURVE SMOOTH",
"307 699 LINE",
"155 699 LINE",
"66 282 LINE SMOOTH",
"31 117 OFFCURVE",
"115 -15 OFFCURVE",
"312 -15 CURVE SMOOTH",
"541 -15 OFFCURVE",
"642 93 OFFCURVE",
"682 282 CURVE SMOOTH",
"771 699 LINE",
"619 699 LINE",
"530 280 LINE SMOOTH",
"508 176 OFFCURVE",
"435 124 OFFCURVE",
"342 124 CURVE SMOOTH"
);
},
{
closed = 1;
nodes = (
"332 800 OFFCURVE",
"377 742 OFFCURVE",
"451 742 CURVE SMOOTH",
"524 742 OFFCURVE",
"597 800 OFFCURVE",
"613 874 CURVE SMOOTH",
"628 947 OFFCURVE",
"581 1006 OFFCURVE",
"508 1006 CURVE SMOOTH",
"434 1006 OFFCURVE",
"362 947 OFFCURVE",
"347 874 CURVE SMOOTH"
);
},
{
closed = 1;
nodes = (
"436 901 OFFCURVE",
"463 922 OFFCURVE",
"490 922 CURVE SMOOTH",
"517 922 OFFCURVE",
"533 901 OFFCURVE",
"528 874 CURVE",
"522 847 OFFCURVE",
"496 825 OFFCURVE",
"469 825 CURVE SMOOTH",
"442 825 OFFCURVE",
"425 847 OFFCURVE",
"431 874 CURVE"
);
}
);
width = 711;
}
);
leftKerningGroup = U;
note = Uring;
rightKerningGroup = U;
unicode = 016E;
},
{
glyphname = Utilde;
lastChange = "2015-10-28 14:45:04 +0000";
layers = (
{
layerId = "C917F9CB-DEFA-4BDD-B24E-8B4296F56613";
name = "SemiBold Italic";
paths = (
{
closed = 1;
nodes = (
"225 124 OFFCURVE",
"196 176 OFFCURVE",
"218 280 CURVE SMOOTH",
"307 699 LINE",
"155 699 LINE",
"66 282 LINE SMOOTH",
"31 117 OFFCURVE",
"115 -15 OFFCURVE",
"312 -15 CURVE SMOOTH",
"541 -15 OFFCURVE",
"642 93 OFFCURVE",
"682 282 CURVE SMOOTH",
"771 699 LINE",
"619 699 LINE",
"530 280 LINE SMOOTH",
"508 176 OFFCURVE",
"435 124 OFFCURVE",
"342 124 CURVE SMOOTH"
);
},
{
closed = 1;
nodes = (
"350 900 OFFCURVE",
"311 888 OFFCURVE",
"280 857 CURVE",
"256 742 LINE",
"295 780 OFFCURVE",
"332 793 OFFCURVE",
"370 793 CURVE SMOOTH",
"434 793 OFFCURVE",
"479 743 OFFCURVE",
"552 743 CURVE SMOOTH",
"595 743 OFFCURVE",
"632 754 OFFCURVE",
"662 785 CURVE",
"686 900 LINE",
"650 863 OFFCURVE",
"614 850 OFFCURVE",
"575 850 CURVE SMOOTH",
"510 850 OFFCURVE",
"460 900 OFFCURVE",
"392 900 CURVE SMOOTH"
);
}
);
width = 711;
}
);
leftKerningGroup = U;
note = Utilde;
rightKerningGroup = U;
unicode = 0168;
},
{
glyphname = V;
lastChange = "2015-10-28 14:45:03 +0000";
layers = (
{
layerId = "C917F9CB-DEFA-4BDD-B24E-8B4296F56613";
name = "SemiBold Italic";
paths = (
{
closed = 1;
nodes = (
"384 202 LINE",
"298 699 LINE",
"140 699 LINE",
"272 0 LINE",
"421 0 LINE",
"848 699 LINE",
"683 699 LINE"
);
}
);
width = 772;
}
);
note = V;
unicode = 0056;
},
{
glyphname = W;
lastChange = "2015-10-28 14:45:04 +0000";
layers = (
{
layerId = "C917F9CB-DEFA-4BDD-B24E-8B4296F56613";
name = "SemiBold Italic";
paths = (
{
closed = 1;
nodes = (
"688 247 LINE",
"665 699 LINE",
"548 699 LINE",
"329 247 LINE",
"300 699 LINE",
"140 699 LINE",
"188 0 LINE",
"336 0 LINE",
"554 443 LINE",
"585 0 LINE",
"724 0 LINE",
"1068 699 LINE",
"909 699 LINE"
);
}
);
width = 993;
}
);
leftKerningGroup = W;
note = W;
rightKerningGroup = W;
unicode = 0057;
},
{
glyphname = Wacute;
lastChange = "2015-10-28 14:45:03 +0000";
layers = (
{
layerId = "C917F9CB-DEFA-4BDD-B24E-8B4296F56613";
name = "SemiBold Italic";
paths = (
{
closed = 1;
nodes = (
"912 699 LINE",
"1071 699 LINE",
"727 0 LINE",
"588 0 LINE",
"557 443 LINE",
"339 0 LINE",
"191 0 LINE",
"143 699 LINE",
"303 699 LINE",
"332 247 LINE",
"551 699 LINE",
"668 699 LINE",
"691 247 LINE"
);
},
{
closed = 1;
nodes = (
"673 742 LINE",
"799 918 LINE",
"640 918 LINE",
"534 742 LINE"
);
}
);
width = 999;
}
);
leftKerningGroup = W;
note = Wacute;
rightKerningGroup = W;
unicode = 1E82;
},
{
glyphname = Wcircumflex;
lastChange = "2015-10-28 14:45:04 +0000";
layers = (
{
layerId = "C917F9CB-DEFA-4BDD-B24E-8B4296F56613";
name = "SemiBold Italic";
paths = (
{
closed = 1;
nodes = (
"912 699 LINE",
"1071 699 LINE",
"727 0 LINE",
"588 0 LINE",
"557 443 LINE",
"339 0 LINE",
"191 0 LINE",
"143 699 LINE",
"303 699 LINE",
"332 247 LINE",
"551 699 LINE",
"668 699 LINE",
"691 247 LINE"
);
},
{
closed = 1;
nodes = (
"701 918 LINE",
"566 918 LINE",
"379 742 LINE",
"529 742 LINE",
"617 834 LINE",
"665 742 LINE",
"815 742 LINE"
);
}
);
width = 999;
}
);
leftKerningGroup = W;
note = Wcircumflex;
rightKerningGroup = W;
unicode = 0174;
},
{
glyphname = Wdieresis;
lastChange = "2015-10-28 14:45:03 +0000";
layers = (
{
layerId = "C917F9CB-DEFA-4BDD-B24E-8B4296F56613";
name = "SemiBold Italic";
paths = (
{
closed = 1;
nodes = (
"912 699 LINE",
"1071 699 LINE",
"727 0 LINE",
"588 0 LINE",
"557 443 LINE",
"339 0 LINE",
"191 0 LINE",
"143 699 LINE",
"303 699 LINE",
"332 247 LINE",
"551 699 LINE",
"668 699 LINE",
"691 247 LINE"
);
},
{
closed = 1;
nodes = (
"415 783 OFFCURVE",
"442 752 OFFCURVE",
"480 752 CURVE SMOOTH",
"519 752 OFFCURVE",
"557 783 OFFCURVE",
"566 823 CURVE SMOOTH",
"574 863 OFFCURVE",
"549 895 OFFCURVE",
"510 895 CURVE SMOOTH",
"472 895 OFFCURVE",
"432 863 OFFCURVE",
"424 823 CURVE SMOOTH"
);
},
{
closed = 1;
nodes = (
"650 783 OFFCURVE",
"678 752 OFFCURVE",
"717 752 CURVE SMOOTH",
"755 752 OFFCURVE",
"794 783 OFFCURVE",
"803 823 CURVE SMOOTH",
"811 863 OFFCURVE",
"785 895 OFFCURVE",
"747 895 CURVE SMOOTH",
"708 895 OFFCURVE",
"667 863 OFFCURVE",
"659 823 CURVE SMOOTH"
);
}
);
width = 999;
}
);
leftKerningGroup = W;
note = Wdieresis;
rightKerningGroup = W;
unicode = 1E84;
},
{
glyphname = Wgrave;
lastChange = "2015-10-28 14:45:04 +0000";
layers = (
{
layerId = "C917F9CB-DEFA-4BDD-B24E-8B4296F56613";
name = "SemiBold Italic";
paths = (
{
closed = 1;
nodes = (
"912 699 LINE",
"1071 699 LINE",
"727 0 LINE",
"588 0 LINE",
"557 443 LINE",
"339 0 LINE",
"191 0 LINE",
"143 699 LINE",
"303 699 LINE",
"332 247 LINE",
"551 699 LINE",
"668 699 LINE",
"691 247 LINE"
);
},
{
closed = 1;
nodes = (
"666 742 LINE",
"634 918 LINE",
"475 918 LINE",
"526 742 LINE"
);
}
);
width = 999;
}
);
leftKerningGroup = W;
note = Wgrave;
rightKerningGroup = W;
unicode = 1E80;
},
{
glyphname = X;
lastChange = "2015-10-28 14:45:04 +0000";
layers = (
{
layerId = "C917F9CB-DEFA-4BDD-B24E-8B4296F56613";
name = "SemiBold Italic";
paths = (
{
closed = 1;
nodes = (
"435 471 LINE",
"318 699 LINE",
"144 699 LINE",
"323 352 LINE",
"-8 0 LINE",
"166 0 LINE",
"384 232 LINE",
"504 0 LINE",
"678 0 LINE",
"497 352 LINE",
"823 699 LINE",
"649 699 LINE"
);
}
);
width = 750;
}
);
note = X;
unicode = 0058;
},
{
glyphname = Y;
lastChange = "2015-10-28 14:45:04 +0000";
layers = (
{
layerId = "C917F9CB-DEFA-4BDD-B24E-8B4296F56613";
name = "SemiBold Italic";
paths = (
{
closed = 1;
nodes = (
"297 699 LINE",
"140 699 LINE",
"304 266 LINE",
"248 0 LINE",
"397 0 LINE",
"453 266 LINE",
"807 699 LINE",
"641 699 LINE",
"404 408 LINE"
);
}
);
width = 732;
}
);
leftKerningGroup = Y;
note = Y;
rightKerningGroup = Y;
unicode = 0059;
},
{
glyphname = Yacute;
lastChange = "2015-10-28 14:45:02 +0000";
layers = (
{
layerId = "C917F9CB-DEFA-4BDD-B24E-8B4296F56613";
name = "SemiBold Italic";
paths = (
{
closed = 1;
nodes = (
"407 408 LINE",
"644 699 LINE",
"810 699 LINE",
"456 266 LINE",
"400 0 LINE",
"251 0 LINE",
"307 266 LINE",
"143 699 LINE",
"300 699 LINE"
);
},
{
closed = 1;
nodes = (
"525 742 LINE",
"651 918 LINE",
"492 918 LINE",
"386 742 LINE"
);
}
);
width = 738;
}
);
leftKerningGroup = Y;
note = Yacute;
rightKerningGroup = Y;
unicode = 00DD;
},
{
glyphname = Ycircumflex;
lastChange = "2015-10-28 14:45:03 +0000";
layers = (
{
layerId = "C917F9CB-DEFA-4BDD-B24E-8B4296F56613";
name = "SemiBold Italic";
paths = (
{
closed = 1;
nodes = (
"407 408 LINE",
"644 699 LINE",
"810 699 LINE",
"456 266 LINE",
"400 0 LINE",
"251 0 LINE",
"307 266 LINE",
"143 699 LINE",
"300 699 LINE"
);
},
{
closed = 1;
nodes = (
"568 918 LINE",
"433 918 LINE",
"246 742 LINE",
"396 742 LINE",
"484 834 LINE",
"532 742 LINE",
"682 742 LINE"
);
}
);
width = 738;
}
);
leftKerningGroup = Y;
note = Ycircumflex;
rightKerningGroup = Y;
unicode = 0176;
},
{
glyphname = Ydieresis;
lastChange = "2015-10-28 14:45:02 +0000";
layers = (
{
layerId = "C917F9CB-DEFA-4BDD-B24E-8B4296F56613";
name = "SemiBold Italic";
paths = (
{
closed = 1;
nodes = (
"407 408 LINE",
"644 699 LINE",
"810 699 LINE",
"456 266 LINE",
"400 0 LINE",
"251 0 LINE",
"307 266 LINE",
"143 699 LINE",
"300 699 LINE"
);
},
{
closed = 1;
nodes = (
"282 783 OFFCURVE",
"309 752 OFFCURVE",
"347 752 CURVE SMOOTH",
"386 752 OFFCURVE",
"424 783 OFFCURVE",
"433 823 CURVE SMOOTH",
"441 863 OFFCURVE",
"416 895 OFFCURVE",
"377 895 CURVE SMOOTH",
"339 895 OFFCURVE",
"299 863 OFFCURVE",
"291 823 CURVE SMOOTH"
);
},
{
closed = 1;
nodes = (
"517 783 OFFCURVE",
"545 752 OFFCURVE",
"584 752 CURVE SMOOTH",
"622 752 OFFCURVE",
"661 783 OFFCURVE",
"670 823 CURVE SMOOTH",
"678 863 OFFCURVE",
"652 895 OFFCURVE",
"614 895 CURVE SMOOTH",
"575 895 OFFCURVE",
"534 863 OFFCURVE",
"526 823 CURVE SMOOTH"
);
}
);
width = 738;
}
);
leftKerningGroup = Y;
note = Ydieresis;
rightKerningGroup = Y;
unicode = 0178;
},
{
glyphname = Ydotaccent;
lastChange = "2015-10-28 14:45:03 +0000";
layers = (
{
layerId = "C917F9CB-DEFA-4BDD-B24E-8B4296F56613";
name = "SemiBold Italic";
paths = (
{
closed = 1;
nodes = (
"407 408 LINE",
"644 699 LINE",
"810 699 LINE",
"456 266 LINE",
"400 0 LINE",
"251 0 LINE",
"307 266 LINE",
"143 699 LINE",
"300 699 LINE"
);
},
{
closed = 1;
nodes = (
"399 783 OFFCURVE",
"427 752 OFFCURVE",
"466 752 CURVE SMOOTH",
"505 752 OFFCURVE",
"543 783 OFFCURVE",
"552 823 CURVE SMOOTH",
"560 863 OFFCURVE",
"535 895 OFFCURVE",
"496 895 CURVE SMOOTH",
"457 895 OFFCURVE",
"416 863 OFFCURVE",
"408 823 CURVE SMOOTH"
);
}
);
width = 738;
}
);
leftKerningGroup = Y;
note = Ydotaccent;
rightKerningGroup = Y;
unicode = 1E8E;
},
{
glyphname = Ydotbelow;
lastChange = "2015-10-28 14:45:04 +0000";
layers = (
{
layerId = "C917F9CB-DEFA-4BDD-B24E-8B4296F56613";
name = "SemiBold Italic";
paths = (
{
closed = 1;
nodes = (
"300 699 LINE",
"143 699 LINE",
"307 266 LINE",
"251 0 LINE",
"400 0 LINE",
"456 266 LINE",
"810 699 LINE",
"644 699 LINE",
"407 408 LINE"
);
},
{
closed = 1;
nodes = (
"222 -158 OFFCURVE",
"249 -190 OFFCURVE",
"288 -190 CURVE SMOOTH",
"327 -190 OFFCURVE",
"365 -158 OFFCURVE",
"373 -118 CURVE SMOOTH",
"382 -78 OFFCURVE",
"357 -46 OFFCURVE",
"319 -46 CURVE SMOOTH",
"280 -46 OFFCURVE",
"239 -78 OFFCURVE",
"230 -118 CURVE SMOOTH"
);
}
);
width = 738;
}
);
leftKerningGroup = Y;
note = Ydotbelow;
rightKerningGroup = Y;
unicode = 1EF4;
},
{
glyphname = Ygrave;
lastChange = "2015-10-28 14:45:02 +0000";
layers = (
{
layerId = "C917F9CB-DEFA-4BDD-B24E-8B4296F56613";
name = "SemiBold Italic";
paths = (
{
closed = 1;
nodes = (
"407 408 LINE",
"644 699 LINE",
"810 699 LINE",
"456 266 LINE",
"400 0 LINE",
"251 0 LINE",
"307 266 LINE",
"143 699 LINE",
"300 699 LINE"
);
},
{
closed = 1;
nodes = (
"547 742 LINE",
"515 918 LINE",
"356 918 LINE",
"407 742 LINE"
);
}
);
width = 738;
}
);
leftKerningGroup = Y;
note = Ygrave;
rightKerningGroup = Y;
unicode = 1EF2;
},
{
glyphname = Yhookabove;
lastChange = "2015-10-28 14:45:04 +0000";
layers = (
{
layerId = "C917F9CB-DEFA-4BDD-B24E-8B4296F56613";
name = "SemiBold Italic";
paths = (
{
closed = 1;
nodes = (
"407 408 LINE",
"644 699 LINE",
"810 699 LINE",
"456 266 LINE",
"400 0 LINE",
"251 0 LINE",
"307 266 LINE",
"143 699 LINE",
"300 699 LINE"
);
},
{
closed = 1;
nodes = (
"662 930 OFFCURVE",
"622 972 OFFCURVE",
"522 972 CURVE SMOOTH",
"484 972 OFFCURVE",
"437 965 OFFCURVE",
"410 957 CURVE",
"394 882 LINE",
"408 888 OFFCURVE",
"442 893 OFFCURVE",
"458 893 CURVE SMOOTH",
"501 893 OFFCURVE",
"516 882 OFFCURVE",
"510 858 CURVE",
"503 824 OFFCURVE",
"468 814 OFFCURVE",
"416 814 CURVE",
"401 742 LINE",
"533 742 LINE",
"539 771 LINE",
"599 783 OFFCURVE",
"639 821 OFFCURVE",
"649 869 CURVE SMOOTH"
);
}
);
width = 738;
}
);
leftKerningGroup = Y;
note = Yhookabove;
rightKerningGroup = Y;
unicode = 1EF6;
},
{
glyphname = Ytilde;
lastChange = "2015-10-28 14:45:03 +0000";
layers = (
{
layerId = "C917F9CB-DEFA-4BDD-B24E-8B4296F56613";
name = "SemiBold Italic";
paths = (
{
closed = 1;
nodes = (
"300 699 LINE",
"143 699 LINE",
"307 266 LINE",
"251 0 LINE",
"400 0 LINE",
"456 266 LINE",
"810 699 LINE",
"644 699 LINE",
"407 408 LINE"
);
},
{
closed = 1;
nodes = (
"359 900 OFFCURVE",
"320 888 OFFCURVE",
"289 857 CURVE",
"265 742 LINE",
"304 780 OFFCURVE",
"341 793 OFFCURVE",
"379 793 CURVE SMOOTH",
"443 793 OFFCURVE",
"488 743 OFFCURVE",
"561 743 CURVE SMOOTH",
"604 743 OFFCURVE",
"641 754 OFFCURVE",
"671 785 CURVE",
"695 900 LINE",
"659 863 OFFCURVE",
"623 850 OFFCURVE",
"584 850 CURVE SMOOTH",
"519 850 OFFCURVE",
"469 900 OFFCURVE",
"401 900 CURVE SMOOTH"
);
}
);
width = 738;
}
);
leftKerningGroup = Y;
note = Ytilde;
rightKerningGroup = Y;
unicode = 1EF8;
},
{
glyphname = Z;
lastChange = "2015-10-28 14:45:04 +0000";
layers = (
{
layerId = "C917F9CB-DEFA-4BDD-B24E-8B4296F56613";
name = "SemiBold Italic";
paths = (
{
closed = 1;
nodes = (
"568 127 LINE",
"208 127 LINE",
"648 597 LINE",
"670 699 LINE",
"149 699 LINE",
"122 572 LINE",
"455 572 LINE",
"13 101 LINE",
"-8 0 LINE",
"542 0 LINE"
);
}
);
width = 615;
}
);
leftKerningGroup = Z;
note = Z;
rightKerningGroup = Z;
unicode = 005A;
},
{
glyphname = Zacute;
lastChange = "2015-10-28 14:45:03 +0000";
layers = (
{
layerId = "C917F9CB-DEFA-4BDD-B24E-8B4296F56613";
name = "SemiBold Italic";
paths = (
{
closed = 1;
nodes = (
"542 0 LINE",
"-8 0 LINE",
"13 101 LINE",
"455 572 LINE",
"122 572 LINE",
"149 699 LINE",
"670 699 LINE",
"648 597 LINE",
"208 127 LINE",
"568 127 LINE"
);
},
{
closed = 1;
nodes = (
"456 742 LINE",
"582 918 LINE",
"423 918 LINE",
"317 742 LINE"
);
}
);
width = 615;
}
);
leftKerningGroup = Z;
note = Zacute;
rightKerningGroup = Z;
unicode = 0179;
},
{
glyphname = Zcaron;
lastChange = "2015-10-28 14:45:04 +0000";
layers = (
{
layerId = "C917F9CB-DEFA-4BDD-B24E-8B4296F56613";
name = "SemiBold Italic";
paths = (
{
closed = 1;
nodes = (
"542 0 LINE",
"-8 0 LINE",
"13 101 LINE",
"455 572 LINE",
"122 572 LINE",
"149 699 LINE",
"670 699 LINE",
"648 597 LINE",
"208 127 LINE",
"568 127 LINE"
);
},
{
closed = 1;
nodes = (
"338 742 LINE",
"473 742 LINE",
"661 918 LINE",
"511 918 LINE",
"424 826 LINE",
"375 918 LINE",
"225 918 LINE"
);
}
);
width = 615;
}
);
leftKerningGroup = Z;
note = Zcaron;
rightKerningGroup = Z;
unicode = 017D;
},
{
glyphname = Zdotaccent;
lastChange = "2015-10-28 14:45:04 +0000";
layers = (
{
layerId = "C917F9CB-DEFA-4BDD-B24E-8B4296F56613";
name = "SemiBold Italic";
paths = (
{
closed = 1;
nodes = (
"542 0 LINE",
"-8 0 LINE",
"13 101 LINE",
"455 572 LINE",
"122 572 LINE",
"149 699 LINE",
"670 699 LINE",
"648 597 LINE",
"208 127 LINE",
"568 127 LINE"
);
},
{
closed = 1;
nodes = (
"335 783 OFFCURVE",
"363 752 OFFCURVE",
"402 752 CURVE SMOOTH",
"441 752 OFFCURVE",
"479 783 OFFCURVE",
"488 823 CURVE SMOOTH",
"496 863 OFFCURVE",
"471 895 OFFCURVE",
"432 895 CURVE SMOOTH",
"393 895 OFFCURVE",
"352 863 OFFCURVE",
"344 823 CURVE SMOOTH"
);
}
);
width = 615;
}
);
leftKerningGroup = Z;
note = Zdotaccent;
rightKerningGroup = Z;
unicode = 017B;
},
{
glyphname = Zdotbelow;
lastChange = "2015-10-28 14:45:03 +0000";
layers = (
{
layerId = "C917F9CB-DEFA-4BDD-B24E-8B4296F56613";
name = "SemiBold Italic";
paths = (
{
closed = 1;
nodes = (
"568 127 LINE",
"208 127 LINE",
"648 597 LINE",
"670 699 LINE",
"149 699 LINE",
"122 572 LINE",
"455 572 LINE",
"13 101 LINE",
"-8 0 LINE",
"542 0 LINE"
);
},
{
closed = 1;
nodes = (
"169 -158 OFFCURVE",
"196 -190 OFFCURVE",
"235 -190 CURVE SMOOTH",
"274 -190 OFFCURVE",
"312 -158 OFFCURVE",
"320 -118 CURVE SMOOTH",
"329 -78 OFFCURVE",
"304 -46 OFFCURVE",
"266 -46 CURVE SMOOTH",
"227 -46 OFFCURVE",
"186 -78 OFFCURVE",
"177 -118 CURVE SMOOTH"
);
}
);
width = 615;
}
);
leftKerningGroup = Z;
note = Zdotbelow;
rightKerningGroup = Z;
unicode = 1E92;
},
{
glyphname = a;
lastChange = "2015-10-28 14:45:04 +0000";
layers = (
{
layerId = "C917F9CB-DEFA-4BDD-B24E-8B4296F56613";
name = "SemiBold Italic";
paths = (
{
closed = 1;
nodes = (
"428 377 OFFCURVE",
"474 340 OFFCURVE",
"481 285 CURVE",
"462 194 LINE",
"429 138 OFFCURVE",
"370 102 OFFCURVE",
"301 102 CURVE SMOOTH",
"203 102 OFFCURVE",
"178 148 OFFCURVE",
"197 239 CURVE SMOOTH",
"214 322 OFFCURVE",
"284 377 OFFCURVE",
"365 377 CURVE SMOOTH"
);
},
{
closed = 1;
nodes = (
"513 437 LINE",
"479 475 OFFCURVE",
"423 495 OFFCURVE",
"351 495 CURVE SMOOTH",
"201 495 OFFCURVE",
"75 391 OFFCURVE",
"42 239 CURVE SMOOTH",
"10 85 OFFCURVE",
"102 -15 OFFCURVE",
"242 -15 CURVE SMOOTH",
"317 -15 OFFCURVE",
"377 5 OFFCURVE",
"437 52 CURVE",
"426 0 LINE",
"572 0 LINE",
"674 480 LINE",
"523 480 LINE"
);
}
);
width = 660;
}
);
leftKerningGroup = a;
note = a;
rightKerningGroup = a;
unicode = 0061;
},
{
glyphname = aacute;
lastChange = "2015-10-28 14:45:03 +0000";
layers = (
{
layerId = "C917F9CB-DEFA-4BDD-B24E-8B4296F56613";
name = "SemiBold Italic";
paths = (
{
closed = 1;
nodes = (
"428 377 OFFCURVE",
"474 340 OFFCURVE",
"481 285 CURVE",
"462 194 LINE",
"429 138 OFFCURVE",
"370 102 OFFCURVE",
"301 102 CURVE SMOOTH",
"203 102 OFFCURVE",
"178 148 OFFCURVE",
"197 239 CURVE SMOOTH",
"214 322 OFFCURVE",
"284 377 OFFCURVE",
"365 377 CURVE SMOOTH"
);
},
{
closed = 1;
nodes = (
"513 437 LINE",
"479 475 OFFCURVE",
"423 495 OFFCURVE",
"351 495 CURVE SMOOTH",
"201 495 OFFCURVE",
"75 391 OFFCURVE",
"42 239 CURVE SMOOTH",
"10 85 OFFCURVE",
"102 -15 OFFCURVE",
"242 -15 CURVE SMOOTH",
"317 -15 OFFCURVE",
"377 5 OFFCURVE",
"437 52 CURVE",
"426 0 LINE",
"572 0 LINE",
"674 480 LINE",
"523 480 LINE"
);
},
{
closed = 1;
nodes = (
"494 535 LINE",
"620 711 LINE",
"461 711 LINE",
"355 535 LINE"
);
}
);
width = 660;
}
);
leftKerningGroup = a;
note = aacute;
rightKerningGroup = a;
unicode = 00E1;
},
{
glyphname = abreve;
lastChange = "2015-10-28 14:45:03 +0000";
layers = (
{
layerId = "C917F9CB-DEFA-4BDD-B24E-8B4296F56613";
name = "SemiBold Italic";
paths = (
{
closed = 1;
nodes = (
"428 377 OFFCURVE",
"474 340 OFFCURVE",
"481 285 CURVE",
"462 194 LINE",
"429 138 OFFCURVE",
"370 102 OFFCURVE",
"301 102 CURVE SMOOTH",
"203 102 OFFCURVE",
"178 148 OFFCURVE",
"197 239 CURVE SMOOTH",
"214 322 OFFCURVE",
"284 377 OFFCURVE",
"365 377 CURVE SMOOTH"
);
},
{
closed = 1;
nodes = (
"513 437 LINE",
"479 475 OFFCURVE",
"423 495 OFFCURVE",
"351 495 CURVE SMOOTH",
"201 495 OFFCURVE",
"75 391 OFFCURVE",
"42 239 CURVE SMOOTH",
"10 85 OFFCURVE",
"102 -15 OFFCURVE",
"242 -15 CURVE SMOOTH",
"317 -15 OFFCURVE",
"377 5 OFFCURVE",
"437 52 CURVE",
"426 0 LINE",
"572 0 LINE",
"674 480 LINE",
"523 480 LINE"
);
},
{
closed = 1;
nodes = (
"425 633 OFFCURVE",
"409 655 OFFCURVE",
"418 697 CURVE",
"306 697 LINE",
"285 600 OFFCURVE",
"333 535 OFFCURVE",
"442 535 CURVE SMOOTH",
"551 535 OFFCURVE",
"628 600 OFFCURVE",
"649 697 CURVE",
"536 697 LINE",
"527 655 OFFCURVE",
"500 633 OFFCURVE",
"463 633 CURVE SMOOTH"
);
}
);
width = 660;
}
);
leftKerningGroup = a;
note = abreve;
rightKerningGroup = a;
unicode = 0103;
},
{
glyphname = abreveacute;
lastChange = "2015-10-28 14:45:04 +0000";
layers = (
{
layerId = "C917F9CB-DEFA-4BDD-B24E-8B4296F56613";
name = "SemiBold Italic";
paths = (
{
closed = 1;
nodes = (
"428 377 OFFCURVE",
"474 340 OFFCURVE",
"481 285 CURVE",
"462 194 LINE",
"429 138 OFFCURVE",
"370 102 OFFCURVE",
"301 102 CURVE SMOOTH",
"203 102 OFFCURVE",
"178 148 OFFCURVE",
"197 239 CURVE SMOOTH",
"214 322 OFFCURVE",
"284 377 OFFCURVE",
"365 377 CURVE SMOOTH"
);
},
{
closed = 1;
nodes = (
"513 437 LINE",
"479 475 OFFCURVE",
"423 495 OFFCURVE",
"351 495 CURVE SMOOTH",
"201 495 OFFCURVE",
"75 391 OFFCURVE",
"42 239 CURVE SMOOTH",
"10 85 OFFCURVE",
"102 -15 OFFCURVE",
"242 -15 CURVE SMOOTH",
"317 -15 OFFCURVE",
"377 5 OFFCURVE",
"437 52 CURVE",
"426 0 LINE",
"572 0 LINE",
"674 480 LINE",
"523 480 LINE"
);
},
{
closed = 1;
nodes = (
"544 696 LINE",
"639 823 LINE",
"517 823 LINE",
"439 696 LINE"
);
},
{
closed = 1;
nodes = (
"515 624 OFFCURVE",
"540 643 OFFCURVE",
"549 683 CURVE",
"652 683 LINE",
"633 592 OFFCURVE",
"558 535 OFFCURVE",
"457 535 CURVE SMOOTH",
"356 535 OFFCURVE",
"305 592 OFFCURVE",
"324 683 CURVE",
"428 683 LINE",
"419 643 OFFCURVE",
"436 624 OFFCURVE",
"476 624 CURVE SMOOTH"
);
}
);
width = 660;
}
);
leftKerningGroup = a;
note = abreveacute;
rightKerningGroup = a;
unicode = 1EAF;
},
{
glyphname = abrevedotbelow;
lastChange = "2015-10-28 14:45:03 +0000";
layers = (
{
layerId = "C917F9CB-DEFA-4BDD-B24E-8B4296F56613";
name = "SemiBold Italic";
paths = (
{
closed = 1;
nodes = (
"428 377 OFFCURVE",
"474 340 OFFCURVE",
"481 285 CURVE",
"462 194 LINE",
"429 138 OFFCURVE",
"370 102 OFFCURVE",
"301 102 CURVE SMOOTH",
"203 102 OFFCURVE",
"178 148 OFFCURVE",
"197 239 CURVE SMOOTH",
"214 322 OFFCURVE",
"284 377 OFFCURVE",
"365 377 CURVE SMOOTH"
);
},
{
closed = 1;
nodes = (
"513 437 LINE",
"479 475 OFFCURVE",
"423 495 OFFCURVE",
"351 495 CURVE SMOOTH",
"201 495 OFFCURVE",
"75 391 OFFCURVE",
"42 239 CURVE SMOOTH",
"10 85 OFFCURVE",
"102 -15 OFFCURVE",
"242 -15 CURVE SMOOTH",
"317 -15 OFFCURVE",
"377 5 OFFCURVE",
"437 52 CURVE",
"426 0 LINE",
"572 0 LINE",
"674 480 LINE",
"523 480 LINE"
);
},
{
closed = 1;
nodes = (
"414 633 OFFCURVE",
"398 655 OFFCURVE",
"407 697 CURVE",
"295 697 LINE",
"274 600 OFFCURVE",
"322 535 OFFCURVE",
"431 535 CURVE SMOOTH",
"540 535 OFFCURVE",
"617 600 OFFCURVE",
"638 697 CURVE",
"525 697 LINE",
"516 655 OFFCURVE",
"489 633 OFFCURVE",
"452 633 CURVE SMOOTH"
);
},
{
closed = 1;
nodes = (
"229 -158 OFFCURVE",
"256 -190 OFFCURVE",
"295 -190 CURVE SMOOTH",
"334 -190 OFFCURVE",
"372 -158 OFFCURVE",
"380 -118 CURVE SMOOTH",
"389 -78 OFFCURVE",
"364 -46 OFFCURVE",
"326 -46 CURVE SMOOTH",
"287 -46 OFFCURVE",
"246 -78 OFFCURVE",
"237 -118 CURVE SMOOTH"
);
}
);
width = 660;
}
);
leftKerningGroup = a;
note = abrevedotbelow;
rightKerningGroup = a;
unicode = 1EB7;
},
{
glyphname = abrevegrave;
lastChange = "2015-10-28 14:45:02 +0000";
layers = (
{
layerId = "C917F9CB-DEFA-4BDD-B24E-8B4296F56613";
name = "SemiBold Italic";
paths = (
{
closed = 1;
nodes = (
"428 377 OFFCURVE",
"474 340 OFFCURVE",
"481 285 CURVE",
"462 194 LINE",
"429 138 OFFCURVE",
"370 102 OFFCURVE",
"301 102 CURVE SMOOTH",
"203 102 OFFCURVE",
"178 148 OFFCURVE",
"197 239 CURVE SMOOTH",
"214 322 OFFCURVE",
"284 377 OFFCURVE",
"365 377 CURVE SMOOTH"
);
},
{
closed = 1;
nodes = (
"513 437 LINE",
"479 475 OFFCURVE",
"423 495 OFFCURVE",
"351 495 CURVE SMOOTH",
"201 495 OFFCURVE",
"75 391 OFFCURVE",
"42 239 CURVE SMOOTH",
"10 85 OFFCURVE",
"102 -15 OFFCURVE",
"242 -15 CURVE SMOOTH",
"317 -15 OFFCURVE",
"377 5 OFFCURVE",
"437 52 CURVE",
"426 0 LINE",
"572 0 LINE",
"674 480 LINE",
"523 480 LINE"
);
},
{
closed = 1;
nodes = (
"542 696 LINE",
"518 823 LINE",
"396 823 LINE",
"437 696 LINE"
);
},
{
closed = 1;
nodes = (
"513 624 OFFCURVE",
"539 643 OFFCURVE",
"548 683 CURVE",
"650 683 LINE",
"631 592 OFFCURVE",
"556 535 OFFCURVE",
"455 535 CURVE SMOOTH",
"354 535 OFFCURVE",
"303 592 OFFCURVE",
"322 683 CURVE",
"426 683 LINE",
"417 643 OFFCURVE",
"434 624 OFFCURVE",
"474 624 CURVE SMOOTH"
);
}
);
width = 660;
}
);
leftKerningGroup = a;
note = abrevegrave;
rightKerningGroup = a;
unicode = 1EB1;
},
{
glyphname = abrevehookabove;
lastChange = "2015-10-28 14:45:04 +0000";
layers = (
{
layerId = "C917F9CB-DEFA-4BDD-B24E-8B4296F56613";
name = "SemiBold Italic";
paths = (
{
closed = 1;
nodes = (
"428 377 OFFCURVE",
"474 340 OFFCURVE",
"481 285 CURVE",
"462 194 LINE",
"429 138 OFFCURVE",
"370 102 OFFCURVE",
"301 102 CURVE SMOOTH",
"203 102 OFFCURVE",
"178 148 OFFCURVE",
"197 239 CURVE SMOOTH",
"214 322 OFFCURVE",
"284 377 OFFCURVE",
"365 377 CURVE SMOOTH"
);
},
{
closed = 1;
nodes = (
"513 437 LINE",
"479 475 OFFCURVE",
"423 495 OFFCURVE",
"351 495 CURVE SMOOTH",
"201 495 OFFCURVE",
"75 391 OFFCURVE",
"42 239 CURVE SMOOTH",
"10 85 OFFCURVE",
"102 -15 OFFCURVE",
"242 -15 CURVE SMOOTH",
"317 -15 OFFCURVE",
"377 5 OFFCURVE",
"437 52 CURVE",
"426 0 LINE",
"572 0 LINE",
"674 480 LINE",
"523 480 LINE"
);
},
{
closed = 1;
nodes = (
"626 816 OFFCURVE",
"597 845 OFFCURVE",
"530 845 CURVE SMOOTH",
"505 845 OFFCURVE",
"470 840 OFFCURVE",
"450 833 CURVE",
"438 779 LINE",
"447 784 OFFCURVE",
"465 787 OFFCURVE",
"478 787 CURVE SMOOTH",
"506 787 OFFCURVE",
"518 781 OFFCURVE",
"514 762 CURVE SMOOTH",
"509 740 OFFCURVE",
"489 734 OFFCURVE",
"454 734 CURVE",
"443 685 LINE",
"537 685 LINE",
"542 706 LINE",
"583 714 OFFCURVE",
"610 738 OFFCURVE",
"617 773 CURVE SMOOTH"
);
},
{
closed = 1;
nodes = (
"514 623 OFFCURVE",
"540 643 OFFCURVE",
"549 683 CURVE",
"651 683 LINE",
"632 592 OFFCURVE",
"556 535 OFFCURVE",
"455 535 CURVE SMOOTH",
"354 535 OFFCURVE",
"304 592 OFFCURVE",
"323 683 CURVE",
"426 683 LINE",
"417 643 OFFCURVE",
"435 623 OFFCURVE",
"474 623 CURVE SMOOTH"
);
}
);
width = 660;
}
);
leftKerningGroup = a;
note = abrevehookabove;
rightKerningGroup = a;
unicode = 1EB3;
},
{
glyphname = abrevetilde;
lastChange = "2015-10-28 14:45:03 +0000";
layers = (
{
layerId = "C917F9CB-DEFA-4BDD-B24E-8B4296F56613";
name = "SemiBold Italic";
paths = (
{
closed = 1;
nodes = (
"428 377 OFFCURVE",
"474 340 OFFCURVE",
"481 285 CURVE",
"462 194 LINE",
"429 138 OFFCURVE",
"370 102 OFFCURVE",
"301 102 CURVE SMOOTH",
"203 102 OFFCURVE",
"178 148 OFFCURVE",
"197 239 CURVE SMOOTH",
"214 322 OFFCURVE",
"284 377 OFFCURVE",
"365 377 CURVE SMOOTH"
);
},
{
closed = 1;
nodes = (
"513 437 LINE",
"479 475 OFFCURVE",
"423 495 OFFCURVE",
"351 495 CURVE SMOOTH",
"201 495 OFFCURVE",
"75 391 OFFCURVE",
"42 239 CURVE SMOOTH",
"10 85 OFFCURVE",
"102 -15 OFFCURVE",
"242 -15 CURVE SMOOTH",
"317 -15 OFFCURVE",
"377 5 OFFCURVE",
"437 52 CURVE",
"426 0 LINE",
"572 0 LINE",
"674 480 LINE",
"523 480 LINE"
);
},
{
closed = 1;
nodes = (
"422 847 OFFCURVE",
"393 837 OFFCURVE",
"369 812 CURVE",
"349 717 LINE",
"380 747 OFFCURVE",
"407 759 OFFCURVE",
"439 759 CURVE SMOOTH",
"487 759 OFFCURVE",
"531 716 OFFCURVE",
"587 716 CURVE SMOOTH",
"622 716 OFFCURVE",
"650 726 OFFCURVE",
"673 750 CURVE",
"694 846 LINE",
"664 816 OFFCURVE",
"636 804 OFFCURVE",
"606 804 CURVE SMOOTH",
"556 804 OFFCURVE",
"509 847 OFFCURVE",
"458 847 CURVE SMOOTH"
);
},
{
closed = 1;
nodes = (
"448 624 OFFCURVE",
"431 643 OFFCURVE",
"440 683 CURVE",
"336 683 LINE",
"317 592 OFFCURVE",
"368 535 OFFCURVE",
"469 535 CURVE SMOOTH",
"570 535 OFFCURVE",
"645 592 OFFCURVE",
"664 683 CURVE",
"562 683 LINE",
"553 643 OFFCURVE",
"527 624 OFFCURVE",
"488 624 CURVE SMOOTH"
);
}
);
width = 660;
}
);
leftKerningGroup = a;
note = abrevetilde;
rightKerningGroup = a;
unicode = 1EB5;
},
{
glyphname = acaron;
lastChange = "2015-10-28 14:45:03 +0000";
layers = (
{
layerId = "C917F9CB-DEFA-4BDD-B24E-8B4296F56613";
name = "SemiBold Italic";
paths = (
{
closed = 1;
nodes = (
"428 377 OFFCURVE",
"474 340 OFFCURVE",
"481 285 CURVE",
"462 194 LINE",
"429 138 OFFCURVE",
"370 102 OFFCURVE",
"301 102 CURVE SMOOTH",
"203 102 OFFCURVE",
"178 148 OFFCURVE",
"197 239 CURVE SMOOTH",
"214 322 OFFCURVE",
"284 377 OFFCURVE",
"365 377 CURVE SMOOTH"
);
},
{
closed = 1;
nodes = (
"513 437 LINE",
"479 475 OFFCURVE",
"423 495 OFFCURVE",
"351 495 CURVE SMOOTH",
"201 495 OFFCURVE",
"75 391 OFFCURVE",
"42 239 CURVE SMOOTH",
"10 85 OFFCURVE",
"102 -15 OFFCURVE",
"242 -15 CURVE SMOOTH",
"317 -15 OFFCURVE",
"377 5 OFFCURVE",
"437 52 CURVE",
"426 0 LINE",
"572 0 LINE",
"674 480 LINE",
"523 480 LINE"
);
},
{
closed = 1;
nodes = (
"382 535 LINE",
"517 535 LINE",
"705 711 LINE",
"555 711 LINE",
"468 619 LINE",
"419 711 LINE",
"269 711 LINE"
);
}
);
width = 667;
}
);
leftKerningGroup = a;
note = acaron;
rightKerningGroup = a;
unicode = 01CE;
},
{
glyphname = acircumflex;
lastChange = "2015-10-28 14:45:03 +0000";
layers = (
{
layerId = "C917F9CB-DEFA-4BDD-B24E-8B4296F56613";
name = "SemiBold Italic";
paths = (
{
closed = 1;
nodes = (
"428 377 OFFCURVE",
"474 340 OFFCURVE",
"481 285 CURVE",
"462 194 LINE",
"429 138 OFFCURVE",
"370 102 OFFCURVE",
"301 102 CURVE SMOOTH",
"203 102 OFFCURVE",
"178 148 OFFCURVE",
"197 239 CURVE SMOOTH",
"214 322 OFFCURVE",
"284 377 OFFCURVE",
"365 377 CURVE SMOOTH"
);
},
{
closed = 1;
nodes = (
"513 437 LINE",
"479 475 OFFCURVE",
"423 495 OFFCURVE",
"351 495 CURVE SMOOTH",
"201 495 OFFCURVE",
"75 391 OFFCURVE",
"42 239 CURVE SMOOTH",
"10 85 OFFCURVE",
"102 -15 OFFCURVE",
"242 -15 CURVE SMOOTH",
"317 -15 OFFCURVE",
"377 5 OFFCURVE",
"437 52 CURVE",
"426 0 LINE",
"572 0 LINE",
"674 480 LINE",
"523 480 LINE"
);
},
{
closed = 1;
nodes = (
"540 711 LINE",
"405 711 LINE",
"218 535 LINE",
"368 535 LINE",
"456 627 LINE",
"504 535 LINE",
"654 535 LINE"
);
}
);
width = 660;
}
);
leftKerningGroup = a;
note = acircumflex;
rightKerningGroup = a;
unicode = 00E2;
},
{
glyphname = acircumflexacute;
lastChange = "2015-10-28 14:45:02 +0000";
layers = (
{
layerId = "C917F9CB-DEFA-4BDD-B24E-8B4296F56613";
name = "SemiBold Italic";
paths = (
{
closed = 1;
nodes = (
"428 377 OFFCURVE",
"474 340 OFFCURVE",
"481 285 CURVE",
"462 194 LINE",
"429 138 OFFCURVE",
"370 102 OFFCURVE",
"301 102 CURVE SMOOTH",
"203 102 OFFCURVE",
"178 148 OFFCURVE",
"197 239 CURVE SMOOTH",
"214 322 OFFCURVE",
"284 377 OFFCURVE",
"365 377 CURVE SMOOTH"
);
},
{
closed = 1;
nodes = (
"513 437 LINE",
"479 475 OFFCURVE",
"423 495 OFFCURVE",
"351 495 CURVE SMOOTH",
"201 495 OFFCURVE",
"75 391 OFFCURVE",
"42 239 CURVE SMOOTH",
"10 85 OFFCURVE",
"102 -15 OFFCURVE",
"242 -15 CURVE SMOOTH",
"317 -15 OFFCURVE",
"377 5 OFFCURVE",
"437 52 CURVE",
"426 0 LINE",
"572 0 LINE",
"674 480 LINE",
"523 480 LINE"
);
},
{
closed = 1;
nodes = (
"737 643 LINE",
"844 776 LINE",
"705 776 LINE",
"618 643 LINE"
);
},
{
closed = 1;
nodes = (
"553 690 LINE",
"438 690 LINE",
"259 535 LINE",
"397 535 LINE",
"478 611 LINE",
"527 535 LINE",
"664 535 LINE"
);
}
);
width = 653;
}
);
leftKerningGroup = a;
note = acircumflexacute;
rightKerningGroup = a;
unicode = 1EA5;
},
{
glyphname = acircumflexdotbelow;
lastChange = "2015-10-28 14:45:02 +0000";
layers = (
{
layerId = "C917F9CB-DEFA-4BDD-B24E-8B4296F56613";
name = "SemiBold Italic";
paths = (
{
closed = 1;
nodes = (
"428 377 OFFCURVE",
"474 340 OFFCURVE",
"481 285 CURVE",
"462 194 LINE",
"429 138 OFFCURVE",
"370 102 OFFCURVE",
"301 102 CURVE SMOOTH",
"203 102 OFFCURVE",
"178 148 OFFCURVE",
"197 239 CURVE SMOOTH",
"214 322 OFFCURVE",
"284 377 OFFCURVE",
"365 377 CURVE SMOOTH"
);
},
{
closed = 1;
nodes = (
"513 437 LINE",
"479 475 OFFCURVE",
"423 495 OFFCURVE",
"351 495 CURVE SMOOTH",
"201 495 OFFCURVE",
"75 391 OFFCURVE",
"42 239 CURVE SMOOTH",
"10 85 OFFCURVE",
"102 -15 OFFCURVE",
"242 -15 CURVE SMOOTH",
"317 -15 OFFCURVE",
"377 5 OFFCURVE",
"437 52 CURVE",
"426 0 LINE",
"572 0 LINE",
"674 480 LINE",
"523 480 LINE"
);
},
{
closed = 1;
nodes = (
"531 711 LINE",
"396 711 LINE",
"209 535 LINE",
"359 535 LINE",
"447 627 LINE",
"495 535 LINE",
"645 535 LINE"
);
},
{
closed = 1;
nodes = (
"226 -158 OFFCURVE",
"253 -190 OFFCURVE",
"292 -190 CURVE SMOOTH",
"331 -190 OFFCURVE",
"369 -158 OFFCURVE",
"377 -118 CURVE SMOOTH",
"386 -78 OFFCURVE",
"361 -46 OFFCURVE",
"323 -46 CURVE SMOOTH",
"284 -46 OFFCURVE",
"243 -78 OFFCURVE",
"234 -118 CURVE SMOOTH"
);
}
);
width = 660;
}
);
leftKerningGroup = a;
note = acircumflexdotbelow;
rightKerningGroup = a;
unicode = 1EAD;
},
{
glyphname = acircumflexgrave;
lastChange = "2015-10-28 14:45:03 +0000";
layers = (
{
layerId = "C917F9CB-DEFA-4BDD-B24E-8B4296F56613";
name = "SemiBold Italic";
paths = (
{
closed = 1;
nodes = (
"428 377 OFFCURVE",
"474 340 OFFCURVE",
"481 285 CURVE",
"462 194 LINE",
"429 138 OFFCURVE",
"370 102 OFFCURVE",
"301 102 CURVE SMOOTH",
"203 102 OFFCURVE",
"178 148 OFFCURVE",
"197 239 CURVE SMOOTH",
"214 322 OFFCURVE",
"284 377 OFFCURVE",
"365 377 CURVE SMOOTH"
);
},
{
closed = 1;
nodes = (
"513 437 LINE",
"479 475 OFFCURVE",
"423 495 OFFCURVE",
"351 495 CURVE SMOOTH",
"201 495 OFFCURVE",
"75 391 OFFCURVE",
"42 239 CURVE SMOOTH",
"10 85 OFFCURVE",
"102 -15 OFFCURVE",
"242 -15 CURVE SMOOTH",
"317 -15 OFFCURVE",
"377 5 OFFCURVE",
"437 52 CURVE",
"426 0 LINE",
"572 0 LINE",
"674 480 LINE",
"523 480 LINE"
);
},
{
closed = 1;
nodes = (
"348 643 LINE",
"316 776 LINE",
"176 776 LINE",
"227 643 LINE"
);
},
{
closed = 1;
nodes = (
"255 535 LINE",
"392 535 LINE",
"473 611 LINE",
"521 535 LINE",
"659 535 LINE",
"547 690 LINE",
"433 690 LINE"
);
}
);
width = 660;
}
);
leftKerningGroup = a;
note = acircumflexgrave;
rightKerningGroup = a;
unicode = 1EA7;
},
{
glyphname = acircumflexhookabove;
lastChange = "2015-10-28 14:45:03 +0000";
layers = (
{
layerId = "C917F9CB-DEFA-4BDD-B24E-8B4296F56613";
name = "SemiBold Italic";
paths = (
{
closed = 1;
nodes = (
"428 377 OFFCURVE",
"474 340 OFFCURVE",
"481 285 CURVE",
"462 194 LINE",
"429 138 OFFCURVE",
"370 102 OFFCURVE",
"301 102 CURVE SMOOTH",
"203 102 OFFCURVE",
"178 148 OFFCURVE",
"197 239 CURVE SMOOTH",
"214 322 OFFCURVE",
"284 377 OFFCURVE",
"365 377 CURVE SMOOTH"
);
},
{
closed = 1;
nodes = (
"513 437 LINE",
"479 475 OFFCURVE",
"423 495 OFFCURVE",
"351 495 CURVE SMOOTH",
"201 495 OFFCURVE",
"75 391 OFFCURVE",
"42 239 CURVE SMOOTH",
"10 85 OFFCURVE",
"102 -15 OFFCURVE",
"242 -15 CURVE SMOOTH",
"317 -15 OFFCURVE",
"377 5 OFFCURVE",
"437 52 CURVE",
"426 0 LINE",
"572 0 LINE",
"674 480 LINE",
"523 480 LINE"
);
},
{
closed = 1;
nodes = (
"788 764 OFFCURVE",
"757 793 OFFCURVE",
"692 793 CURVE SMOOTH",
"666 793 OFFCURVE",
"631 788 OFFCURVE",
"612 782 CURVE",
"601 728 LINE",
"611 732 OFFCURVE",
"627 735 OFFCURVE",
"640 735 CURVE SMOOTH",
"667 735 OFFCURVE",
"680 729 OFFCURVE",
"676 711 CURVE SMOOTH",
"671 689 OFFCURVE",
"651 682 OFFCURVE",
"615 682 CURVE",
"605 632 LINE",
"698 632 LINE",
"703 656 LINE",
"744 664 OFFCURVE",
"772 688 OFFCURVE",
"779 721 CURVE SMOOTH"
);
},
{
closed = 1;
nodes = (
"542 690 LINE",
"427 690 LINE",
"248 535 LINE",
"386 535 LINE",
"467 611 LINE",
"516 535 LINE",
"653 535 LINE"
);
}
);
width = 667;
}
);
leftKerningGroup = a;
note = acircumflexhookabove;
rightKerningGroup = a;
unicode = 1EA9;
},
{
glyphname = acircumflextilde;
lastChange = "2015-10-28 14:45:03 +0000";
layers = (
{
layerId = "C917F9CB-DEFA-4BDD-B24E-8B4296F56613";
name = "SemiBold Italic";
paths = (
{
closed = 1;
nodes = (
"428 377 OFFCURVE",
"474 340 OFFCURVE",
"481 285 CURVE",
"462 194 LINE",
"429 138 OFFCURVE",
"370 102 OFFCURVE",
"301 102 CURVE SMOOTH",
"203 102 OFFCURVE",
"178 148 OFFCURVE",
"197 239 CURVE SMOOTH",
"214 322 OFFCURVE",
"284 377 OFFCURVE",
"365 377 CURVE SMOOTH"
);
},
{
closed = 1;
nodes = (
"513 437 LINE",
"479 475 OFFCURVE",
"423 495 OFFCURVE",
"351 495 CURVE SMOOTH",
"201 495 OFFCURVE",
"75 391 OFFCURVE",
"42 239 CURVE SMOOTH",
"10 85 OFFCURVE",
"102 -15 OFFCURVE",
"242 -15 CURVE SMOOTH",
"317 -15 OFFCURVE",
"377 5 OFFCURVE",
"437 52 CURVE",
"426 0 LINE",
"572 0 LINE",
"674 480 LINE",
"523 480 LINE"
);
},
{
closed = 1;
nodes = (
"411 832 OFFCURVE",
"382 822 OFFCURVE",
"358 797 CURVE",
"338 702 LINE",
"368 732 OFFCURVE",
"396 744 OFFCURVE",
"427 744 CURVE SMOOTH",
"475 744 OFFCURVE",
"520 701 OFFCURVE",
"575 701 CURVE SMOOTH",
"610 701 OFFCURVE",
"638 711 OFFCURVE",
"661 735 CURVE",
"682 831 LINE",
"653 801 OFFCURVE",
"624 789 OFFCURVE",
"594 789 CURVE SMOOTH",
"545 789 OFFCURVE",
"497 832 OFFCURVE",
"446 832 CURVE SMOOTH"
);
},
{
closed = 1;
nodes = (
"547 690 LINE",
"432 690 LINE",
"253 535 LINE",
"391 535 LINE",
"472 611 LINE",
"521 535 LINE",
"658 535 LINE"
);
}
);
width = 660;
}
);
leftKerningGroup = a;
note = acircumflextilde;
rightKerningGroup = a;
unicode = 1EAB;
},
{
glyphname = adieresis;
lastChange = "2015-10-28 14:45:03 +0000";
layers = (
{
layerId = "C917F9CB-DEFA-4BDD-B24E-8B4296F56613";
name = "SemiBold Italic";
paths = (
{
closed = 1;
nodes = (
"428 377 OFFCURVE",
"474 340 OFFCURVE",
"481 285 CURVE",
"462 194 LINE",
"429 138 OFFCURVE",
"370 102 OFFCURVE",
"301 102 CURVE SMOOTH",
"203 102 OFFCURVE",
"178 148 OFFCURVE",
"197 239 CURVE SMOOTH",
"214 322 OFFCURVE",
"284 377 OFFCURVE",
"365 377 CURVE SMOOTH"
);
},
{
closed = 1;
nodes = (
"513 437 LINE",
"479 475 OFFCURVE",
"423 495 OFFCURVE",
"351 495 CURVE SMOOTH",
"201 495 OFFCURVE",
"75 391 OFFCURVE",
"42 239 CURVE SMOOTH",
"10 85 OFFCURVE",
"102 -15 OFFCURVE",
"242 -15 CURVE SMOOTH",
"317 -15 OFFCURVE",
"377 5 OFFCURVE",
"437 52 CURVE",
"426 0 LINE",
"572 0 LINE",
"674 480 LINE",
"523 480 LINE"
);
},
{
closed = 1;
nodes = (
"248 576 OFFCURVE",
"275 545 OFFCURVE",
"313 545 CURVE SMOOTH",
"352 545 OFFCURVE",
"390 576 OFFCURVE",
"399 616 CURVE SMOOTH",
"407 656 OFFCURVE",
"382 688 OFFCURVE",
"343 688 CURVE SMOOTH",
"305 688 OFFCURVE",
"265 656 OFFCURVE",
"257 616 CURVE SMOOTH"
);
},
{
closed = 1;
nodes = (
"483 576 OFFCURVE",
"511 545 OFFCURVE",
"550 545 CURVE SMOOTH",
"588 545 OFFCURVE",
"627 576 OFFCURVE",
"636 616 CURVE SMOOTH",
"644 656 OFFCURVE",
"618 688 OFFCURVE",
"580 688 CURVE SMOOTH",
"541 688 OFFCURVE",
"500 656 OFFCURVE",
"492 616 CURVE SMOOTH"
);
}
);
width = 660;
}
);
leftKerningGroup = a;
note = adieresis;
rightKerningGroup = a;
unicode = 00E4;
},
{
glyphname = adotbelow;
lastChange = "2015-10-28 14:45:03 +0000";
layers = (
{
layerId = "C917F9CB-DEFA-4BDD-B24E-8B4296F56613";
name = "SemiBold Italic";
paths = (
{
closed = 1;
nodes = (
"428 377 OFFCURVE",
"474 340 OFFCURVE",
"481 285 CURVE",
"462 194 LINE",
"429 138 OFFCURVE",
"370 102 OFFCURVE",
"301 102 CURVE SMOOTH",
"203 102 OFFCURVE",
"178 148 OFFCURVE",
"197 239 CURVE SMOOTH",
"214 322 OFFCURVE",
"284 377 OFFCURVE",
"365 377 CURVE SMOOTH"
);
},
{
closed = 1;
nodes = (
"513 437 LINE",
"479 475 OFFCURVE",
"423 495 OFFCURVE",
"351 495 CURVE SMOOTH",
"201 495 OFFCURVE",
"75 391 OFFCURVE",
"42 239 CURVE SMOOTH",
"10 85 OFFCURVE",
"102 -15 OFFCURVE",
"242 -15 CURVE SMOOTH",
"317 -15 OFFCURVE",
"377 5 OFFCURVE",
"437 52 CURVE",
"426 0 LINE",
"572 0 LINE",
"674 480 LINE",
"523 480 LINE"
);
},
{
closed = 1;
nodes = (
"229 -158 OFFCURVE",
"256 -190 OFFCURVE",
"295 -190 CURVE SMOOTH",
"334 -190 OFFCURVE",
"372 -158 OFFCURVE",
"380 -118 CURVE SMOOTH",
"389 -78 OFFCURVE",
"364 -46 OFFCURVE",
"326 -46 CURVE SMOOTH",
"287 -46 OFFCURVE",
"246 -78 OFFCURVE",
"237 -118 CURVE SMOOTH"
);
}
);
width = 660;
}
);
leftKerningGroup = a;
note = adotbelow;
rightKerningGroup = a;
unicode = 1EA1;
},
{
glyphname = agrave;
lastChange = "2015-10-28 14:45:03 +0000";
layers = (
{
layerId = "C917F9CB-DEFA-4BDD-B24E-8B4296F56613";
name = "SemiBold Italic";
paths = (
{
closed = 1;
nodes = (
"428 377 OFFCURVE",
"474 340 OFFCURVE",
"481 285 CURVE",
"462 194 LINE",
"429 138 OFFCURVE",
"370 102 OFFCURVE",
"301 102 CURVE SMOOTH",
"203 102 OFFCURVE",
"178 148 OFFCURVE",
"197 239 CURVE SMOOTH",
"214 322 OFFCURVE",
"284 377 OFFCURVE",
"365 377 CURVE SMOOTH"
);
},
{
closed = 1;
nodes = (
"513 437 LINE",
"479 475 OFFCURVE",
"423 495 OFFCURVE",
"351 495 CURVE SMOOTH",
"201 495 OFFCURVE",
"75 391 OFFCURVE",
"42 239 CURVE SMOOTH",
"10 85 OFFCURVE",
"102 -15 OFFCURVE",
"242 -15 CURVE SMOOTH",
"317 -15 OFFCURVE",
"377 5 OFFCURVE",
"437 52 CURVE",
"426 0 LINE",
"572 0 LINE",
"674 480 LINE",
"523 480 LINE"
);
},
{
closed = 1;
nodes = (
"530 535 LINE",
"498 711 LINE",
"339 711 LINE",
"390 535 LINE"
);
}
);
width = 660;
}
);
leftKerningGroup = a;
note = agrave;
rightKerningGroup = a;
unicode = 00E0;
},
{
glyphname = ahookabove;
lastChange = "2015-10-28 14:45:02 +0000";
layers = (
{
layerId = "C917F9CB-DEFA-4BDD-B24E-8B4296F56613";
name = "SemiBold Italic";
paths = (
{
closed = 1;
nodes = (
"428 377 OFFCURVE",
"474 340 OFFCURVE",
"481 285 CURVE",
"462 194 LINE",
"429 138 OFFCURVE",
"370 102 OFFCURVE",
"301 102 CURVE SMOOTH",
"203 102 OFFCURVE",
"178 148 OFFCURVE",
"197 239 CURVE SMOOTH",
"214 322 OFFCURVE",
"284 377 OFFCURVE",
"365 377 CURVE SMOOTH"
);
},
{
closed = 1;
nodes = (
"513 437 LINE",
"479 475 OFFCURVE",
"423 495 OFFCURVE",
"351 495 CURVE SMOOTH",
"201 495 OFFCURVE",
"75 391 OFFCURVE",
"42 239 CURVE SMOOTH",
"10 85 OFFCURVE",
"102 -15 OFFCURVE",
"242 -15 CURVE SMOOTH",
"317 -15 OFFCURVE",
"377 5 OFFCURVE",
"437 52 CURVE",
"426 0 LINE",
"572 0 LINE",
"674 480 LINE",
"523 480 LINE"
);
},
{
closed = 1;
nodes = (
"633 723 OFFCURVE",
"593 765 OFFCURVE",
"493 765 CURVE SMOOTH",
"455 765 OFFCURVE",
"408 758 OFFCURVE",
"381 750 CURVE",
"365 675 LINE",
"379 681 OFFCURVE",
"413 686 OFFCURVE",
"429 686 CURVE SMOOTH",
"472 686 OFFCURVE",
"487 675 OFFCURVE",
"481 651 CURVE",
"474 617 OFFCURVE",
"439 607 OFFCURVE",
"387 607 CURVE",
"372 535 LINE",
"504 535 LINE",
"510 564 LINE",
"570 576 OFFCURVE",
"610 614 OFFCURVE",
"620 662 CURVE SMOOTH"
);
}
);
width = 660;
}
);
leftKerningGroup = a;
note = ahookabove;
rightKerningGroup = a;
unicode = 1EA3;
},
{
glyphname = "alpha-latin";
lastChange = "2015-10-28 14:45:03 +0000";
layers = (
{
layerId = "C917F9CB-DEFA-4BDD-B24E-8B4296F56613";
name = "SemiBold Italic";
paths = (
{
closed = 1;
nodes = (
"428 377 OFFCURVE",
"474 340 OFFCURVE",
"481 285 CURVE",
"462 194 LINE",
"429 138 OFFCURVE",
"370 102 OFFCURVE",
"301 102 CURVE SMOOTH",
"203 102 OFFCURVE",
"178 148 OFFCURVE",
"197 239 CURVE SMOOTH",
"214 322 OFFCURVE",
"284 377 OFFCURVE",
"365 377 CURVE SMOOTH"
);
},
{
closed = 1;
nodes = (
"513 437 LINE",
"479 475 OFFCURVE",
"423 495 OFFCURVE",
"351 495 CURVE SMOOTH",
"201 495 OFFCURVE",
"75 391 OFFCURVE",
"42 239 CURVE SMOOTH",
"10 85 OFFCURVE",
"102 -15 OFFCURVE",
"242 -15 CURVE SMOOTH",
"317 -15 OFFCURVE",
"377 5 OFFCURVE",
"437 52 CURVE",
"426 0 LINE",
"572 0 LINE",
"674 480 LINE",
"523 480 LINE"
);
}
);
width = 665;
}
);
leftKerningGroup = a;
note = ascript;
rightKerningGroup = a;
unicode = 0251;
},
{
glyphname = amacron;
lastChange = "2015-10-28 14:45:02 +0000";
layers = (
{
layerId = "C917F9CB-DEFA-4BDD-B24E-8B4296F56613";
name = "SemiBold Italic";
paths = (
{
closed = 1;
nodes = (
"428 377 OFFCURVE",
"474 340 OFFCURVE",
"481 285 CURVE",
"462 194 LINE",
"429 138 OFFCURVE",
"370 102 OFFCURVE",
"301 102 CURVE SMOOTH",
"203 102 OFFCURVE",
"178 148 OFFCURVE",
"197 239 CURVE SMOOTH",
"214 322 OFFCURVE",
"284 377 OFFCURVE",
"365 377 CURVE SMOOTH"
);
},
{
closed = 1;
nodes = (
"513 437 LINE",
"479 475 OFFCURVE",
"423 495 OFFCURVE",
"351 495 CURVE SMOOTH",
"201 495 OFFCURVE",
"75 391 OFFCURVE",
"42 239 CURVE SMOOTH",
"10 85 OFFCURVE",
"102 -15 OFFCURVE",
"242 -15 CURVE SMOOTH",
"317 -15 OFFCURVE",
"377 5 OFFCURVE",
"437 52 CURVE",
"426 0 LINE",
"572 0 LINE",
"674 480 LINE",
"523 480 LINE"
);
},
{
closed = 1;
nodes = (
"608 545 LINE",
"628 643 LINE",
"295 643 LINE",
"275 545 LINE"
);
}
);
width = 660;
}
);
leftKerningGroup = a;
note = amacron;
rightKerningGroup = a;
unicode = 0101;
},
